<svg id="Layer_1" data-name="Layer 1" xmlns="http://www.w3.org/2000/svg" viewBox="0 0 506.54 155.8"><defs><style>.cls-1{fill:#ff930e;}.cls-2{fill:#404040;}.cls-3{fill:#fa8322;}</style></defs><title>logo-luan</title><path class="cls-1" d="M234,5.74v46h17.56v13.3H218.8V5.74Z" transform="translate(-4 -5.47)"/><path class="cls-1" d="M272.43,43.18a5.18,5.18,0,0,1,.08,1,4.79,4.79,0,0,0,.08.88,17.42,17.42,0,0,0,.88,3.69q1.77,4.17,6.66,4.17c3.37,0,5.56-1.29,6.57-3.85a16.83,16.83,0,0,0,.88-3.69l.08-1.92V5.74h15.16V41.57q0,12-5.94,18.2-6.25,6.42-16.59,6.42A29,29,0,0,1,272,65a19,19,0,0,1-8.74-5.13A21.74,21.74,0,0,1,258.4,52a38.6,38.6,0,0,1-1.12-10.43V5.74h15.15Z" transform="translate(-4 -5.47)"/><path class="cls-1" d="M305.54,65.06,329,5.74H342.1l22.77,59.32H348.28l-2.81-8.57H324.71L322,65.06Zm22.93-20.6h13.07l-6.65-20.68Z" transform="translate(-4 -5.47)"/><path class="cls-1" d="M406.48,5.74H421V65.06H407.84L385.16,29.31l.32,35.75H371V5.74H384L406.8,41.89Z" transform="translate(-4 -5.47)"/><path class="cls-2" d="M240.76,100.74c.59.05,1.14.08,1.65.08a12,12,0,0,1,1.48.08,49.4,49.4,0,0,1,6.89,1.2,24.94,24.94,0,0,1,13.47,9.7q5.46,7.55,5.45,18.44,0,13.39-6.81,21-7.86,8.81-23.73,8.81H218.4V100.74Zm-.72,46q14.51,0,14.51-16.27a19.68,19.68,0,0,0-2.88-11,11.43,11.43,0,0,0-3.93-3.69,14.72,14.72,0,0,0-7.62-1.76h-6.57v32.7Z" transform="translate(-4 -5.47)"/><path class="cls-2" d="M311.48,100.74v13.31H293v9.22h17.87v13.3H293v10.18h18.44v13.31h-33.6V100.74Z" transform="translate(-4 -5.47)"/><path class="cls-2" d="M334.33,147.08a4,4,0,0,0,.92.68,6.28,6.28,0,0,0,1.08.44,4.39,4.39,0,0,0,1.76.32,5.51,5.51,0,0,0,4.25-1.85,5.35,5.35,0,0,0,1.53-3.84,4.37,4.37,0,0,0-2.41-3.69,22.18,22.18,0,0,0-3.08-1.6c-1.53-.7-3.57-1.58-6.14-2.65l-.88-.32-1-.4c-.38-.21-.74-.4-1.08-.56l-1.09-.48a25.74,25.74,0,0,1-4.81-3.21,15.13,15.13,0,0,1-5.69-12,16.49,16.49,0,0,1,6.65-13.62,22.21,22.21,0,0,1,14.12-4.65,21.73,21.73,0,0,1,13,3.84q6.9,5,7,14.59h-15l-.16-.8-.16-1a6.55,6.55,0,0,0-.8-1.84,4.61,4.61,0,0,0-4.33-2.17,5.42,5.42,0,0,0-3.6,1.28,4.27,4.27,0,0,0-1.61,3.37A3.94,3.94,0,0,0,335,120.3q.88.56,3.36,1.8t6.74,3.09q7.69,3.45,11.06,7.78a15,15,0,0,1,2.81,9.22q0,8.17-4.41,13.06-5.46,5.94-16.28,5.94-11.13,0-16.67-6-5.13-5.44-4.73-14.75h15.07C331.92,143.42,332.72,145.63,334.33,147.08Z" transform="translate(-4 -5.47)"/><path class="cls-2" d="M381.31,100.74v59.32H366.16V100.74Z" transform="translate(-4 -5.47)"/><path class="cls-2" d="M430.77,116.61a14.49,14.49,0,0,0-9.94-3.69,15.84,15.84,0,0,0-10.9,4.25q-5.3,4.81-5.29,13,0,8.66,5.37,13.55a16.76,16.76,0,0,0,20.2,1.6,11.43,11.43,0,0,0,4.89-6.89H417.38V126.31h35.2a30.64,30.64,0,0,1-.24,7.94,32.29,32.29,0,0,1-2.49,9.06A28.53,28.53,0,0,1,437,157.18a33.08,33.08,0,0,1-16,4.09,30.37,30.37,0,0,1-22.45-9.14,29.9,29.9,0,0,1-9.05-22,29,29,0,0,1,9.3-21.89q9.13-8.65,22.44-8.65a31.63,31.63,0,0,1,18.92,6.17,27.46,27.46,0,0,1,10.75,14.83h-17A19.07,19.07,0,0,0,430.77,116.61Z" transform="translate(-4 -5.47)"/><path class="cls-2" d="M496,100.74h14.51v59.32H497.4l-22.69-35.75.32,35.75H460.52V100.74h13.07l22.76,36.15Z" transform="translate(-4 -5.47)"/><g id="Layer_2" data-name="Layer 2"><path class="cls-2" d="M177.37,34.66A67,67,0,0,0,141.22,9.13,134.68,134.68,0,0,0,122.71,6a39.68,39.68,0,0,0-4-.21c-1.36,0-2.83-.06-4.41-.21h-60V49L95,49.14V40.57H112.6q12.48,0,20.44,4.64a30.13,30.13,0,0,1,10.54,9.71q7.75,11.6,7.75,28.9c0,28.55-12.58,41.54-38.55,41.54l-12.78.46.17,34.84,12.15.34c28.4,0,47.33-7.06,61.39-22.53Q192,118.42,192,83.19,192,54.5,177.37,34.66Z" transform="translate(-4 -5.47)"/><polygon class="cls-3" points="96.28 120.35 40.74 120.35 40.74 0 0 0 0 155.53 96.28 155.36 96.28 120.35"/></g></svg>