<svg width="109" height="13" viewBox="0 0 109 13" fill="none" xmlns="http://www.w3.org/2000/svg">
<path d="M9.92795 2.9041C9.62403 2.73526 9.37318 2.7642 9.20916 3.08259L6.89843 7.21683L10.7529 7.22165L12.2001 9.89902C10.2078 9.90384 8.22023 9.90866 6.22789 9.90866C5.19553 9.87007 4.78066 11.1533 4.20177 12.2242H0L6.66205 0.0627154L12.5233 0.10613L17.5838 9.32978C20.319 9.24777 25.4325 9.22365 26.9521 9.21882C27.9604 9.12716 27.7433 7.40014 26.9473 7.30366L18.3604 7.3133L14.3902 0.077187H25.2444C25.804 0.077187 27.4731 0.0434179 28.684 0.0916587C28.7322 0.0916587 28.7853 0.10614 28.8335 0.115788C29.5041 0.231566 29.8321 0.424533 30.247 0.8587C30.7197 1.35558 30.8645 2.15637 30.8645 2.94269C30.8645 3.61806 30.8114 4.30791 30.6522 4.77585C30.3869 5.55735 29.8852 5.91915 29.287 6.05423C30.2228 6.14106 31.1539 6.46427 31.2986 8.26848C31.3276 8.66405 31.3903 9.11751 31.3662 9.65298C31.3276 10.5937 30.9416 11.4475 30.1939 11.7418C28.4814 12.422 25.5966 12.1953 24.487 12.2001L18.4666 12.229C18.2591 12.229 18.0662 12.2194 17.8925 12.2001L15.0608 12.2098C13.3386 9.10787 11.6453 6.00599 9.92795 2.9041ZM20.6615 4.84338C21.8772 4.84338 24.7572 4.84338 26.0018 4.84338C26.0066 4.84338 26.0163 4.83856 26.0259 4.83856C27.5551 4.87716 27.2898 3.1839 26.5131 3.03918C26.4215 3.01988 26.3877 3.00058 26.2575 3.00058C24.6221 2.99093 20.7677 3.00541 19.6243 3.00541L20.6615 4.84338ZM32.8906 0.077187H43.0501C43.9474 0.077187 46.6295 -0.101292 47.9706 0.979302C48.4964 1.399 48.6653 2.16119 48.6653 2.94752C48.6653 3.62289 48.6122 4.31273 48.453 4.78066C48.1877 5.56216 47.686 5.92398 47.0878 6.05906C48.2263 6.25202 49.3214 6.86467 49.2201 9.4938C49.085 12.9768 43.8702 12.2339 42.2879 12.2049L32.8809 12.0361V0.077187H32.8906ZM36.8608 9.29601C38.0813 9.29601 42.8668 9.29601 44.1066 9.29601C44.1162 9.29601 44.1259 9.29118 44.1307 9.29118C45.6599 9.32977 45.3222 7.46768 44.5504 7.32296C44.4587 7.30367 44.4925 7.34708 44.3622 7.34708C42.722 7.33743 37.9365 7.28436 36.7932 7.28436L36.8608 9.29601ZM36.8608 4.84338C38.0813 4.84338 42.4133 4.8482 43.6531 4.84338C43.6627 4.84338 43.6676 4.83856 43.6772 4.83856C45.2064 4.87716 44.9411 3.1839 44.1644 3.03918C44.0728 3.01988 44.039 3.00058 43.9088 3.00058C42.2686 2.99093 37.9993 3.00541 36.8608 3.00541V4.84338ZM67.6481 0H74.4548C76.2446 2.59053 78.0295 5.17624 79.8192 7.76677C80.374 8.77983 80.9529 9.01621 81.1458 8.23953L81.0831 6.088V0.0627154L85.0678 0.072373L85.0581 12.229L78.3865 12.2339C76.2928 9.39731 74.5127 6.79714 72.4191 3.96058C72.0139 3.26109 71.4784 3.66149 71.4784 4.1439C71.4784 4.53947 71.4687 5.05564 71.4977 5.58629V12.2918L67.6481 12.229H67.2573C67.0499 12.229 66.8569 12.2194 66.6784 12.2001L63.8467 12.2098C62.1341 9.10787 60.4361 6.00599 58.7187 2.9041C58.4148 2.73526 58.1687 2.7642 57.9999 3.08259L55.6891 7.21683L59.3748 7.22165L60.822 9.89902C58.8296 9.90384 57.0061 9.90866 55.0138 9.90866C53.9814 9.87007 53.5666 11.1533 52.9877 12.2242H48.7859L55.4479 0.0627154L61.4829 0.0579013L66.4903 9.31531C66.6495 9.55169 66.881 10.0244 67.0643 10.1016C67.3104 10.174 67.484 10.1065 67.6432 9.94726V0H67.6481ZM86.4523 0.0579013H90.3791V4.33686C90.8519 5.26308 91.9325 5.13765 92.7284 4.25484L97.3258 0.0627154H102.097L95.4155 6.15553L102.328 12.2483H97.4753C95.7242 10.6419 93.8766 9.16093 92.1254 7.55451C91.1365 6.99974 90.3887 7.39531 90.4273 8.49038C90.437 8.74606 90.4225 9.01621 90.4225 9.29601V12.2821L86.4475 12.2918V0.0579013H86.4523Z" fill="#00A9AC"/>
<path d="M104.836 0.0579834L108.748 0.0627975L102.038 6.15561L108.999 12.234L105.068 12.2436L98.1113 6.18938L104.836 0.0579834Z" fill="#E0762E"/>
</svg>
