  <svg width="66" height="27" viewBox="0 0 66 27" fill="none" xmlns="http://www.w3.org/2000/svg">
                                                <path fill-rule="evenodd" clip-rule="evenodd" d="M52.4635 10.6522C54.0395 10.5421 55.5693 10.5305 57.0642 10.3045C58.4781 10.0959 58.9474 9.0529 59.0285 8.0157C59.1328 6.69457 58.4955 5.74429 57.2902 5.37924C55.7083 4.89831 54.0859 5.28653 52.4577 5.13588C52.4635 6.97271 52.4635 8.72262 52.4635 10.6522ZM52.4693 21.2038C54.2713 21.0937 56.0386 21.0763 57.777 20.8561C59.1676 20.6823 60.0599 19.5929 60.1469 18.4399C60.3033 16.3828 59.3994 15.4963 58.0551 15.0559C56.2298 14.4591 54.3466 14.8241 52.4635 14.7082C52.4693 16.8638 52.4693 18.944 52.4693 21.2038ZM61.3927 12.3383C61.7867 12.518 62.3024 12.7208 62.7891 12.9699C64.4231 13.8217 65.4545 15.1718 65.837 16.9565C66.1499 18.4109 66.005 19.8595 65.4488 21.2617C64.9678 22.467 64.1566 23.3767 63.0673 24.0373C61.8678 24.7616 60.5467 25.2019 59.1502 25.2715C56.6413 25.3932 54.1207 25.4453 51.6059 25.4974C50.3427 25.5264 49.0795 25.5032 47.8106 25.5032C47.1442 25.5032 46.9414 25.2889 46.9414 24.6283C46.9414 16.9333 46.9414 9.23253 46.9414 1.53755C46.9414 0.807449 47.1036 0.651001 47.8395 0.651001C50.7541 0.651001 53.6687 0.627823 56.5833 0.66259C58.3622 0.679973 60.0831 0.975487 61.6766 1.85624C63.2643 2.73119 64.1856 4.05812 64.539 5.81382C64.9215 7.7086 64.51 9.41795 63.2527 10.8608C62.737 11.4518 62.0069 11.8574 61.3927 12.3383Z" fill="#1E4997"/>
                                                <path fill-rule="evenodd" clip-rule="evenodd" d="M12.0018 6.29475C10.9877 9.39476 10.0143 12.3673 9.02922 15.3746C11.0109 15.3746 12.9288 15.3746 14.9105 15.3746C13.9545 12.3789 12.9984 9.40635 12.0018 6.29475ZM12.2161 0.650993C12.9868 0.650993 13.7575 0.639404 14.5223 0.656787C15.0438 0.668376 15.4147 0.848002 15.6175 1.41006C17.1008 5.53568 18.6132 9.64392 20.1197 13.7638C21.4351 17.3563 22.7678 20.9488 24.0773 24.5472C24.367 25.341 24.2222 25.509 23.3762 25.509C21.9276 25.509 20.479 25.4974 19.0361 25.5148C18.4335 25.5206 18.0975 25.2251 17.912 24.6862C17.4021 23.1797 16.8806 21.6731 16.3997 20.155C16.307 19.8653 16.1853 19.7841 15.9072 19.7841C13.2881 19.7899 10.669 19.7957 8.04996 19.7784C7.74865 19.7784 7.65014 19.9116 7.56902 20.1608C7.0649 21.6905 6.53182 23.2086 6.04508 24.75C5.87125 25.3004 5.50621 25.4916 5.0021 25.4974C3.55349 25.5148 2.1049 25.509 0.662087 25.4974C0.0304956 25.4916 -0.125978 25.2773 0.0942101 24.6862C1.16618 21.8006 2.25554 18.9266 3.3333 16.041C4.19667 13.729 5.05425 11.417 5.91182 9.09925C6.84472 6.58447 7.76604 4.0639 8.70474 1.54913C8.97707 0.824825 9.28416 0.639404 10.0606 0.639404C10.7849 0.650993 11.4976 0.650993 12.2161 0.650993Z" fill="#1E4997"/>
                                                <path fill-rule="evenodd" clip-rule="evenodd" d="M29.0192 13.0916C29.083 16.5219 31.1342 19.4364 34.2748 20.4678C36.9518 21.3486 39.3333 20.688 41.4251 18.8628C41.8596 18.4804 42.1494 18.4572 42.555 18.857C43.3778 19.6624 44.1948 20.4794 45.006 21.308C45.4348 21.7426 45.4232 22.1482 44.977 22.5712C43.0475 24.3965 40.7819 25.5206 38.1396 25.961C36.1521 26.2912 34.211 26.1522 32.3163 25.5843C30.549 25.057 28.9671 24.1473 27.5648 22.9073C25.2644 20.8735 23.8158 18.3471 23.3349 15.3514C22.7149 11.4923 23.5319 7.88818 26.0351 4.82293C27.9646 2.4646 30.4331 0.859549 33.4925 0.314874C34.3617 0.164219 35.2424 -0.0212023 36.1116 0.00197537C39.1363 0.10048 41.9118 0.958055 44.2585 2.95713C44.4382 3.10778 44.6236 3.25264 44.809 3.3975C45.3305 3.8147 45.3653 4.18554 44.8727 4.73022C44.1079 5.57041 43.2967 6.36424 42.4623 7.1407C42.1262 7.45359 41.6974 7.48257 41.286 7.1407C40.2024 6.24256 38.9856 5.582 37.5892 5.39078C35.7118 5.13583 33.9213 5.50667 32.3742 6.6192C30.2418 8.14892 29.0656 10.3566 29.0192 13.0916Z" fill="#1E4997"/>
                                                <path fill-rule="evenodd" clip-rule="evenodd" d="M41.1128 13.1263C41.1302 15.6295 39.1543 17.5648 36.6685 17.5706C34.2174 17.5764 32.1372 15.6584 32.2068 12.9756C32.2705 10.4493 34.1595 8.60664 36.6569 8.60084C39.0963 8.59505 41.1418 10.3971 41.1128 13.1263Z" fill="#26A9E1"/>
                                                </svg>