<svg width="23" height="23" viewBox="0 0 23 23" fill="none" xmlns="http://www.w3.org/2000/svg">
<g clip-path="url(#clip0)">
<path d="M13.2656 10.3286C13.7906 10.8222 14.2478 11.3868 14.6348 12.0215C15.6132 11.4085 16.7689 11.0534 18.0061 11.0534C18.5302 11.0534 19.0394 11.1175 19.527 11.2374C18.7431 10.2114 17.7988 9.45167 16.6046 8.88916C15.7092 9.70609 14.5469 10.2351 13.2656 10.3286Z" fill="#FFF8F8"/>
<path d="M11.6358 17.4212C11.6358 15.6438 12.3681 14.0345 13.5465 12.8782C12.8827 11.7276 11.9768 10.8609 10.7999 10.251C9.8302 10.9185 8.6564 11.31 7.39273 11.31C6.13271 11.31 4.96203 10.9208 3.99396 10.2568C1.54205 11.5828 0 14.3425 0 17.5291V22.4176H14.0602C12.5845 21.2503 11.6358 19.4445 11.6358 17.4212Z" fill="#FFF8F8"/>
<path d="M13.4155 5.28666C13.4155 6.57694 13.0075 7.77363 12.3141 8.75487L12.3491 8.94258C12.5158 8.96252 12.6843 8.97253 12.853 8.97253C15.1662 8.97253 17.048 7.09066 17.048 4.77755C17.048 2.46438 15.1662 0.58252 12.853 0.58252C12.3654 0.58252 11.888 0.666182 11.4375 0.827519C12.6518 1.93036 13.4155 3.521 13.4155 5.28666Z" fill="#FFF8F8"/>
<path d="M8.46346 9.80975C10.9634 9.2188 12.511 6.71314 11.9201 4.2132C11.3291 1.71325 8.82343 0.165705 6.32347 0.756653C3.8235 1.3476 2.27593 3.85327 2.86687 6.35321C3.45781 8.85315 5.96349 10.4007 8.46346 9.80975Z" fill="#FFF8F8"/>
<path d="M23.0004 17.4211C23.0004 14.6661 20.7591 12.4248 18.0041 12.4248C15.2491 12.4248 13.0078 14.6661 13.0078 17.4211C13.0078 20.1761 15.2491 22.4174 18.0041 22.4174C20.7591 22.4175 23.0004 20.1761 23.0004 17.4211ZM15.094 18.1069V16.7354H17.3183V14.511H18.6898V16.7354H20.9142V18.1069H18.6898V20.3312H17.3183V18.1069H15.094Z" fill="#FFF8F8"/>
</g>
<defs>
<clipPath id="clip0">
<rect width="23" height="23" fill="white"/>
</clipPath>
</defs>
</svg>
