<svg width="115" height="18" viewBox="0 0 135 18" fill="none" xmlns="http://www.w3.org/2000/svg">
<path d="M30.1934 12.2342H26.0592L28.1107 7.41414L30.1934 12.2342ZM30.0125 17.31H35.7243V16.6927C35.5684 16.6927 35.3751 16.6615 35.1257 16.6054C34.8825 16.543 34.6954 16.4869 34.5458 16.3934C34.3338 16.2562 34.1654 16.119 34.0407 15.9881C33.9035 15.8509 33.7975 15.6576 33.7039 15.4269L29.1271 4.70791H28.3476C27.7053 6.22939 26.9571 7.96288 26.1277 9.90214C25.3047 11.8476 24.5377 13.6061 23.8455 15.1587C23.7083 15.458 23.5712 15.7012 23.434 15.8821C23.2781 16.0504 23.0786 16.2125 22.8229 16.3809C22.667 16.4744 22.455 16.5493 22.2118 16.5929C21.9686 16.6553 21.7504 16.6802 21.582 16.6989V17.3162H26.7575V16.6989C26.24 16.6864 25.7785 16.6116 25.3795 16.4744C24.9679 16.356 24.7684 16.1564 24.7684 15.9319C24.7684 15.8259 24.7871 15.7075 24.8121 15.5391C24.8432 15.3894 24.9056 15.1774 24.9804 14.9405C25.0739 14.6661 25.1799 14.398 25.2859 14.0987C25.4106 13.7994 25.5478 13.4377 25.7287 13.0324H30.5363L31.6836 15.8197C31.7148 15.882 31.7273 15.9382 31.746 16.013C31.746 16.0878 31.7584 16.1502 31.7584 16.2063C31.7584 16.3435 31.5901 16.4495 31.2534 16.5368C30.9291 16.6116 30.5051 16.674 30.0125 16.7051V17.31ZM49.0435 12.2904C49.3054 12.2467 49.5049 12.2342 49.6545 12.2031V11.592H43.6372V12.2031C43.8368 12.2155 44.1299 12.2467 44.4978 12.2904C44.8657 12.334 45.1587 12.3964 45.352 12.4774C45.5952 12.5647 45.7511 12.6957 45.8259 12.8827C45.8883 13.0573 45.9319 13.2756 45.9319 13.5125V14.1673C45.9319 14.3855 45.9319 14.6349 45.9194 14.9405C45.9194 15.2335 45.8883 15.5391 45.8446 15.8322C45.6638 16.0068 45.3208 16.1689 44.8469 16.3123C44.3855 16.4744 43.8679 16.5493 43.3005 16.5493C42.5335 16.5493 41.8601 16.4058 41.249 16.1128C40.6504 15.8197 40.164 15.4269 39.7649 14.928C39.3534 14.4354 39.0478 13.8493 38.8483 13.1633C38.6363 12.4899 38.5241 11.779 38.5241 11.0058C38.5241 10.1453 38.63 9.35965 38.8483 8.65503C39.0603 7.95664 39.3721 7.37049 39.7649 6.90282C40.164 6.40398 40.6255 6.04231 41.1742 5.79289C41.7104 5.54347 42.3215 5.43123 43.0261 5.43123C43.6559 5.43123 44.1922 5.531 44.6474 5.74925C45.1088 5.95502 45.4892 6.24186 45.8134 6.59729C46.119 6.95895 46.3809 7.35803 46.5804 7.80699C46.78 8.26218 46.9483 8.71114 47.0855 9.17881H47.8837L47.7901 4.96356H47.0232L46.6241 5.54347C46.1813 5.31276 45.6762 5.10698 45.0901 4.94485C44.5227 4.78273 43.8492 4.69543 43.0698 4.69543C42.1033 4.69543 41.1991 4.85756 40.3448 5.17558C39.503 5.48112 38.7672 5.91761 38.1562 6.49128C37.5264 7.07743 37.04 7.74463 36.6846 8.53655C36.3478 9.32223 36.1795 10.1703 36.1795 11.0869C36.1795 12.0347 36.3478 12.8952 36.7157 13.6684C37.0836 14.4416 37.5575 15.0964 38.1686 15.6389C38.7797 16.1627 39.4843 16.5742 40.3137 16.861C41.1243 17.1541 41.9661 17.2975 42.8391 17.2975C43.6684 17.2975 44.4915 17.1978 45.352 17.0232C46.2125 16.8486 47.0543 16.5867 47.9086 16.2499C47.9086 16.0878 47.8961 15.9008 47.8774 15.6513C47.8774 15.4144 47.8649 14.9654 47.8649 14.2795V13.3442C47.8649 13.1384 47.9086 12.9513 47.9897 12.7892C48.0645 12.6395 48.2017 12.5273 48.4012 12.44C48.5633 12.3777 48.7629 12.3215 49.0435 12.2904ZM56.9003 10.8437H55.6469V5.4437H57.2869C58.1599 5.4437 58.8333 5.65571 59.3072 6.11714C59.7811 6.55987 60.0243 7.15225 60.0243 7.9317C60.0243 8.82962 59.7312 9.53423 59.1389 10.0705C58.534 10.5818 57.8044 10.8437 56.9003 10.8437ZM61.4148 17.31H65.1188V16.6864C64.9504 16.6864 64.7384 16.6553 64.4765 16.6054C64.2333 16.5742 64.0151 16.5118 63.8467 16.437C63.6347 16.331 63.404 16.1938 63.1733 16.0255C62.9425 15.8571 62.6806 15.6014 62.3938 15.2335C61.7515 14.4416 61.1966 13.7557 60.7539 13.1883C60.2924 12.6208 59.7437 11.9412 59.0516 11.1118C59.5442 10.9747 59.9994 10.8188 60.3985 10.6255C60.81 10.4384 61.1654 10.2264 61.4522 9.97073C61.7578 9.69637 62.001 9.37211 62.1569 9.01045C62.3252 8.63008 62.4001 8.19982 62.4001 7.71345C62.4001 7.17719 62.2753 6.72199 62.0509 6.34162C61.8077 5.96126 61.4834 5.637 61.0844 5.41252C60.6728 5.16933 60.2114 4.98227 59.7063 4.87626C59.1887 4.77026 58.6525 4.70791 58.0663 4.70791H51.7248V5.35017C51.8931 5.35017 52.1238 5.38135 52.3857 5.425C52.6476 5.46864 52.8472 5.51853 53.0155 5.58088C53.2462 5.65571 53.3959 5.78042 53.477 5.94878C53.5393 6.10467 53.5705 6.2855 53.5705 6.49751V15.6077C53.5705 15.8384 53.5268 16.0317 53.4333 16.1689C53.3585 16.3248 53.2213 16.4433 53.0218 16.5181C52.8971 16.568 52.6975 16.5929 52.4107 16.6241C52.1051 16.6553 51.8869 16.6677 51.7372 16.6864V17.31H57.5426V16.6864C57.343 16.6864 57.0998 16.6553 56.8068 16.6241C56.5137 16.5929 56.3141 16.5493 56.1957 16.5181C55.9649 16.4245 55.8153 16.3061 55.753 16.1502C55.6781 15.9943 55.6469 15.8135 55.6469 15.6015V11.6044H57.0437C57.8232 12.5211 58.5465 13.4065 59.2012 14.2608C59.8559 15.1151 60.6042 16.1377 61.4148 17.31ZM66.4532 17.31H72.6451V16.7488C72.4268 16.7488 72.1712 16.7176 71.8656 16.674C71.5601 16.6116 71.3419 16.568 71.2047 16.5368C70.974 16.4433 70.8181 16.3372 70.7121 16.2063C70.6185 16.0878 70.5749 15.9195 70.5749 15.7511V6.24185C70.5749 6.06102 70.6185 5.91137 70.7121 5.75548C70.7869 5.6183 70.9553 5.5123 71.2047 5.45617C71.4042 5.39382 71.6474 5.35017 71.9218 5.31899C72.1961 5.28781 72.4456 5.27534 72.6451 5.25663V4.69543H66.4532V5.25663C66.634 5.2691 66.8834 5.30028 67.1703 5.36264C67.4634 5.40628 67.7065 5.46864 67.9061 5.531C68.168 5.62453 68.3363 5.72431 68.4112 5.84902C68.4735 5.96749 68.5171 6.51622 68.5171 6.69082V15.8384C68.5171 16.0504 68.4548 16.2001 68.3613 16.3185C68.2677 16.437 68.1181 16.5306 67.8998 16.6054C67.7626 16.649 67.5319 16.6802 67.1952 16.6927C66.871 16.7239 66.6153 16.7363 66.4407 16.7363V17.31H66.4532ZM85.2347 14.0239C85.2347 14.7721 84.898 15.3957 84.237 15.8945C83.5761 16.3934 82.6282 16.6553 81.3686 16.6553C80.5892 16.6553 79.7911 16.5617 78.9929 16.3996V11.2428C79.1737 11.2116 79.4232 11.1804 79.7287 11.168C80.0343 11.1555 80.4021 11.1555 80.8324 11.1555C81.8114 11.1555 82.6532 11.2927 83.3266 11.5483C84.0001 11.8102 84.474 12.1594 84.7795 12.6146C85.0788 13.0636 85.2347 13.5375 85.2347 14.0239ZM84.4054 9.31599C84.1435 9.70884 83.7506 10.0144 83.2393 10.2139C82.7342 10.3948 81.9673 10.5007 80.9571 10.5007C80.558 10.5007 80.2026 10.4883 79.8721 10.4696C79.5354 10.4384 79.2423 10.4072 78.9991 10.3636V5.52477C79.5479 5.38758 80.1777 5.32522 80.8698 5.32522C82.1543 5.32522 83.1333 5.58089 83.813 6.09844C84.4865 6.61599 84.8232 7.23955 84.8232 7.98782C84.8232 8.46795 84.686 8.91068 84.4054 9.31599ZM86.644 11.7728C86.1513 11.3613 85.4156 11.0744 84.4366 10.8749C85.2784 10.6317 85.9206 10.27 86.3509 9.76496C86.7812 9.27858 86.9931 8.69867 86.9931 8.07511C86.9931 7.32684 86.7188 6.67211 86.1638 6.11091C85.6151 5.54971 84.8169 5.15063 83.7881 4.92615C83.1021 4.77649 82.1793 4.71414 81.0507 4.71414H74.9523V5.05086H75.4885C76.0248 5.05086 76.4238 5.18804 76.6982 5.46241C76.8978 5.66195 76.9851 6.1608 76.9851 6.94024V15.0964C76.9851 15.7947 76.9102 16.2562 76.7543 16.4807C76.4925 16.8174 76.0622 16.9857 75.4823 16.9857H74.946V17.3225H81.6118C83.1894 17.3225 84.368 17.1978 85.1474 16.9296C85.9144 16.6677 86.5255 16.2437 86.9682 15.6825C87.4109 15.1026 87.6292 14.5102 87.6292 13.8742C87.6417 13.0324 87.3049 12.334 86.644 11.7728ZM98.2546 12.5211H93.4158L95.8664 7.53885L98.2546 12.5211ZM103.954 16.967C103.374 16.9359 102.925 16.8049 102.607 16.5617C102.283 16.3061 101.915 15.776 101.535 14.9529L96.6209 4.70167H96.253L91.3082 14.8469C90.8779 15.7262 90.4789 16.3185 90.1297 16.6178C89.9613 16.7488 89.5809 16.8735 88.9823 16.9608V17.3038H93.4283V16.9608C92.7548 16.9296 92.3121 16.8423 92.1126 16.6927C91.9006 16.543 91.807 16.3809 91.807 16.2001C91.807 15.9631 91.913 15.6014 92.1624 15.1275L93.1102 13.182H98.5601L99.4206 14.9529C99.695 15.5329 99.8322 15.9506 99.8322 16.2188C99.8322 16.4121 99.7387 16.5929 99.5454 16.7238C99.3458 16.8735 98.9654 16.9483 98.4105 16.9608V17.3038H103.973V16.967H103.954ZM118.763 5.03839H119.268V4.70791H114.355V5.03839H114.847C115.396 5.03839 115.814 5.16934 116.07 5.425C116.257 5.60583 116.363 6.08596 116.363 6.8467V13.9989L107.739 4.70167H103.91V5.03215C104.322 5.03215 104.634 5.06333 104.827 5.11945C105.226 5.22545 105.544 5.3564 105.744 5.49359C105.956 5.63077 106.28 5.8989 106.679 6.31669V14.9529C106.679 15.6451 106.604 16.2998 106.448 16.4931C106.205 16.8049 105.775 16.9733 105.176 16.9733H104.683V17.3038H109.585V16.9733H109.092C108.543 16.9733 108.144 16.8361 107.864 16.5867C107.683 16.3934 107.589 15.7012 107.589 14.9529V7.3019L116.886 17.3038H117.254V6.84047C117.254 6.15456 117.329 5.7056 117.485 5.50606C117.753 5.20052 118.165 5.03839 118.763 5.03839ZM135.001 17.31V16.9733C134.39 16.9296 133.791 16.7737 133.193 16.4994C132.581 16.225 131.858 15.695 131.004 14.928L125.81 10.3137L127.955 8.39312C129.208 7.23331 129.913 6.60976 130.068 6.49128C130.592 6.04856 131.035 5.73054 131.403 5.531C131.758 5.35017 132.064 5.21299 132.32 5.13816C132.563 5.07581 132.843 5.04462 133.149 5.03215V4.69543H127.973V5.03215H128.298C128.647 5.03215 128.896 5.09451 129.033 5.20051C129.183 5.30652 129.252 5.43123 129.252 5.58088C129.252 5.76172 129.158 5.97996 128.977 6.22315C128.547 6.78435 127.306 7.91299 125.242 9.60283C124.444 10.27 123.958 10.6691 123.814 10.7876V6.92153C123.814 6.29797 123.858 5.8989 123.951 5.68689C124.026 5.48735 124.182 5.35017 124.394 5.24417C124.7 5.10699 125.005 5.03215 125.342 5.03215H125.816V4.69543H119.798V5.03215H120.304C120.64 5.03215 120.965 5.10698 121.251 5.26287C121.463 5.36888 121.619 5.50606 121.682 5.64324C121.775 5.85525 121.819 6.2855 121.819 6.92153V15.0777C121.819 15.8259 121.744 16.3123 121.576 16.5118C121.314 16.8174 120.883 16.967 120.304 16.967H119.798V17.3038H125.816V16.967H125.342C125.005 16.967 124.681 16.8922 124.394 16.7363C124.163 16.6303 124.026 16.4931 123.951 16.3435C123.858 16.1315 123.814 15.7012 123.814 15.0777V10.9996L128.684 15.3084C129.052 15.6451 129.264 15.8571 129.339 15.9756C129.401 16.1003 129.432 16.2188 129.432 16.3684C129.432 16.5181 129.339 16.6553 129.171 16.78C128.983 16.9047 128.697 16.9608 128.298 16.9608V17.2975H135.001V17.31Z" fill="#AA1E31"/>
<path d="M16.5554 17.8649H1.35935C0.611081 17.8649 0 17.2538 0 16.5056V1.35935C0 0.611081 0.611081 0 1.35935 0H16.5554C17.3037 0 17.9148 0.611081 17.9148 1.35935V16.5056C17.9148 17.2538 17.3037 17.8649 16.5554 17.8649Z" fill="white"/>
<path d="M17.3467 1.78346C17.3467 1.09754 16.7917 0.561279 16.1183 0.561279H12.4455L0.560547 12.44V16.0879C0.560547 16.7613 1.09682 17.3163 1.78273 17.3163H5.39311L17.3405 5.39385L17.3467 1.78346Z" fill="#AA1E31"/>
<path d="M17.3467 6.13588L6.14763 17.31H16.1183C16.7917 17.31 17.3467 16.7613 17.3467 16.0879V6.13588ZM0.566789 11.6793L11.7035 0.561279H1.78894C1.10302 0.561279 0.560547 1.09754 0.560547 1.78346L0.566789 11.6793Z" fill="#14271A"/>
<path d="M6.57227 17.1416C6.57227 17.1416 7.20828 16.8859 7.80065 16.7799C8.02514 16.73 9.31591 16.4245 9.25355 15.0963C9.23485 14.7533 8.72351 15.1898 8.72351 15.1898C8.72351 15.1898 7.70091 15.3333 7.27689 15.6014C7.05241 15.7261 6.5785 16.2561 6.57227 17.1416Z" fill="#FAE400"/>
<path d="M9.13495 15.0278C9.03519 15.0278 8.84812 15.1587 8.74835 15.2398L8.73587 15.2523H8.71718C8.70471 15.2523 7.70076 15.3957 7.28921 15.6513C7.12085 15.7511 6.65942 16.2063 6.62824 17.0543C6.82155 16.9795 7.32041 16.8049 7.78185 16.7239C8.21834 16.6241 9.24097 16.2687 9.18485 15.1026C9.18485 15.0278 9.1599 15.0278 9.13495 15.0278ZM6.50977 17.229V17.1417C6.516 16.1876 7.04605 15.6576 7.23311 15.5516C7.63843 15.2959 8.54879 15.1587 8.68597 15.1338C8.74833 15.0839 8.97283 14.9031 9.13495 14.9031C9.18484 14.9031 9.29709 14.9218 9.30333 15.0901C9.36568 16.3435 8.27444 16.7301 7.80677 16.8299C7.22687 16.9296 6.59707 17.1853 6.59083 17.1853L6.50977 17.229Z" fill="#AB1F25"/>
<path d="M10.9613 12.8828C10.9613 12.8828 11.2045 14.3856 10.001 14.8657C9.48971 15.0777 8.72894 15.3147 8.61047 15.4332C8.61047 15.4332 8.33613 14.3856 9.22158 13.7558C9.50842 13.55 10.0883 13.3567 10.4625 13.2195C10.8304 13.0886 10.9613 12.8828 10.9613 12.8828Z" fill="#FAE400"/>
<path d="M10.9185 13.0262C10.8374 13.101 10.7002 13.207 10.4882 13.2818L10.3573 13.3317C10.0019 13.4564 9.50927 13.6373 9.25984 13.8119C8.56146 14.3045 8.61133 15.0839 8.65497 15.3396C8.78592 15.2647 9.02913 15.1712 9.37832 15.0465C9.5841 14.9717 9.80232 14.8906 9.98315 14.8158C10.9185 14.4354 10.9434 13.3941 10.9185 13.0262ZM8.58015 15.5516L8.55522 15.4518C8.54899 15.4393 8.28083 14.3606 9.19122 13.7121C9.45312 13.525 9.95199 13.3442 10.3137 13.2132L10.4446 13.1634C10.7813 13.0449 10.906 12.8516 10.906 12.8453L11.012 12.8703C11.0183 12.8828 11.249 14.4292 10.0206 14.9218C9.8335 14.9966 9.62151 15.0777 9.41573 15.1525C9.09148 15.271 8.71732 15.4082 8.64873 15.4767L8.58015 15.5516Z" fill="#AB1F25"/>
<path d="M11.5849 11.0245C11.5849 11.0245 12.3332 11.9349 11.4914 12.9825C11.3105 13.2257 10.4126 13.8056 10.1882 14.0737C10.1882 14.0737 9.73917 13.101 10.2817 12.3091C10.4313 12.0846 10.9427 11.6668 11.1609 11.5047C11.3916 11.3363 11.5849 11.0245 11.5849 11.0245Z" fill="#FAE400"/>
<path d="M11.5859 11.1244C11.5111 11.2304 11.3677 11.4237 11.1993 11.5484C10.9873 11.7043 10.476 12.122 10.3325 12.3403C9.90852 12.9638 10.1205 13.7184 10.2141 13.9615C10.3512 13.8244 10.5882 13.6498 10.8127 13.4752C11.0808 13.2694 11.3614 13.0574 11.4487 12.9451C12.1159 12.1033 11.7293 11.3488 11.5859 11.1244ZM10.1767 14.1798L10.1392 14.0925C10.1205 14.0488 9.68406 13.0823 10.2328 12.2717C10.3887 12.0347 10.9062 11.617 11.1307 11.4486C11.3427 11.2927 11.536 10.9872 11.536 10.9872L11.5797 10.9186L11.6295 10.9809C11.6358 10.9934 12.3965 11.9412 11.5422 13.0137C11.4487 13.1384 11.1744 13.3505 10.8875 13.5687C10.6194 13.7682 10.345 13.9802 10.239 14.105L10.1767 14.1798Z" fill="#AB1F25"/>
<path d="M10.6759 9.03552C10.6759 9.03552 9.97747 9.44083 10.4389 10.6069C10.4825 10.7441 11.0251 11.7106 11.0438 11.9787C11.0438 11.9787 12.0165 11.3801 11.6237 10.1517C11.5613 9.9272 11.1123 9.21635 10.6759 9.03552Z" fill="#FAE400"/>
<path d="M10.6822 9.10396C10.5637 9.18503 10.1023 9.59658 10.4951 10.588C10.5076 10.6254 10.5762 10.7564 10.6448 10.8998C10.8443 11.2927 11.0251 11.6668 11.0875 11.8788C11.2995 11.7167 11.8856 11.1555 11.5676 10.1703C11.5115 9.97071 11.0937 9.29727 10.6822 9.10396ZM10.994 12.0783L10.9877 11.9786C10.9752 11.804 10.7071 11.2677 10.545 10.9497C10.4577 10.7689 10.4016 10.6691 10.3891 10.6254C9.90898 9.42822 10.6448 8.9855 10.651 8.9855L10.6759 8.97302L10.7009 8.9855C11.1561 9.17256 11.6175 9.90213 11.6861 10.1453C12.0852 11.3987 11.0937 12.0285 11.0813 12.0347L10.994 12.0783Z" fill="#AB1F25"/>
<path d="M8.885 7.44531C8.885 7.44531 8.64807 8.18111 9.21551 8.87325C9.45246 9.15385 10.5312 9.48434 10.9989 9.8273C10.9989 9.8273 11.5663 7.9691 8.885 7.44531Z" fill="#FAE400"/>
<path d="M8.93003 7.51389C8.89262 7.68849 8.80534 8.27463 9.26054 8.8296C9.37901 8.96678 9.75314 9.13514 10.1148 9.29727C10.4203 9.43445 10.7384 9.57786 10.9628 9.72128C11.0002 9.53421 11.0501 9.05408 10.7695 8.58641C10.4578 8.06262 9.84043 7.70096 8.93003 7.51389ZM11.0314 9.92082L10.9628 9.87094C10.7508 9.71505 10.4016 9.55916 10.0649 9.4095C9.6783 9.23491 9.30417 9.06654 9.16699 8.91065C8.58084 8.20603 8.8178 7.45777 8.82404 7.42659L8.84272 7.37671L8.89262 7.38294C9.86537 7.57624 10.5264 7.95661 10.8631 8.52405C11.2435 9.17255 11.0564 9.80858 11.0501 9.83976L11.0314 9.92082Z" fill="#AB1F25"/>
<path d="M7.39502 6.13586C7.39502 6.13586 9.72711 6.30423 9.40909 8.43056C9.40909 8.43056 8.88529 8.10007 8.45503 7.93171C8.26797 7.83818 7.3389 7.5451 7.39502 6.67212C7.40749 6.42894 7.39502 6.13586 7.39502 6.13586Z" fill="#FAE400"/>
<path d="M7.4571 6.19833C7.46334 6.30434 7.46334 6.49764 7.4571 6.67223C7.40722 7.41427 8.10561 7.70734 8.39868 7.83828C8.43609 7.85075 8.46104 7.86323 8.47975 7.8757C8.81023 8.01289 9.20306 8.23736 9.36519 8.33713C9.42754 7.80087 9.31528 7.34567 9.03468 6.99024C8.54831 6.37916 7.69405 6.22951 7.4571 6.19833ZM9.45249 8.53043L9.37767 8.48055C9.37143 8.48055 8.84763 8.15007 8.42985 7.98171C8.40491 7.96924 8.37996 7.95677 8.34878 7.9443C8.05571 7.81958 7.2825 7.4891 7.33238 6.666C7.34485 6.42905 7.33238 6.14221 7.33238 6.13597V6.06738L7.40097 6.07362C7.44461 6.07986 8.52962 6.16092 9.12823 6.91542C9.44624 7.3145 9.55848 7.82581 9.47118 8.44313L9.45249 8.53043Z" fill="#AB1F25"/>
<path d="M7.4391 4.10929C7.4391 4.10929 6.57239 4.76402 7.00264 5.87396C7.07747 6.07973 7.53265 6.68458 7.7696 6.79059C7.7696 6.79059 8.04398 6.02985 8.2061 5.47488C8.26846 5.2504 8.43058 4.37118 7.89432 4.02199C7.60125 3.85363 7.4391 4.10929 7.4391 4.10929Z" fill="#FAE400"/>
<path d="M7.70104 4.02204C7.5701 4.02204 7.48902 4.13428 7.48902 4.14052L7.47654 4.15299C7.44536 4.17794 6.65345 4.79525 7.05876 5.84283C7.12735 6.03613 7.51398 6.54121 7.73846 6.69087C7.80705 6.49133 8.0128 5.89271 8.14999 5.44375C8.16246 5.40634 8.41814 4.42112 7.86318 4.0657C7.80082 4.04075 7.75093 4.02204 7.70104 4.02204ZM7.8008 6.86546L7.7447 6.84052C7.4828 6.72205 7.02759 6.11096 6.94653 5.89271C6.52874 4.81396 7.30821 4.14052 7.39551 4.0657C7.42045 4.02828 7.52645 3.90356 7.70104 3.90356C7.76964 3.90356 7.84445 3.92227 7.91927 3.96592C8.5553 4.37124 8.27469 5.43751 8.26222 5.48116C8.1001 6.02989 7.82573 6.79688 7.82573 6.80311L7.8008 6.86546Z" fill="#AB1F25"/>
<path d="M7.25829 4.76415C7.25829 4.76415 6.58484 2.78747 8.998 2.25745C8.998 2.25745 9.53427 3.01819 8.65505 3.81011C8.41187 4.03459 7.40794 4.53967 7.25829 4.76415Z" fill="#FAE400"/>
<path d="M8.96696 2.31967C8.22492 2.49427 7.70736 2.82475 7.43923 3.30489C7.13993 3.83492 7.23346 4.41482 7.28334 4.64554C7.42676 4.51459 7.70738 4.34623 8.00045 4.1654C8.26234 4.00327 8.50551 3.85362 8.60528 3.76009C9.34732 3.09912 9.05425 2.47556 8.96696 2.31967ZM7.23973 4.89496L7.20228 4.78272C7.18981 4.75154 6.93417 3.97833 7.33948 3.24877C7.62632 2.72498 8.18129 2.37579 8.98568 2.19496L9.02309 2.18872L9.04802 2.2199C9.05426 2.22614 9.60922 3.03052 8.69883 3.85362C8.59283 3.95339 8.33717 4.10927 8.07527 4.2714C7.75726 4.4647 7.39561 4.68295 7.31455 4.80143L7.23973 4.89496Z" fill="#AB1F25"/>
<path d="M11.013 0.754523C11.013 0.754523 8.51251 0.698406 8.61851 2.93074C8.61851 2.93074 10.1836 2.45061 10.6077 1.98917C10.8134 1.74599 11.0442 1.29702 11.013 0.754523Z" fill="#FAE400"/>
<path d="M10.9551 0.816842C10.7182 0.823077 9.73297 0.885433 9.14059 1.50899C8.82257 1.84571 8.66669 2.3009 8.67916 2.84963C8.99094 2.74987 10.2131 2.33832 10.5685 1.94548C10.7618 1.721 10.9614 1.30322 10.9551 0.816842ZM8.56068 3.01177L8.55444 2.93693C8.52326 2.31337 8.69161 1.80829 9.04704 1.42792C9.72048 0.71707 10.8616 0.698364 10.9863 0.698364H11.0611V0.754482C11.0923 1.30321 10.8616 1.77088 10.6371 2.03278C10.2068 2.50044 8.68538 2.97435 8.62302 2.99306L8.56068 3.01177Z" fill="#AB1F25"/>
</svg>
