
<svg width="97" height="32" viewBox="0 0 97 32" fill="none" xmlns="http://www.w3.org/2000/svg">
<path d="M25.6979 4.7605H20.8164V26.7553H25.6979V4.7605Z" fill="#1E4695"/>
<path fill-rule="evenodd" clip-rule="evenodd" d="M55.0928 19.0257C54.5522 17.5976 49.5901 4.7605 49.5901 4.7605H44.2891L44.3778 4.99449L52.7772 26.7553H57.3762L65.8321 4.7605H60.5149C60.531 4.7605 55.9642 16.6616 55.0928 19.0257Z" fill="#1E4695"/>
<path fill-rule="evenodd" clip-rule="evenodd" d="M43.0544 6.92289C40.9969 5.35759 38.5038 4.7605 34.0903 4.7605H28.168V26.7553H33.7756C38.1326 26.7553 40.4241 26.3116 42.4089 25.069C45.2491 23.2778 46.7175 20.0181 46.7175 15.7256C46.7256 11.7882 45.4831 8.77865 43.0544 6.92289ZM39.1815 22.1563C38.0519 22.9389 36.3091 23.3504 33.8886 23.3504H33.0414V8.1735H33.7272C36.9223 8.1735 38.0358 8.42362 39.2703 9.30309C40.884 10.5053 41.828 12.8613 41.828 15.7579C41.828 18.6545 40.8598 21.0105 39.1815 22.1563Z" fill="#1E4695"/>
<path fill-rule="evenodd" clip-rule="evenodd" d="M13.7165 15.4513C16.476 14.6929 17.8476 13.0549 17.8315 10.586C17.8315 8.43974 16.6615 6.59205 14.6686 5.70451C12.9823 4.938 11.2153 4.68787 7.44726 4.68787H0V26.6827H8.32674C11.8446 26.6827 13.6197 26.4003 15.2253 25.5935C17.2828 24.5284 18.4205 22.713 18.4205 20.5345C18.4447 17.8638 16.831 16.1533 13.7165 15.4513ZM4.90567 8.14928H6.43063C8.93994 8.14928 10.6182 8.06053 11.5461 8.53658C12.4094 8.96421 12.9339 9.56934 12.9339 10.7473C12.9339 11.8285 12.4498 12.4417 11.5784 12.9016C10.8118 13.3131 8.88346 13.5068 6.6162 13.4987H4.88953V8.14928H4.90567ZM11.7881 22.9793C10.8925 23.3665 9.41599 23.3181 6.83405 23.3181H4.89761V17.6379H6.8744C8.94802 17.6379 10.6343 17.7186 11.651 18.0332C12.8935 18.4125 13.5309 19.1951 13.5309 20.4861C13.5309 21.9949 12.8128 22.5436 11.7881 22.9793Z" fill="#1E4695"/>
<path fill-rule="evenodd" clip-rule="evenodd" d="M81.42 0.992432L66.832 15.54L81.4119 30.0795H81.42L96.0079 15.5481L81.42 1.00048V0.992432Z" fill="white"/>
<path fill-rule="evenodd" clip-rule="evenodd" d="M78.9824 5.7771V17.9283H81.524H83.8639V5.7771H81.524H78.9824Z" fill="#EB252A"/>
<path fill-rule="evenodd" clip-rule="evenodd" d="M85.4141 15.5481H84.0989V8.18958H85.4141C86.7535 8.18958 87.7701 9.83556 87.7782 11.8688C87.8024 13.8537 86.7615 15.5481 85.4141 15.5481ZM76.3047 8.19765H78.7414V15.5562H76.3047V8.19765Z" fill="#1E4695"/>
<path fill-rule="evenodd" clip-rule="evenodd" d="M65.8398 15.54L65.9689 15.6691L80.8393 30.491L81.4202 31.072L82.0011 30.491L97.0005 15.54L81.4202 0L65.8398 15.54ZM81.4202 30.0795L66.8323 15.54L81.4202 0.992439V1.00049L96.0081 15.5481L81.4202 30.0795Z" fill="#EB252A"/>
<path fill-rule="evenodd" clip-rule="evenodd" d="M81.4207 22.5516L74.3849 15.54H67.4863L79.6376 27.659L79.7667 27.7881L81.4207 29.4341L95.3551 15.54H88.4565L81.4207 22.5516Z" fill="#EB252A"/>
</svg>
