<svg width="97" height="26" viewBox="0 0 97 26" fill="none" xmlns="http://www.w3.org/2000/svg">
<path d="M39.0376 0H13.0586V25.8698H39.0376V0Z" fill="white"/>
<path d="M51.9788 12.9349L39.0488 0V25.9889L51.9788 12.9349Z" fill="#DB1F26"/>
<path d="M25.9885 12.9349L39.0475 0H13.0586L25.9885 12.9349Z" fill="#DB1F26"/>
<path d="M0 12.9349L13.059 25.9889V0L0 12.9349Z" fill="#DB1F26"/>
<path d="M25.9885 12.9349L13.0586 25.989H39.0475L25.9885 12.9349Z" fill="#DB1F26"/>
<path d="M63.408 13.8035H58.7324V18.3699H56.3301V7.49487H58.7324V11.962H63.408V7.49487H65.8005V18.3699H63.408V13.8035Z" fill="black"/>
<path d="M71.4457 18.5983C69.0533 18.5983 67.2069 17.6105 67.0977 14.9997C69.4901 14.9997 69.4901 14.9997 69.4901 14.9997C69.4901 16.2058 70.1502 16.9653 71.4457 16.9653C72.4334 16.9653 73.5204 16.4143 73.5204 15.3273C73.5204 14.4587 72.761 14.2502 71.5648 13.9226C70.8054 13.6943 70.8054 13.6943 70.8054 13.6943C69.0582 13.1583 67.326 12.4981 67.326 10.5425C67.326 8.16 69.6092 7.29138 71.674 7.29138C73.7339 7.29138 75.5902 8.0508 75.6895 10.4432C73.2971 10.4432 73.2971 10.4432 73.2971 10.4432C73.1978 9.45548 72.6419 8.91941 71.4457 8.91941C70.6863 8.91941 69.7134 9.3562 69.7134 10.3241C69.7134 11.0835 70.4728 11.4111 71.9966 11.8479C72.9645 12.1755 72.9645 12.1755 72.9645 12.1755C74.8209 12.7264 76.0121 13.3717 76.0121 15.2181C76.0121 17.6105 73.6296 18.5983 71.4457 18.5983Z" fill="black"/>
<path d="M81.3517 16.7469C82.4387 16.7469 83.5158 16.5185 83.5158 15.2131C83.5158 13.7985 82.5479 13.5901 81.451 13.5901C79.5996 13.5901 79.5996 13.5901 79.5996 13.5901C79.5996 16.7419 79.5996 16.7419 79.5996 16.7419H81.3517V16.7469ZM81.1234 12.0712C82.2204 12.0712 83.1982 11.8429 83.1982 10.6467C83.1982 9.4505 82.2204 9.1229 81.2326 9.1229C79.5996 9.1229 79.5996 9.1229 79.5996 9.1229C79.5996 12.0663 79.5996 12.0663 79.5996 12.0663H81.1234V12.0712ZM77.3164 7.49487C81.1234 7.49487 81.1234 7.49487 81.1234 7.49487C81.7836 7.49487 82.5479 7.49487 83.3074 7.60407C84.5036 7.93166 85.5906 8.8102 85.5906 10.3241C85.5906 11.7387 84.712 12.3988 83.4066 12.7264C84.8312 12.9349 85.9182 13.8035 85.9182 15.3273C85.9182 17.8388 83.5158 18.3699 81.6793 18.3699C77.3214 18.3699 77.3214 18.3699 77.3214 18.3699V7.49487H77.3164Z" fill="black"/>
<path d="M92.1085 18.5983C88.5199 18.5983 86.9961 16.4143 86.9961 13.0441C86.9961 9.68379 88.7482 7.29138 92.2276 7.29138C94.3917 7.29138 96.4714 8.25927 96.5757 10.7708C94.0741 10.7708 94.0741 10.7708 94.0741 10.7708C93.9549 9.56467 93.1955 9.02365 92.2276 9.02365C90.0437 9.02365 89.3935 11.4161 89.3935 13.1632C89.3935 14.8955 90.0437 16.8511 92.1135 16.8511C93.2005 16.8511 93.9599 16.315 94.1882 15.2181C96.5806 15.2181 96.5806 15.2181 96.5806 15.2181C96.3473 17.7197 94.2825 18.5983 92.1085 18.5983Z" fill="black"/>
</svg>
