<svg width="110" height="20" viewBox="0 0 110 20" fill="none" xmlns="http://www.w3.org/2000/svg">
<path d="M27.894 0.00524902H25.7168V9.68475H30.4332V8.22102H27.894V0.00524902Z" fill="#0D4C88"/>
<path d="M33.0885 1.90442H30.9375V9.68473H33.0885V1.90442Z" fill="#0D4C88"/>
<path d="M38.0469 2.27162C37.6115 1.96208 37.0081 1.80994 36.2369 1.80994C35.3923 1.80994 34.747 1.9988 34.301 2.38179C33.8551 2.76477 33.6348 3.2999 33.6348 3.99767V7.70683C33.6348 8.38361 33.8971 8.90824 34.4217 9.28073C34.8834 9.60601 35.4919 9.76864 36.2369 9.76864C37.0449 9.76864 37.6692 9.61125 38.0994 9.30696C38.5926 8.9607 38.8391 8.44131 38.8391 7.7488V6.6051H36.6881V7.60715C36.6881 8.10555 36.536 8.35737 36.2369 8.35737C35.9379 8.35737 35.7858 8.10555 35.7858 7.60715V6.03325H38.8391V3.99767C38.8339 3.21596 38.5716 2.64411 38.0469 2.27162ZM36.6829 4.74264H35.7805V3.68288C35.7805 3.37335 35.9327 3.2212 36.2317 3.2212C36.5308 3.2212 36.6829 3.37335 36.6829 3.68288V4.74264Z" fill="#0D4C88"/>
<path d="M43.0721 1.80994C42.6419 1.80994 42.3008 1.89912 42.0438 2.07225C41.7867 2.25063 41.5979 2.51295 41.4772 2.86446V1.89913H39.3262V9.67944H41.4772V4.27572C41.4772 4.05538 41.5087 3.8875 41.5716 3.75634C41.6346 3.63043 41.7605 3.56746 41.9388 3.56746C42.133 3.56746 42.2589 3.64616 42.3218 3.7983C42.3586 3.88749 42.3743 4.05013 42.3743 4.27572V9.67944H44.5253V3.58845C44.5253 3.0166 44.3994 2.58115 44.1581 2.27162C43.9167 1.96208 43.5547 1.80994 43.0721 1.80994Z" fill="#0D4C88"/>
<path d="M47.6999 7.47079L47.1543 0.00524902H44.7305L46.2257 9.68475H49.2004L50.8215 0.00524902H48.7072L47.6999 7.47079Z" fill="#0D4C88"/>
<path d="M53.2662 1.90442H51.1152V9.68473H53.2662V1.90442Z" fill="#0D4C88"/>
<path d="M58.2553 2.27162C57.8199 1.96208 57.2165 1.80994 56.4401 1.80994C55.5954 1.80994 54.9501 1.9988 54.5042 2.38179C54.0582 2.76477 53.8379 3.2999 53.8379 3.99767V7.70683C53.8379 8.38361 54.1002 8.90824 54.6301 9.28073C55.0917 9.60601 55.6951 9.76864 56.4401 9.76864C57.248 9.76864 57.8723 9.61125 58.3077 9.30696C58.8009 8.9607 59.0422 8.44131 59.0422 7.7488V6.6051H56.8912V7.60715C56.8912 8.10555 56.7391 8.35737 56.4401 8.35737C56.141 8.35737 55.9889 8.10555 55.9889 7.60715V6.03325H59.0422V3.99767C59.0475 3.21596 58.7799 2.64411 58.2553 2.27162ZM56.8965 4.74264H55.9941V3.68288C55.9941 3.37335 56.1463 3.2212 56.4453 3.2212C56.7443 3.2212 56.8965 3.37335 56.8965 3.68288V4.74264Z" fill="#0D4C88"/>
<path d="M63.3018 3.3157V1.90445H62.3627V0.519409H60.2064V1.90445H59.4824V3.3157H60.2064V8.06365C60.2064 8.60927 60.3009 9.01324 60.495 9.2808C60.6839 9.54836 61.0354 9.68476 61.5443 9.68476H63.3018V8.2735H62.8768C62.6407 8.2735 62.4991 8.22103 62.4414 8.12135C62.3837 8.02167 62.3574 7.8328 62.3574 7.56524V3.3157H63.3018Z" fill="#0D4C88"/>
<path d="M69.1476 0.409214C68.6912 0.136404 67.9777 0 66.9914 0H64.2266V9.68474H66.4877V5.93884H67.3167C68.0564 5.93884 68.6597 5.77096 69.1424 5.4352C69.6775 5.06271 69.9451 4.53283 69.9451 3.84556V2.0828C69.9503 1.29585 69.688 0.734487 69.1476 0.409214ZM67.5685 4.19707C67.4583 4.43316 67.217 4.54857 66.8445 4.54857H66.4877V1.38503H66.8445C67.2904 1.38503 67.5527 1.58439 67.6367 1.98312C67.6682 2.15624 67.6891 2.48676 67.6891 2.97466C67.6944 3.60947 67.6524 4.01869 67.5685 4.19707Z" fill="#F48220"/>
<path d="M75.1481 2.37128C74.6969 1.99355 74.0568 1.80469 73.2174 1.80469C72.3728 1.80469 71.7275 1.99355 71.2815 2.37654C70.8356 2.75427 70.6152 3.29464 70.6152 3.9924V7.69632C70.6152 8.37834 70.8776 8.90297 71.4074 9.27022C71.8691 9.59549 72.4724 9.75812 73.2226 9.75812C73.9781 9.75812 74.5867 9.59549 75.0484 9.27022C75.5678 8.90822 75.8248 8.38359 75.8248 7.69632V3.9924C75.8196 3.28939 75.5993 2.74902 75.1481 2.37128ZM73.6686 7.81174C73.6686 7.97437 73.6319 8.10553 73.5637 8.20521C73.4955 8.30489 73.3801 8.35211 73.2174 8.35211C73.0548 8.35211 72.9394 8.29965 72.8712 8.19472C72.803 8.0898 72.7662 7.96389 72.7662 7.8065V3.76156C72.7662 3.59892 72.7977 3.46777 72.8712 3.36809C72.9394 3.26841 73.0548 3.21595 73.2174 3.21595C73.3801 3.21595 73.4955 3.26841 73.5637 3.37334C73.6319 3.47826 73.6686 3.60417 73.6686 3.76156V7.81174Z" fill="#F48220"/>
<path d="M80.9082 2.29786C80.4308 1.97259 79.775 1.80994 78.9356 1.80994C78.1749 1.80994 77.5716 1.97783 77.1361 2.3136C76.6534 2.68609 76.4121 3.23694 76.4121 3.97143C76.4121 4.69542 76.6744 5.26728 77.2043 5.68174C77.6975 5.97029 78.1906 6.25884 78.6785 6.53689C79.2032 6.87266 79.4707 7.28188 79.4707 7.76978C79.4707 7.95865 79.4392 8.10554 79.3658 8.20522C79.2976 8.3049 79.1822 8.35212 79.0196 8.35212C78.8569 8.35212 78.7415 8.29966 78.6733 8.18949C78.6051 8.07931 78.5736 7.94291 78.5736 7.76978V6.6051H76.4174V7.84323C76.4174 8.51476 76.6534 9.01316 77.1256 9.33844C77.5401 9.62698 78.1224 9.77389 78.8569 9.77389C80.6722 9.77389 81.5797 8.99218 81.5797 7.42352C81.5797 6.69953 81.3227 6.11194 80.8033 5.65551C80.6984 5.56632 80.2105 5.27252 79.3448 4.77411C78.8254 4.47507 78.5683 4.15505 78.5683 3.80879C78.5683 3.61992 78.5998 3.47303 78.668 3.37335C78.7362 3.27367 78.8517 3.2212 79.0143 3.2212C79.1769 3.2212 79.2923 3.27366 79.3605 3.38384C79.4288 3.49401 79.4655 3.63043 79.4655 3.80355V4.64821H81.6165V3.75109C81.6217 3.10579 81.3856 2.62313 80.9082 2.29786Z" fill="#F48220"/>
<path d="M85.1543 0.519409H83.0033V1.90445H82.2793V3.3157H83.0033V8.06365C83.0033 8.60927 83.0977 9.01324 83.2866 9.2808C83.4755 9.54836 83.827 9.68476 84.3359 9.68476H86.0934V8.2735H85.6737C85.4376 8.2735 85.2907 8.22103 85.233 8.12135C85.1805 8.02167 85.1543 7.8328 85.1543 7.56524V3.3157H86.0934V1.90445H85.1543V0.519409Z" fill="#F48220"/>
<path d="M97.3931 2.27162C96.9367 1.96733 96.3439 1.80994 95.6094 1.80994C94.8802 1.80994 94.2873 1.96733 93.8256 2.28736C93.28 2.65985 93.0072 3.20547 93.0072 3.92946V4.64821H95.1634V3.79305C95.1634 3.61992 95.1949 3.48353 95.2631 3.3786C95.3313 3.27368 95.4468 3.2212 95.6094 3.2212C95.7825 3.2212 95.8979 3.26843 95.9609 3.36286C96.0239 3.4573 96.0553 3.59894 96.0553 3.79305C96.0553 4.2285 95.5464 4.69543 94.5287 5.19383C93.5109 5.69223 93.002 6.3008 93.002 7.0248V8.179C93.002 8.68789 93.1384 9.07612 93.4059 9.35417C93.6735 9.63223 94.046 9.76864 94.5182 9.76864C94.9169 9.76864 95.2474 9.66895 95.5097 9.46959C95.7091 9.31745 95.8874 9.08137 96.0553 8.76659V9.67944H98.2116V3.93471C98.2116 3.19498 97.944 2.64411 97.3931 2.27162ZM96.0606 7.093C96.0606 7.47074 96.0344 7.73306 95.9714 7.86947C95.9137 8.01112 95.772 8.07932 95.5569 8.07932C95.4572 8.07932 95.3628 8.0426 95.2841 7.96915C95.2054 7.8957 95.1634 7.79602 95.1634 7.6701V6.82543C95.1634 6.55263 95.2579 6.33228 95.4468 6.15916C95.6461 6.02275 95.8507 5.88111 96.0606 5.73945V7.093Z" fill="#F48220"/>
<path d="M102.488 1.80994C102.063 1.80994 101.717 1.89912 101.46 2.07225C101.203 2.25063 101.014 2.51295 100.893 2.86446V1.89913H98.7422V9.67944H100.893V4.27572C100.893 4.05538 100.925 3.8875 100.988 3.75634C101.051 3.63043 101.176 3.56746 101.355 3.56746C101.549 3.56746 101.675 3.64616 101.738 3.7983C101.775 3.88749 101.796 4.05013 101.796 4.27572V9.67944H103.947V3.58845C103.947 3.0166 103.826 2.58115 103.579 2.27162C103.333 1.96208 102.971 1.80994 102.488 1.80994Z" fill="#F48220"/>
<path d="M108.605 5.388L109.844 1.90444H107.761L106.633 5.44572V0.00524902H104.477V9.68475H106.633L106.659 5.61359L107.761 9.68475H109.954L108.605 5.388Z" fill="#F48220"/>
<path d="M92.4256 2.39236C92.4256 0.309564 91.2452 0.0839602 89.6083 0.0367432H89.0155H86.791V9.68477H89.0155H89.6083C91.5599 9.63755 92.4256 9.36474 92.4256 6.92519C92.4256 5.70279 92.2892 4.61155 90.8359 4.61155V4.52237C92.1528 4.43318 92.4256 3.43638 92.4256 2.39236ZM89.603 8.27875C89.4194 8.32597 89.241 8.32597 89.0102 8.27875V5.33555H89.603C90.0595 5.42474 90.1959 5.69754 90.1959 6.69435C90.1959 7.51278 90.1959 8.10038 89.603 8.27875ZM89.603 3.93478H89.0102V1.44277C89.2358 1.4008 89.4194 1.4008 89.603 1.44277C90.1487 1.57918 90.1959 1.94117 90.1959 2.71238C90.1959 3.66197 89.9703 3.88757 89.603 3.93478Z" fill="#F48220"/>
<path d="M28.067 17.5227V12.8378H28.5654V18.5825H27.7208L26.4144 13.9867C26.3462 13.7506 26.2833 13.4621 26.236 13.1158C26.2308 13.1735 26.2308 13.2312 26.2308 13.2942V13.4411V13.7244V14.0025V18.5825H25.7324V12.8378H26.5666L27.8992 17.5385C27.9306 17.6382 27.9569 17.7378 27.9831 17.8375C28.0093 17.9372 28.0408 18.0474 28.0618 18.1628C28.067 18.1208 28.067 18.0789 28.067 18.0316V17.9267V17.7273V17.5227Z" fill="#0D4C88"/>
<path d="M32.2813 15.5554V18.5773H31.8826V17.6068C31.8091 17.9215 31.678 18.1629 31.4891 18.3308C31.3002 18.4986 31.0694 18.5826 30.8018 18.5826C30.3769 18.5826 30.0411 18.4252 29.7998 18.1051C29.6004 17.8376 29.464 17.4599 29.3906 16.9667C29.3381 16.6152 29.3066 16.164 29.3066 15.6027C29.3066 15.0728 29.3381 14.6321 29.4063 14.2701C29.4955 13.7927 29.6424 13.4254 29.847 13.1683C30.0936 12.8641 30.4241 12.7119 30.8491 12.7119C31.2793 12.7119 31.6203 12.8693 31.8669 13.1841C32.1134 13.4989 32.2393 13.9133 32.2393 14.4327V14.4642H31.7147C31.7147 14.1074 31.6465 13.8241 31.5153 13.6195C31.3684 13.3939 31.1533 13.2838 30.8648 13.2838H30.8281C30.5238 13.2838 30.2929 13.4149 30.1355 13.672C30.0044 13.8819 29.9152 14.1861 29.8732 14.5901C29.847 14.8524 29.8313 15.1934 29.8313 15.6289V15.8387C29.8313 16.4578 29.8732 16.9247 29.9624 17.25C30.1041 17.7694 30.3559 18.0317 30.7284 18.0317H30.8018C31.1953 18.0317 31.4681 17.8218 31.615 17.4021C31.7199 17.1136 31.7672 16.6886 31.7672 16.1273H30.7127V15.5607H32.2813V15.5554Z" fill="#0D4C88"/>
<path d="M32.7734 18.5825L34.1007 12.8378H34.7828L36.0891 18.5825H35.5225L35.1605 16.9299H33.681L33.3453 18.5825H32.7734ZM35.0346 16.3423L34.4365 13.2889L33.8017 16.3423H35.0346Z" fill="#0D4C88"/>
<path d="M34.8461 12.4075L34.4369 11.6888L34.0225 12.4075H33.5293L34.1379 11.3215H34.7202L35.3393 12.4075H34.8461Z" fill="#0D4C88"/>
<path d="M38.9753 17.5227V12.8378H39.4737V18.5825H38.629L37.3226 13.9867C37.2544 13.7506 37.1967 13.4621 37.1443 13.1158C37.139 13.1735 37.139 13.2312 37.139 13.2942V13.4411V13.7244V14.0025V18.5825H36.6406V12.8378H37.4748L38.8074 17.5385C38.8388 17.6382 38.8651 17.7378 38.8965 17.8375C38.9228 17.9372 38.9543 18.0474 38.9805 18.1628C38.9857 18.1208 38.9858 18.0789 38.9858 18.0316V17.9267V17.7273V17.5227H38.9753Z" fill="#0D4C88"/>
<path d="M42.8683 18.5825H42.3594V12.8378H42.8683V15.2248H44.6573V12.8378H45.1662V18.5825H44.6573V15.8072H42.8683V18.5825Z" fill="#0D4C88"/>
<path d="M45.6641 18.5825L46.9914 12.8378H47.6734L48.9798 18.5825H48.4131L48.0511 16.9299H46.5717L46.2359 18.5825H45.6641ZM47.9252 16.3423L47.3271 13.2889L46.6923 16.3423H47.9252Z" fill="#0D4C88"/>
<path d="M46.3828 11.3215H47.0543L47.6157 12.4075H47.1907L46.3828 11.3215Z" fill="#0D4C88"/>
<path d="M51.8659 17.5227V12.8378H52.3643V18.5825H51.5196L50.2133 13.9867C50.1451 13.7506 50.0874 13.4621 50.0349 13.1158C50.0297 13.1735 50.0297 13.2312 50.0297 13.2942V13.4411V13.7244V14.0025V18.5825H49.5312V12.8378H50.3654L51.698 17.5385C51.7295 17.6382 51.7557 17.7378 51.7872 17.8375C51.8134 17.9372 51.8449 18.0474 51.8659 18.1628C51.8711 18.1208 51.8711 18.0789 51.8711 18.0316V17.9267V17.7273V17.5227H51.8659Z" fill="#0D4C88"/>
<path d="M56.0788 15.5554V18.5773H55.6801V17.6068C55.6066 17.9215 55.4755 18.1629 55.2866 18.3308C55.0977 18.4986 54.8721 18.5826 54.5993 18.5826C54.1691 18.5826 53.8386 18.4252 53.5973 18.1051C53.3979 17.8376 53.2615 17.4599 53.1881 16.9667C53.1356 16.6152 53.1094 16.164 53.1094 15.6027C53.1094 15.0728 53.1409 14.6321 53.2091 14.2701C53.2982 13.7927 53.4451 13.4254 53.6497 13.1683C53.8963 12.8641 54.2268 12.7119 54.6518 12.7119C55.082 12.7119 55.423 12.8693 55.6696 13.1841C55.9214 13.4989 56.0421 13.9133 56.0421 14.4327V14.4642H55.5174C55.5174 14.1074 55.4492 13.8241 55.3181 13.6195C55.1712 13.3939 54.9561 13.2838 54.6675 13.2838H54.6308C54.3265 13.2838 54.0957 13.4149 53.9331 13.672C53.8019 13.8819 53.718 14.1861 53.6707 14.5901C53.6393 14.8524 53.6288 15.1934 53.6288 15.6289V15.8387C53.6288 16.4578 53.6707 16.9247 53.7599 17.25C53.9016 17.7694 54.1534 18.0317 54.5259 18.0317H54.5993C54.9928 18.0317 55.2656 17.8218 55.4125 17.4021C55.5175 17.1136 55.5647 16.6886 55.5647 16.1273H54.5101V15.5607H56.0788V15.5554Z" fill="#0D4C88"/>
<path d="M60.2075 18.5825H58.9746V12.8378H60.3544C60.7374 12.8378 61.0312 12.9689 61.2253 13.2365C61.4089 13.4831 61.4981 13.8241 61.4981 14.2648V14.3435C61.4981 14.6478 61.4456 14.8943 61.346 15.0832C61.241 15.2721 61.0626 15.4137 60.8056 15.5239C61.0941 15.5764 61.3092 15.7232 61.4404 15.9751C61.5558 16.1954 61.6135 16.4997 61.6135 16.8879C61.6135 17.4388 61.4981 17.8585 61.2725 18.1523C61.0417 18.4461 60.7217 18.5878 60.2967 18.5878H60.2075V18.5825ZM59.4992 13.4044V15.2878H59.9609H60.1498C60.4121 15.2878 60.6062 15.2249 60.7269 15.0989C60.8685 14.952 60.942 14.7002 60.942 14.3487V14.3015C60.942 13.9605 60.879 13.7296 60.7479 13.5985C60.622 13.4673 60.3754 13.4044 60.0239 13.4044H59.4992ZM59.4992 18.0002H60.3072H60.3334C60.5905 18.0002 60.7793 17.911 60.9 17.7326C61.0207 17.5542 61.0784 17.2867 61.0784 16.9194C61.0784 16.4787 60.9787 16.1797 60.7846 16.0223C60.6587 15.9226 60.4436 15.8702 60.1445 15.8702H59.4992V18.0002Z" fill="#0D4C88"/>
<path d="M64.9499 13.0738C64.9761 13.0633 65.0181 13.0371 65.0758 12.9899C65.0915 12.9741 65.1125 12.9532 65.144 12.9217C65.1702 12.8902 65.1912 12.8535 65.2069 12.8115C65.2174 12.7695 65.2279 12.7328 65.2279 12.6961V12.5177H64.8817V12.0508H65.4798V12.7118C65.4798 12.8535 65.4168 12.9951 65.2909 13.1473C65.2436 13.1997 65.1912 13.2417 65.123 13.2837C65.102 13.2942 65.0443 13.3256 64.9551 13.3729V17.0768C64.9551 17.5699 64.8292 17.9372 64.5826 18.1942C64.3308 18.4461 63.9898 18.5772 63.5543 18.5772C63.1189 18.5772 62.7831 18.4566 62.5418 18.21C62.29 17.9477 62.1641 17.5699 62.1641 17.0768V12.8167H62.6729V16.8512C62.6729 17.1765 62.7149 17.423 62.8041 17.5961C62.9458 17.8742 63.1976 18.0106 63.5543 18.0106C63.8953 18.0106 64.1367 17.89 64.2836 17.6434C64.3885 17.465 64.4357 17.2342 64.4357 16.9456V12.8167H64.9603V13.0738H64.9499Z" fill="#0D4C88"/>
<path d="M65.5684 17.0873V12.8378H66.0772V16.8617C66.0772 17.187 66.1192 17.4336 66.2084 17.6014C66.35 17.8742 66.6019 18.0159 66.9586 18.0159C67.2996 18.0159 67.541 17.8952 67.6826 17.6487C67.7875 17.4755 67.84 17.2447 67.84 16.9509V12.8378H68.3647V17.0873C68.3647 17.5752 68.2387 17.9477 67.9869 18.2048C67.7351 18.4566 67.3941 18.5878 66.9586 18.5878C66.5232 18.5878 66.1874 18.4671 65.9461 18.2205C65.6943 17.9529 65.5684 17.5804 65.5684 17.0873Z" fill="#0D4C88"/>
<path d="M70.6047 15.335V12.8378H71.8848C72.4987 12.8378 72.9341 13.1053 73.1964 13.6405C73.401 14.0549 73.5007 14.6478 73.5007 15.4242V15.7023C73.5007 16.5469 73.4063 17.2027 73.2174 17.6696C72.9708 18.2782 72.5616 18.5825 71.9898 18.5825H70.61V15.9488H70.3477V15.335H70.6047ZM71.1294 13.4044V15.335H71.9373V15.9488H71.1294V18.0002H71.9478C72.2993 18.0002 72.5564 17.8375 72.7243 17.5175C72.8869 17.1975 72.9708 16.6728 72.9708 15.9488V15.5973C72.9708 14.8681 72.9079 14.3382 72.7767 14.0129C72.6193 13.609 72.3465 13.4096 71.9478 13.4096H71.1294V13.4044Z" fill="#0D4C88"/>
<path d="M74.955 12.8378H74.4355V18.5825H74.955V12.8378Z" fill="#0D4C88"/>
<path d="M76.4133 18.0002H78.4856V18.5825H75.8887V12.8378H78.4751V13.4044H76.4133V15.3035H78.3597V15.8859H76.4133V18.0002Z" fill="#0D4C88"/>
<path d="M77.5981 12.4075L77.1889 11.6888L76.7797 12.4075H76.2812L76.8898 11.3215H77.4722L78.0912 12.4075H77.5981Z" fill="#0D4C88"/>
<path d="M77.4418 18.976H76.9434V19.7419H77.4418V18.976Z" fill="#0D4C88"/>
<path d="M81.7799 17.5227V12.8378H82.2783V18.5825H81.4337L80.1273 13.9867C80.0591 13.7506 79.9962 13.4621 79.9489 13.1158C79.9437 13.1735 79.9437 13.2312 79.9437 13.2942V13.4411V13.7244V14.0025V18.5825H79.4453V12.8378H80.2795L81.6068 17.5385C81.6383 17.6382 81.6645 17.7378 81.696 17.8375C81.7222 17.9372 81.7485 18.0474 81.7747 18.1628C81.7799 18.1208 81.7799 18.0789 81.7799 18.0316V17.9267V17.7273V17.5227Z" fill="#0D4C88"/>
<path d="M87.5936 18.5825H85.1855V12.8378H85.6944V18.0002H87.5936V18.5825Z" fill="#0D4C88"/>
<path d="M88.7883 12.8378H88.2637V18.5825H88.7883V12.8378Z" fill="#0D4C88"/>
<path d="M90.242 18.0002H92.3196V18.5825H89.7227V12.8378H92.3038V13.4044H90.242V15.3035H92.1937V15.8859H90.242V18.0002Z" fill="#0D4C88"/>
<path d="M91.4334 12.4075L91.0242 11.6888L90.6097 12.4075H90.1113L90.7199 11.3215H91.3075L91.9266 12.4075H91.4334Z" fill="#0D4C88"/>
<path d="M95.61 17.5227V12.8378H96.1084V18.5825H95.2637L93.9574 13.9867C93.8892 13.7506 93.8262 13.4621 93.779 13.1158C93.7738 13.1735 93.7738 13.2312 93.7738 13.2942V13.4411V13.7244V14.0025V18.5825H93.2754V12.8378H94.1095L95.4369 17.5385C95.4684 17.6382 95.4946 17.7378 95.5261 17.8375C95.5523 17.9372 95.5785 18.0474 95.6048 18.1628C95.61 18.1208 95.61 18.0789 95.61 18.0316V17.9267V17.7273V17.5227Z" fill="#0D4C88"/>
<path d="M101.317 12.8378H101.889L100.546 18.5825H99.9009L98.5684 12.8378H99.1402L100.21 18.1261L101.317 12.8378Z" fill="#0D4C88"/>
<path d="M102.98 12.8378H102.455V18.5825H102.98V12.8378Z" fill="#0D4C88"/>
<path d="M104.433 18.0002H106.511V18.5825H103.914V12.8378H106.501V13.4044H104.433V15.3035H106.385V15.8859H104.433V18.0002Z" fill="#0D4C88"/>
<path d="M105.623 12.4075L105.214 11.6888L104.805 12.4075H104.307L104.915 11.3215H105.498L106.122 12.4075H105.623Z" fill="#0D4C88"/>
<path d="M105.461 18.976H104.963V19.7419H105.461V18.976Z" fill="#0D4C88"/>
<path d="M107.082 13.4044V12.8378H109.999V13.4044H108.798V18.5825H108.289V13.4044H107.082Z" fill="#0D4C88"/>
<path d="M22.5173 7.31865H18.5721C18.5721 3.27897 15.2983 0.00524902 11.2587 0.00524902C7.21897 0.00524902 3.94526 3.27897 3.94526 7.31865H0C0 13.5356 5.04174 18.5773 11.2587 18.5773C14.333 18.5773 17.1188 17.3444 19.1491 15.3456H19.1544V15.3403C21.2267 13.3047 22.5173 10.4612 22.5173 7.31865Z" fill="white"/>
<path fill-rule="evenodd" clip-rule="evenodd" d="M11.2587 14.632C7.21897 14.632 3.94526 11.3583 3.94526 7.3186H0C0 13.5355 5.04174 18.5773 11.2587 18.5773C17.4756 18.5773 22.5173 13.5355 22.5173 7.3186H18.5721C18.5721 11.3583 15.2983 14.632 11.2587 14.632Z" fill="#EE7727"/>
<path fill-rule="evenodd" clip-rule="evenodd" d="M14.8218 7.3186C14.8218 7.49698 14.6959 7.60191 14.6959 7.60191C14.6434 7.65962 13.8302 8.15802 12.9646 9.02366C12.0989 9.88931 11.5953 10.7025 11.5428 10.755C11.5428 10.755 11.4326 10.8809 11.2595 10.8809C11.0811 10.8809 10.9762 10.755 10.9762 10.755C10.9238 10.7025 10.4201 9.88931 9.55446 9.02366C8.68881 8.15802 7.87564 7.65962 7.82317 7.60191C7.82317 7.60191 7.69727 7.49698 7.69727 7.3186H14.8218Z" fill="#EE7727"/>
<path fill-rule="evenodd" clip-rule="evenodd" d="M11.2587 0.00524902C7.21903 0.00524902 3.94531 3.27897 3.94531 7.31865H7.69646C7.69646 7.14027 7.82236 7.03536 7.82236 7.03536C7.87483 6.97765 8.688 6.47923 9.55365 5.61359C10.4193 4.74794 10.923 3.93476 10.9754 3.8823C10.9754 3.8823 11.0803 3.75639 11.2587 3.75639C11.4371 3.75639 11.542 3.8823 11.542 3.8823C11.5945 3.93476 12.0981 4.74794 12.9638 5.61359C13.8294 6.47923 14.6426 6.97765 14.6951 7.03536C14.6951 7.03536 14.821 7.14027 14.821 7.31865H18.5721C18.5721 3.27897 15.2984 0.00524902 11.2587 0.00524902Z" fill="#EE7727"/>
</svg>
