<svg width="67" height="32" viewBox="0 0 67 32" fill="none" xmlns="http://www.w3.org/2000/svg">
<path d="M15.9981 12.7043C15.3668 12.7043 14.4082 12.0555 14.4082 11.3891L14.7881 6.01139C14.7881 5.34502 15.3025 4.80139 15.9397 4.80139C16.5768 4.80139 17.0912 5.34502 17.0912 6.01139L17.5004 11.43C17.4946 12.1023 16.6353 12.7043 15.9981 12.7043Z" fill="#EA304C"/>
<path d="M12.5786 9.01016C12.3798 9.61223 11.468 10.3195 10.8308 10.1091L5.84471 8.06905C5.20756 7.85862 4.85684 7.20395 5.05558 6.59603C5.25432 5.99395 5.9324 5.67246 6.5637 5.88289L11.8362 7.19225C12.4734 7.39684 12.7773 8.40224 12.5786 9.01016Z" fill="#EA304C"/>
<path d="M8.00053 11.1788C8.51492 11.5529 8.91239 12.6343 8.52075 13.1779L5.06616 17.3164C4.67452 17.8601 3.93799 17.9945 3.42359 17.6263C2.9092 17.2521 2.80984 16.5156 3.19563 15.972L6.03647 11.3425C6.43396 10.793 7.48613 10.8106 8.00053 11.1788Z" fill="#EA304C"/>
<path d="M8.61502 16.1882C9.12941 15.8141 10.281 15.7732 10.6784 16.3168L13.5368 20.8821C13.9285 21.4198 13.8349 22.1622 13.3206 22.5363C12.8062 22.9104 12.0696 22.776 11.678 22.2323L8.15908 18.0938C7.75575 17.5619 8.10063 16.5623 8.61502 16.1882Z" fill="#EA304C"/>
<path d="M13.5361 17.0943C13.3491 16.4864 13.6823 15.3874 14.3194 15.1887L19.5627 13.9553C20.1999 13.7566 20.8721 14.0898 21.0591 14.6977C21.2462 15.3056 20.8838 15.9544 20.2408 16.1532L15.1904 18.1523C14.5532 18.3452 13.7232 17.6964 13.5361 17.0943Z" fill="#EA304C"/>
<path d="M16.0392 26.178C15.4079 26.1838 14.4551 25.5876 14.4551 24.968L14.7941 19.9877C14.7883 19.3681 15.2968 18.8595 15.9281 18.8595C16.5536 18.8537 17.0738 19.3564 17.0738 19.976L17.5122 24.9913C17.518 25.6051 16.6705 26.1721 16.0392 26.178Z" fill="#EA304C"/>
<path d="M25.4616 13.1837C25.2746 13.7858 24.4211 14.5106 23.8249 14.3236L19.1837 12.4823C18.5933 12.3011 18.266 11.6581 18.453 11.0619C18.6401 10.4598 19.2714 10.1208 19.8676 10.3078L24.7777 11.4184C25.3681 11.5996 25.6487 12.5817 25.4616 13.1837Z" fill="#EA304C"/>
<path d="M16.167 0.329732C16.658 0.721372 17.0262 1.77938 16.6404 2.26455L13.2443 5.92374C12.8585 6.40891 12.1454 6.4849 11.6543 6.09326C11.1633 5.70162 11.0756 4.98849 11.4614 4.50332L14.2731 0.329732C14.6589 -0.155434 15.676 -0.0619077 16.167 0.329732Z" fill="#EA304C"/>
<path d="M0.635896 5.32749C1.1386 4.94754 2.25506 4.85986 2.62917 5.35672L5.31804 9.56538C5.69214 10.0622 5.58693 10.7695 5.07838 11.1495C4.57568 11.5294 3.86255 11.4301 3.49429 10.939L0.156572 7.16879C-0.217532 6.66609 0.133194 5.70744 0.635896 5.32749Z" fill="#EA304C"/>
<path d="M0.665165 21.3789C0.466423 20.7827 0.729479 19.6954 1.31986 19.4967L6.15982 18.2633C6.74436 18.0646 7.38735 18.3861 7.5861 18.9882C7.78484 19.5844 7.47503 20.2274 6.88464 20.4261L2.25511 22.4077C1.67057 22.6064 0.869753 21.9751 0.665165 21.3789Z" fill="#EA304C"/>
<path d="M29.4707 21.1801C29.4707 21.1801 30.5696 5.60807 30.8151 4.8774H34.6029L38.5135 13.3064L42.6637 4.7605H46.3287C46.3287 4.7605 47.6732 20.2683 47.6089 21.186H43.8211L43.3944 11.4768L40.0333 19.2336H37.4672L33.8664 11.4184L33.2585 21.3087L29.4707 21.1801Z" fill="#394A9F"/>
<path d="M63.3628 15.0133C63.3628 15.0133 62.5678 12.8739 61.2877 12.2659C61.2877 12.2659 63.1173 10.9858 62.6321 8.23849C62.147 5.49117 58.7216 4.7605 56.588 4.7605C54.4486 4.7605 50.1172 4.88325 50.1172 4.88325V21.186C50.1172 21.186 56.892 21.677 58.2364 21.3672C59.575 21.0574 63.9707 20.9346 63.3628 15.0133ZM53.9576 7.84685C53.9576 7.84685 58.5579 7.15709 58.7216 9.10944C58.8852 11.0618 57.0556 11.0618 57.0556 11.0618H53.9634V7.84685H53.9576ZM57.4356 17.8658H53.9985V14.2943C53.9985 14.2943 59.1074 13.5227 59.2886 15.6972C59.4698 17.8658 57.4356 17.8658 57.4356 17.8658Z" fill="#394A9F"/>
<path d="M24.6187 30.4919L23.6309 27.7212H24.2388L24.9402 29.7729L25.6183 27.7212H26.2087L25.2149 30.4919H24.6187Z" fill="#394A9F"/>
<path d="M28.8927 27.7211H29.4246V28.1011C29.4246 28.2589 29.4129 28.3817 29.3837 28.4694C29.3603 28.557 29.3077 28.6389 29.2375 28.7032C29.1206 28.8142 28.9453 28.8902 28.6998 28.9253V29.1766C28.6998 29.504 28.6822 29.7378 28.653 29.8839C28.6238 30.0184 28.5712 30.1353 28.4893 30.2346C28.3081 30.4392 28.0217 30.5445 27.6301 30.5445C27.1917 30.5445 26.8819 30.4334 26.7007 30.2171C26.6188 30.1177 26.5721 30.0184 26.5428 29.9073C26.5078 29.7495 26.4902 29.5157 26.4902 29.2059V27.727H27.0514V29.2293C27.0514 29.4689 27.0572 29.6267 27.0748 29.691C27.1274 29.9424 27.3086 30.0651 27.6125 30.0651C27.9106 30.0651 28.0802 29.9541 28.1152 29.7261C28.1328 29.6326 28.1386 29.4747 28.1386 29.2585V27.727H28.6998V28.7149C28.881 28.6798 29.0096 28.6155 29.0797 28.5161C29.1206 28.4577 29.144 28.37 29.1499 28.2589H28.8927V27.7211ZM27.1917 27.5692H26.9462C26.9462 27.5399 26.9462 27.5166 26.9462 27.499C26.9462 27.3646 26.9754 27.2652 27.0397 27.1951C27.104 27.1249 27.1858 27.0898 27.2852 27.0898C27.332 27.0898 27.3729 27.0957 27.4079 27.1074C27.443 27.1191 27.5132 27.1425 27.6125 27.1892C27.7119 27.236 27.7879 27.2594 27.8463 27.2594C27.8873 27.2594 27.9223 27.2477 27.9457 27.2243C27.9691 27.2009 27.9925 27.1541 27.9983 27.0957H28.2438C28.2438 27.2652 28.2088 27.388 28.1503 27.4581C28.086 27.5341 28.01 27.5692 27.9107 27.5692C27.8697 27.5692 27.823 27.5633 27.7821 27.5575C27.7528 27.5516 27.6827 27.5224 27.5658 27.4815C27.4489 27.4347 27.367 27.4172 27.3144 27.4172C27.2735 27.4172 27.2443 27.4289 27.2209 27.4523C27.2034 27.4639 27.1917 27.5049 27.1917 27.5692Z" fill="#394A9F"/>
<path d="M29.7109 30.4919V27.7212H30.2546L31.3886 29.5742V27.7212H31.9088V30.4919H31.3477L30.2312 28.6857V30.4919H29.7109Z" fill="#394A9F"/>
<path d="M33.7896 29.469V29.0013H34.9938V30.1061C34.8769 30.2172 34.7074 30.3224 34.4852 30.4042C34.2631 30.4919 34.041 30.5328 33.8072 30.5328C33.5149 30.5328 33.2636 30.4744 33.0473 30.3516C32.831 30.2289 32.6732 30.0535 32.5621 29.8314C32.451 29.6034 32.3984 29.3579 32.3984 29.0949C32.3984 28.8084 32.4569 28.5512 32.5796 28.3233C32.7024 28.1011 32.8778 27.9258 33.1116 27.8089C33.2869 27.7153 33.5091 27.6686 33.7721 27.6686C34.117 27.6686 34.3859 27.7387 34.5788 27.8849C34.7717 28.031 34.8944 28.2297 34.9529 28.4811L34.3976 28.5863C34.3566 28.4519 34.2865 28.3408 34.1754 28.2648C34.0702 28.1888 33.9358 28.1479 33.7721 28.1479C33.5266 28.1479 33.3337 28.2239 33.1876 28.3817C33.0414 28.5337 32.9713 28.7675 32.9713 29.0715C32.9713 29.3988 33.0473 29.6443 33.1934 29.8138C33.3396 29.9775 33.5324 30.0593 33.7663 30.0593C33.8832 30.0593 34.0001 30.036 34.117 29.9892C34.2339 29.9424 34.3391 29.8898 34.4209 29.8197V29.469H33.7896Z" fill="#394A9F"/>
<path d="M37.2926 30.4919L36.3047 27.7212H36.9126L37.6141 29.7729L38.2921 27.7212H38.8883L37.8946 30.4919H37.2926Z" fill="#394A9F"/>
<path d="M41.6633 30.4919H41.0553L40.8157 29.8606H39.7051L39.4771 30.4919H38.8809L39.9623 27.7212H40.5526L41.6633 30.4919ZM40.5702 27.5633H40.237L39.7168 26.9963H40.313L40.5702 27.5633ZM40.6345 29.3929L40.2545 28.3642L39.8804 29.3929H40.6345Z" fill="#394A9F"/>
<path d="M41.9688 30.4919V27.7212H42.5124L43.6464 29.5742V27.7212H44.1666V30.4919H43.6055L42.489 28.6857V30.4919H41.9688Z" fill="#394A9F"/>
<path d="M46.0475 29.469V29.0013H47.2516V30.1061C47.1347 30.2172 46.9652 30.3224 46.7431 30.4042C46.5209 30.4919 46.293 30.5328 46.065 30.5328C45.7727 30.5328 45.5214 30.4744 45.3051 30.3516C45.0888 30.2289 44.9251 30.0535 44.8199 29.8314C44.7147 29.6034 44.6562 29.3579 44.6562 29.0949C44.6562 28.8084 44.7147 28.5512 44.8375 28.3233C44.9602 28.1011 45.1356 27.9258 45.3694 27.8089C45.5447 27.7153 45.7669 27.6686 46.0299 27.6686C46.3748 27.6686 46.6437 27.7387 46.8366 27.8849C47.0295 28.031 47.1522 28.2297 47.2107 28.4811L46.6554 28.5863C46.6145 28.4519 46.5443 28.3408 46.4332 28.2648C46.328 28.1888 46.1936 28.1479 46.0299 28.1479C45.7844 28.1479 45.5915 28.2239 45.4454 28.3817C45.2992 28.5337 45.2291 28.7675 45.2291 29.0715C45.2291 29.3988 45.3051 29.6443 45.4512 29.8138C45.5974 29.9775 45.7902 30.0593 46.0241 30.0593C46.141 30.0593 46.2579 30.036 46.3748 29.9892C46.4917 29.9424 46.5969 29.8898 46.6787 29.8197V29.469H46.0475Z" fill="#394A9F"/>
<path d="M48.7773 29.7496V29.2177H49.8178V29.7496H48.7773Z" fill="#394A9F"/>
<path d="M51.8281 30.4919V28.1888H51.0039V27.7212H53.2076V28.1888H52.3893V30.4919H51.8281Z" fill="#394A9F"/>
<path d="M53.5527 30.4919V27.7212H54.1139V30.4919H53.5527Z" fill="#394A9F"/>
<path d="M54.6523 30.4919V27.7212H55.196L56.33 29.5742V27.7212H56.8502V30.4919H56.289L55.1726 28.6857V30.4919H54.6523Z" fill="#394A9F"/>
<path d="M60.2865 29.469L60.8302 29.6385C60.7483 29.9424 60.608 30.1646 60.4151 30.3107C60.2222 30.4568 59.9767 30.5328 59.6786 30.5328C59.3104 30.5328 59.0064 30.4101 58.7726 30.1587C58.5329 29.9074 58.416 29.5625 58.416 29.1299C58.416 28.6681 58.5329 28.3116 58.7726 28.0544C59.0122 27.7972 59.322 27.6744 59.7078 27.6744C60.0469 27.6744 60.3216 27.7738 60.532 27.9725C60.6606 28.0895 60.7542 28.259 60.8185 28.4811L60.2632 28.6155C60.2339 28.4753 60.1638 28.3583 60.0586 28.2765C59.9533 28.1947 59.8248 28.1538 59.6786 28.1538C59.474 28.1538 59.3045 28.2297 59.1818 28.3759C59.0532 28.522 58.9889 28.7617 58.9889 29.089C58.9889 29.4397 59.0532 29.6911 59.1759 29.8372C59.3045 29.9834 59.4682 30.0593 59.6669 30.0593C59.813 30.0593 59.9416 30.0126 60.0527 29.9191C60.1638 29.8255 60.2398 29.6735 60.2865 29.469Z" fill="#394A9F"/>
<path d="M63.8058 30.4919H63.1979L62.9583 29.8606H61.8476L61.6197 30.4919H61.0234L62.1048 27.7212H62.6952L63.8058 30.4919ZM62.3913 27.4874L62.1867 27.6277H61.8126L62.2217 27.3822H62.5549L62.97 27.6277H62.5958L62.3913 27.4874ZM62.777 29.393L62.3971 28.3642L62.023 29.393H62.777ZM62.1399 31.246V30.7141H62.6718V31.246H62.1399Z" fill="#394A9F"/>
<path d="M64.8296 30.4919V29.3287L63.8125 27.7271H64.4672L65.1219 28.826L65.759 27.7271H66.402L65.3849 29.3345V30.4978H64.8296V30.4919Z" fill="#394A9F"/>
</svg>
