<svg width="115" height="19" viewBox="0 0 123 19" fill="none" xmlns="http://www.w3.org/2000/svg">
<path fill-rule="evenodd" clip-rule="evenodd" d="M48.4772 15.1162C48.1914 15.6569 47.7743 15.9659 47.249 16.074C47.1177 16.1126 46.9632 16.1126 46.8087 16.1126C45.9282 16.1126 45.4879 15.5951 45.4879 14.5523C45.6192 13.6177 45.8432 12.8298 46.129 12.1887C46.3916 11.7098 46.7701 11.4163 47.249 11.2927C47.4267 11.2541 47.5966 11.2309 47.7974 11.2309C48.6085 11.2309 49.0256 11.7948 49.0256 12.9148C49.0256 13.7258 48.8325 14.4751 48.4772 15.1162ZM51.536 9.6938C50.5627 9.06814 49.4504 8.78235 48.1296 8.78235C47.8438 8.78235 47.5348 8.78235 47.249 8.82097C46.0209 8.94456 44.9163 9.33849 43.9508 10.0105C42.7381 10.8447 41.9734 12.0883 41.6412 13.7722L41.5949 14.2511L41.5254 14.815C41.5254 16.0586 41.9888 17.0164 42.908 17.6652C43.8272 18.3063 45.0013 18.6384 46.3994 18.6384C46.7083 18.6384 46.9941 18.6153 47.2336 18.5998C47.4112 18.5844 47.5657 18.5612 47.6893 18.5226C48.0678 18.4608 48.369 18.3758 48.593 18.314C48.817 18.2522 49.0333 18.1673 49.2496 18.0823C49.7594 17.8583 50.1765 17.6497 50.5241 17.418C50.918 17.1477 51.2656 16.8155 51.5978 16.4448C52.2543 15.6492 52.6946 14.6914 52.8722 13.5482L52.9572 12.5904C52.9804 11.2541 52.5015 10.2963 51.536 9.6938Z" fill="#184A91"/>
<path fill-rule="evenodd" clip-rule="evenodd" d="M22.6558 15.8268C22.4781 16.0354 22.2619 16.1976 21.9915 16.3443C21.8834 16.3907 21.7984 16.4293 21.6825 16.4525C21.5049 16.5143 21.3041 16.5374 21.111 16.5374C20.4081 16.5374 20.0605 16.3057 20.0605 15.8268V15.7419C20.1454 15.3634 20.2999 15.1162 20.5625 14.9926L21.1573 14.7609C21.2886 14.6991 21.4663 14.6605 21.6903 14.6141C21.7752 14.6141 21.8602 14.5909 21.9529 14.5909C22.5477 14.4674 23.0111 14.3438 23.3123 14.2125C23.2042 14.8922 22.9879 15.4329 22.6558 15.8268ZM26.7651 9.36166C26.1471 8.96773 25.0735 8.78235 23.5363 8.78235H23.2506C22.679 8.78235 22.1692 8.80552 21.6903 8.84414C19.1181 9.11449 17.666 10.1341 17.3415 11.8952H21.1187C21.2268 11.5862 21.4276 11.3545 21.6903 11.2078C21.9529 11.061 22.2619 10.9837 22.6558 10.9837C23.4205 10.9837 23.799 11.2077 23.799 11.648C23.799 11.9415 23.5981 12.1655 23.181 12.3355C22.9802 12.4204 22.4781 12.5209 21.6903 12.629C21.5512 12.6522 21.4199 12.6676 21.2732 12.6908L19.821 12.8994L18.8323 13.0925C18.1526 13.2778 17.581 13.5482 17.1175 13.9035C16.5691 14.336 16.1906 14.9617 16.0207 15.7727C16.0207 15.8114 15.9975 15.9195 15.9512 16.0431V16.437C15.9512 17.1013 16.1906 17.6034 16.6772 17.9278C17.357 18.3835 18.083 18.6384 18.9173 18.6384H19.1181C20.0373 18.6384 20.9024 18.4531 21.6903 18.0977C22.1228 17.8892 22.5477 17.642 22.9648 17.333V18.3526H26.9891L27.0354 18.1827C26.796 17.951 26.6569 17.7193 26.6183 17.4721L26.7264 16.8464L27.5838 12.32C27.6533 11.8643 27.6997 11.4858 27.6997 11.1769C27.692 10.3581 27.383 9.7556 26.7651 9.36166Z" fill="#184A91"/>
<path fill-rule="evenodd" clip-rule="evenodd" d="M39.2239 9.75563C38.3434 9.09135 37.1616 8.77466 35.6399 8.77466C33.7243 8.77466 32.2104 9.25356 31.0903 10.2345C29.9935 11.2078 29.3138 12.4128 29.0434 13.8263L28.9971 14.2588L28.9121 14.7609C28.9121 15.8655 29.3292 16.7615 30.1403 17.503C30.9745 18.2291 32.1795 18.5844 33.7706 18.5844C35.2923 18.5844 36.6054 18.2523 37.7023 17.6111C38.7991 16.97 39.5483 16.0122 39.8959 14.7455H36.0029C35.6322 15.6569 35.0606 16.1204 34.265 16.1204C33.3226 16.1204 32.836 15.6183 32.836 14.5987C32.9751 13.5791 33.1913 12.7912 33.4694 12.1887C33.8015 11.5399 34.3731 11.231 35.1455 11.231C35.5395 11.231 35.8253 11.3545 36.0261 11.5863C36.2269 11.7948 36.3119 12.0652 36.3119 12.351L36.2964 12.5827H40.2513L40.2744 12.0652C40.2822 11.1074 39.9268 10.3427 39.2239 9.75563Z" fill="#184A91"/>
<path fill-rule="evenodd" clip-rule="evenodd" d="M14.4597 1.26677C13.3165 0.417107 11.8103 0 9.87153 0C9.45442 0 9.07595 0.0231707 8.72836 0.0463433C8.3576 0.0926886 8.02545 0.115862 7.70103 0.162208C7.06765 0.278071 6.44971 0.463452 5.8395 0.687454C4.63452 1.19725 3.68444 1.83836 2.98926 2.62623C2.30953 3.40637 1.86926 4.32555 1.66843 5.36059L1.62982 5.93219L1.53711 6.65054C1.53711 8.00228 2.02374 9.02187 2.98926 9.68615C3.95479 10.3504 5.31425 10.9066 7.04447 11.3469C8.11813 11.6635 8.91373 11.9416 9.43898 12.1733C9.80974 12.4282 10.0106 12.7063 10.0106 13.0462V13.3397C9.80973 14.143 9.02188 14.5601 7.66242 14.5601C7.06766 14.5601 6.5424 14.3979 6.08668 14.0967C5.60005 13.7722 5.3606 13.2934 5.3606 12.6754H0.069515C0.0231698 12.7913 0 12.9998 0 13.3397C0 14.815 0.548423 16.0123 1.62209 16.9546C2.82706 18.0515 4.47231 18.6076 6.55784 18.6076C8.72834 18.6076 10.6594 18.1287 12.3047 17.1555C13.9654 16.2131 15.0004 14.676 15.3943 12.5518L15.4639 11.5168C15.4639 10.3891 15.0468 9.46987 14.1971 8.75924C13.3397 8.07179 12.1347 7.51565 10.5976 7.12172L8.82105 6.64281C8.14132 6.43426 7.6547 6.22571 7.37663 6.0017C7.11401 5.76998 6.98269 5.51508 6.98269 5.22156L7.00586 5.01301C7.13717 4.38735 7.75509 4.07065 8.82876 4.07065C10.1882 4.07065 10.8911 4.5341 10.8911 5.49963V5.59232H16.1359V5.29108C16.1281 3.48361 15.5797 2.12416 14.4597 1.26677Z" fill="#184A91"/>
<path fill-rule="evenodd" clip-rule="evenodd" d="M108.464 9.42346C107.892 8.9909 107.12 8.78235 106.131 8.78235C104.787 8.78235 103.559 9.34622 102.462 10.5048L102.748 9.00635H99.1637L97.4258 18.3372H101.357L102.23 13.5714C102.408 12.8067 102.624 12.3046 102.918 12.0574C103.173 11.8102 103.574 11.6867 104.1 11.6867C104.826 11.6867 105.196 12.042 105.196 12.7912V13.1002L105.173 13.3937L104.254 18.3449H108.147L109.197 12.7294C109.282 12.3355 109.306 11.957 109.306 11.6094C109.321 10.5898 109.035 9.86374 108.464 9.42346Z" fill="#184A91"/>
<path fill-rule="evenodd" clip-rule="evenodd" d="M123.001 8.65878H118.443L115.4 11.4858L116.952 3.08191H113.044L110.232 18.3449H114.141L114.712 15.3788L115.554 14.6605L117.022 18.3449H121.703L118.706 12.2428L123.001 8.65878Z" fill="#184A91"/>
<path fill-rule="evenodd" clip-rule="evenodd" d="M70.9629 9.38484C70.4531 8.96773 69.673 8.78235 68.6534 8.78235C67.2244 8.78235 65.9731 9.34621 64.8917 10.4894C64.5364 9.34621 63.594 8.78235 62.0337 8.78235H61.9488C61.4004 8.78235 60.7824 8.92911 60.1259 9.26125C59.4847 9.59339 58.9595 9.97188 58.5887 10.4044L58.8282 9.00635H55.2519L53.5371 18.3449H57.4301L58.303 13.5791C58.4806 12.8762 58.6969 12.3973 58.9595 12.1269C59.2685 11.8334 59.6392 11.6867 60.0563 11.6867C60.7361 11.6867 61.0682 12.0188 61.0682 12.6831L60.9987 13.4941L60.095 18.3372H64.0111L64.8917 13.5714C65.0462 12.7449 65.2856 12.2196 65.5946 11.9956C65.9036 11.7871 66.2357 11.6867 66.6065 11.6867C67.0004 11.6867 67.263 11.7484 67.4407 11.9184C67.5952 12.0651 67.6801 12.3123 67.6801 12.6676C67.6801 12.8994 67.6338 13.2083 67.572 13.5791L66.6914 18.3449H70.6076L71.6426 12.7758C71.7353 12.2737 71.7508 11.818 71.7508 11.4472C71.7585 10.4817 71.4959 9.80195 70.9629 9.38484Z" fill="#184A91"/>
<path fill-rule="evenodd" clip-rule="evenodd" d="M91.6086 15.8268C91.431 16.0354 91.2147 16.1976 90.9212 16.3443C90.8362 16.3907 90.7281 16.4293 90.6354 16.4525C90.4345 16.5143 90.2646 16.5374 90.0638 16.5374C89.3609 16.5374 89.0133 16.3057 89.0133 15.8268V15.7419C89.0828 15.3634 89.2528 15.1162 89.5154 14.9926L90.087 14.7609C90.2414 14.6991 90.4191 14.6605 90.6354 14.6141C90.6972 14.6141 90.7899 14.5909 90.8748 14.5909C91.4928 14.4674 91.9485 14.3438 92.2575 14.2125C92.157 14.8922 91.9331 15.4329 91.6086 15.8268ZM95.6947 9.36166C95.0845 8.96773 94.0031 8.78235 92.4892 8.78235H92.1802C91.6318 8.78235 91.1066 8.80552 90.6431 8.84414C88.0478 9.11449 86.5956 10.1341 86.2866 11.8952H90.0638C90.1797 11.5862 90.3728 11.3545 90.6354 11.2078C90.8748 11.061 91.207 10.9837 91.6009 10.9837C92.3424 10.9837 92.7364 11.2077 92.7364 11.648C92.7364 11.9415 92.5201 12.1655 92.1184 12.3355C91.9022 12.4204 91.4155 12.5209 90.6277 12.629C90.4964 12.6522 90.3419 12.6676 90.1874 12.6908L88.7584 12.8994L87.7465 13.0925C87.09 13.2778 86.5184 13.5482 86.0549 13.9035C85.5065 14.336 85.128 14.9617 84.9504 15.7727C84.9504 15.8114 84.9118 15.9195 84.8809 16.0431V16.437C84.8809 17.1013 85.128 17.6034 85.6069 17.9278C86.2635 18.3835 87.0127 18.6384 87.847 18.6384H88.0246C88.9515 18.6384 89.8012 18.4531 90.6199 18.0977C91.0525 17.8892 91.4773 17.642 91.8713 17.333V18.3526H95.911L95.9574 18.1827C95.7179 17.951 95.5866 17.7193 95.5403 17.4721L95.6484 16.8464L96.5058 12.32C96.5676 11.8643 96.6139 11.4858 96.6139 11.1769C96.6371 10.3581 96.3281 9.7556 95.6947 9.36166Z" fill="#184A91"/>
<path fill-rule="evenodd" clip-rule="evenodd" d="M79.8228 15.0545C79.5138 15.5102 79.1431 15.8037 78.6796 15.9119C78.5483 15.935 78.417 15.9505 78.2857 15.9505C77.4051 15.9505 76.9649 15.4098 76.9649 14.3439C77.1425 13.4942 77.3665 12.8299 77.6446 12.3356C77.8609 11.9571 78.2162 11.7331 78.6796 11.6481C78.811 11.6249 78.9654 11.6095 79.1199 11.6095C79.9773 11.6095 80.3944 12.127 80.3944 13.1698C80.3944 13.8341 80.2013 14.4752 79.8228 15.0545ZM80.9197 8.78243C80.2863 8.78243 79.7301 8.85968 79.2744 9.02961C79.0813 9.13775 78.8805 9.23816 78.6796 9.36175C78.3707 9.54713 78.0849 9.75569 77.8222 9.98741L79.0736 3.06653H75.1419L72.3535 18.3373H75.868L76.1538 17.0242C76.5477 18.0438 77.382 18.5613 78.6796 18.6231H78.8727C80.5026 18.6231 81.8234 17.9974 82.8275 16.7538C83.8394 15.5257 84.3492 14.089 84.3492 12.4669C84.3492 11.3005 84.0171 10.3891 83.3373 9.74796C82.6808 9.0914 81.8697 8.78243 80.9197 8.78243Z" fill="#184A91"/>
</svg>
