
<svg width="83" height="29" viewBox="0 0 83 29" fill="none" xmlns="http://www.w3.org/2000/svg">
<path d="M81.3273 12.2335C81.0073 11.5886 80.5487 11.0727 79.9611 10.6858C78.9484 10.0409 77.8688 9.55844 76.7272 9.24795V9.19062C77.5583 8.96133 78.1507 8.75115 78.509 8.56007C80.0949 7.70024 80.8878 6.45347 80.8878 4.815C80.8878 3.85484 80.5726 3.01889 79.9325 2.29758C79.3449 1.61926 78.5758 1.13202 77.6252 0.850182C77.415 0.754644 77.2049 0.692544 77.0042 0.659106L76.517 0.573122C76.4405 0.554014 76.3785 0.534909 76.3211 0.515802C76.1396 0.515802 76.0489 0.515802 76.0489 0.515802L75.6189 0.506246C75.06 0.429816 73.8515 0.391602 71.9981 0.391602H65.1719V0.983934C66.7196 0.983934 67.4934 1.78645 67.4934 3.39148V16.6664C67.4934 18.2715 66.7196 19.0692 65.1719 19.0692V19.6616H75.1317C76.068 19.6616 76.8609 19.5421 77.5249 19.289C78.3847 18.9689 79.2685 18.4578 80.1809 17.7699C81.2222 16.9769 81.7429 15.7636 81.7429 14.1347C81.7429 13.4182 81.6044 12.7828 81.3273 12.2335ZM71.9981 2.6033C71.9981 2.08739 72.1031 1.72435 72.3038 1.52372C72.5044 1.3231 72.8627 1.22278 73.3786 1.22278C74.4008 1.22278 75.1221 1.39952 75.5473 1.74824C76.025 2.13516 76.2638 2.82781 76.2638 3.82141V6.08565C76.2638 8.10627 75.2463 9.11419 73.2114 9.11419H71.9933V2.6033H71.9981ZM76.1348 18.0613C75.5568 18.5868 74.6253 18.8495 73.3547 18.8495C72.6047 18.8495 72.17 18.5438 72.0554 17.9228C72.0172 17.7317 71.9981 17.254 71.9981 16.4993V10.103H73.7798C75.1317 10.103 76.0632 10.6619 76.56 11.7845C76.8944 12.5392 77.0615 13.7143 77.0615 15.3098C77.0615 16.5852 76.7558 17.4976 76.1348 18.0613Z" fill="#2E368F"/>
<path d="M56.5731 10.4328H49.7852V16.6618C49.7852 18.2668 50.559 19.0646 52.1067 19.0646V19.6569H42.959V19.0646C44.5067 19.0646 45.2805 18.2621 45.2805 16.6618V3.38685C45.2805 1.78181 44.5067 0.979296 42.959 0.979296V0.386963H52.1067V0.979296C50.559 0.979296 49.7852 1.78181 49.7852 3.38685V9.05223H56.5731V3.38685C56.5731 1.78181 55.7993 0.979296 54.2515 0.979296V0.386963H63.3945V0.979296C61.8468 0.979296 61.073 1.78181 61.073 3.38685V16.6618C61.073 18.2668 61.8468 19.0646 63.3945 19.0646V19.6569H54.2515V19.0646C55.7993 19.0646 56.5731 18.2621 56.5731 16.6618V10.4328Z" fill="#2E368F"/>
<path d="M40.0117 0.00477791V6.2195H39.448L38.5499 4.18455C38.163 3.31994 37.5993 2.57952 36.8637 1.9633C36.0373 1.27065 35.0437 0.926717 33.8829 0.926717C32.7938 0.926717 31.9769 1.30409 31.4371 2.05884C31.0598 2.58907 30.8735 3.13364 30.8735 3.70686C30.8735 4.45206 31.0932 5.10171 31.5375 5.65583C32.1059 6.37714 33.1186 6.99336 34.5612 7.50926C36.6774 8.26401 38.2633 9.20506 39.3142 10.342C40.3078 11.4168 40.8046 12.6635 40.8046 14.0727C40.8046 16.2462 39.9591 17.8656 38.2776 18.926C37.0882 19.6712 35.5644 20.0438 33.7014 20.0438C33.2046 20.0438 32.5788 19.9387 31.8241 19.7381C30.1808 19.2938 29.2063 19.0741 28.8958 19.0741C28.7716 19.0741 28.6618 19.1601 28.5519 19.3225L28.4659 19.5709L28.356 20.0438H27.6777V13.1603H28.3274L28.9197 15.1523C29.0774 15.6777 29.4165 16.2653 29.9372 16.9197C30.4388 17.5312 30.926 18.0136 31.418 18.3528C32.1823 18.8878 32.961 19.1553 33.7539 19.1553C36.343 19.1553 37.6375 18.1187 37.6375 16.0456C37.6375 15.0233 36.9353 14.0536 35.5262 13.1412C35.1106 12.8785 33.9689 12.3053 32.1011 11.4311C30.6251 10.7432 29.536 9.83083 28.8242 8.70826C28.2271 7.76244 27.9261 6.77362 27.9261 5.75137C27.9261 3.97437 28.5328 2.53653 29.7509 1.43784C30.8066 0.482466 32.0152 0 33.367 0C34.2842 0 35.144 0.10987 35.937 0.329606L38.5069 1.05091C38.6837 1.05091 38.8652 0.90283 39.0611 0.592333L39.3668 0H40.0117V0.00477791Z" fill="#2E368F"/>
<path d="M11.3212 20.0724H9.9837L10.1652 19.9434C12.8546 18.1091 14.2447 16.6139 14.8274 15.3481C15.4007 14.0917 15.1762 13.0599 14.6412 12.1284C14.0345 11.0775 12.9024 10.1747 11.7893 9.28141C10.6716 8.38813 9.57287 7.50918 9.04264 6.49648C8.6175 5.67964 8.66049 4.76725 9.3388 3.70678C10.0028 2.6702 11.2782 1.49031 13.3275 0.109788C13.3514 0.0954571 13.4374 0.0429112 13.4613 0.0238037H13.7192L13.5377 0.143226C13.5186 0.157556 13.4374 0.205328 13.4183 0.224436C11.6556 1.51419 10.6716 2.6081 10.2369 3.56825C9.80216 4.52363 9.91681 5.35003 10.3515 6.1C10.9391 7.11748 12.1046 8.00598 13.2845 8.90881C13.8625 9.34829 14.4357 9.79254 14.9564 10.2559C15.4771 10.7193 15.9357 11.2065 16.2701 11.7319C16.8958 12.7208 17.0774 13.8386 16.3895 15.2C15.7112 16.5471 14.1778 18.133 11.369 20.0628L11.3212 20.0724ZM11.6604 0.0238037H11.8992L11.7225 0.152782C9.93591 1.42821 8.82292 2.52211 8.25447 3.48705C7.69558 4.43764 7.67167 5.2545 8.05382 5.99014C8.58405 7.00283 9.69707 7.89133 10.8292 8.79416C11.3785 9.23364 11.9327 9.67311 12.4247 10.1412C12.9215 10.6046 13.3514 11.0966 13.6523 11.6173C14.2303 12.6205 14.4453 13.7382 13.7479 15.114C13.0552 16.4706 11.4645 18.0757 8.43121 20.0581L8.39299 20.0724H7.24177L7.43283 19.9434C10.1079 18.1473 11.6126 16.6712 12.3196 15.4054C13.0218 14.1586 12.9406 13.1268 12.4581 12.2096C12.1811 11.6842 11.7703 11.1969 11.2926 10.7288C10.8149 10.2607 10.2751 9.81164 9.73529 9.36261C9.20028 8.91836 8.66527 8.47411 8.20669 8.01553C7.74333 7.55695 7.35641 7.07927 7.11757 6.57292C6.72109 5.74174 6.71153 4.82935 7.38029 3.75455C8.0395 2.69408 9.36269 1.47598 11.6413 0.0285816L11.6604 0.0238037ZM15.2478 0.0238037H22.5947H22.6663V0.0954577V20.0055V20.0772H22.5947H12.9072L13.0791 19.9482C15.5535 18.1616 16.8958 16.6904 17.4691 15.4293C18.0375 14.1873 17.8512 13.1555 17.2732 12.2431C16.9389 11.7176 16.4803 11.2304 15.9548 10.7575C15.4293 10.2893 14.8418 9.8403 14.259 9.39127C13.0887 8.498 11.9422 7.61905 11.3547 6.60635C10.8722 5.77518 10.7671 4.85801 11.326 3.77844C11.8801 2.71319 13.0887 1.49031 15.2335 0.0381374L15.2478 0.0238037ZM0.0764465 0.0238037H10.1079L9.91682 0.152782C7.97263 1.46642 6.85484 2.57944 6.31028 3.54915C5.77526 4.50452 5.80393 5.33092 6.16219 6.08089C6.40104 6.58724 6.78795 7.06016 7.25131 7.52351C7.71944 7.98687 8.25923 8.4359 8.8038 8.8897C9.33403 9.32918 9.86427 9.76865 10.3372 10.232C10.8101 10.7001 11.2209 11.1874 11.498 11.7128C12.0234 12.7017 12.0855 13.8242 11.2543 15.1904C10.4327 16.5375 8.72738 18.1282 5.70838 20.0628L5.67016 20.0772H0.0716649H0V20.0055V0.0954577V0.0238037H0.0764465Z" fill="#F58220"/>
<path d="M0.678824 27.4957V25.6948H0.244141V25.3365H0.678824V23.5356H2.04504C2.35076 23.5356 2.58481 23.5548 2.74722 23.593C2.97174 23.6455 3.1676 23.7411 3.33002 23.8748C3.5402 24.0515 3.69305 24.2761 3.79814 24.5531C3.90324 24.8254 3.95579 25.1407 3.95579 25.4942C3.95579 25.8954 3.89368 26.2441 3.7647 26.5355C3.63573 26.8269 3.48286 27.0371 3.30611 27.1709C3.12937 27.3046 2.92397 27.3954 2.6899 27.4527C2.56093 27.4861 2.36984 27.5005 2.11189 27.5005H0.678824V27.4957ZM1.2043 27.0275H2.04979C2.31252 27.0275 2.51794 27.0037 2.66602 26.9559C2.81411 26.9081 2.92875 26.8413 3.01951 26.7553C3.14371 26.6311 3.23924 26.4639 3.31089 26.2537C3.38255 26.0435 3.416 25.7903 3.416 25.4894C3.416 25.1789 3.38255 24.9305 3.31089 24.749C3.24402 24.5627 3.15325 24.4146 3.03861 24.3047C2.92874 24.1949 2.80455 24.1184 2.66602 24.0754C2.5275 24.0324 2.31731 24.0086 2.03547 24.0086H1.2043V25.3413H2.2982V25.6996H1.2043V27.0275Z" fill="#010101"/>
<path d="M4.43359 26.0579C4.43359 25.5276 4.58167 25.1311 4.87784 24.878C5.12624 24.6678 5.42719 24.5579 5.78068 24.5579C6.17716 24.5579 6.49719 24.6869 6.74559 24.9448C6.99399 25.2028 7.12298 25.5611 7.12298 26.0149C7.12298 26.3827 7.06564 26.6741 6.95577 26.8843C6.84591 27.0944 6.68349 27.2616 6.4733 27.3763C6.26312 27.4957 6.02908 27.553 5.78068 27.553C5.37942 27.553 5.05457 27.424 4.80618 27.1661C4.553 26.9129 4.43359 26.5451 4.43359 26.0579ZM5.78068 23.8079L5.47495 24.2665H4.91603L5.49883 23.5118H6.01952L6.62617 24.2665H6.07684L5.78068 23.8079ZM4.93038 26.0579C4.93038 26.4257 5.01159 26.7027 5.16922 26.8843C5.33164 27.0658 5.53228 27.1613 5.7759 27.1613C6.01474 27.1613 6.22015 27.0706 6.37779 26.8843C6.5402 26.7027 6.61663 26.4209 6.61663 26.0435C6.61663 25.69 6.53542 25.4225 6.37301 25.2362C6.21059 25.0547 6.00996 24.9639 5.77112 24.9639C5.52749 24.9639 5.32686 25.0547 5.16444 25.2362C5.01158 25.4177 4.93038 25.69 4.93038 26.0579ZM5.86666 22.5564H6.51631L5.89054 23.3159H5.49883L5.86666 22.5564Z" fill="#010101"/>
<path d="M7.69141 24.0945V23.5356H8.17863V24.0945H7.69141ZM7.69141 27.4957V24.6248H8.17863V27.4957H7.69141Z" fill="#010101"/>
<path d="M11.5174 27.061L11.5891 27.491C11.4505 27.5196 11.3311 27.534 11.2212 27.534C11.0445 27.534 10.906 27.5053 10.8104 27.4527C10.7149 27.3954 10.6433 27.3238 10.605 27.233C10.5668 27.1423 10.5477 26.9512 10.5477 26.6598V25.007H10.1895V24.6296H10.5477V23.9179L11.0302 23.6265V24.6296H11.5174V25.007H11.0302V26.6837C11.0302 26.8222 11.0397 26.913 11.0541 26.9512C11.0732 26.9894 11.0971 27.0228 11.14 27.0467C11.1783 27.0706 11.2356 27.0802 11.3072 27.0802C11.3598 27.0754 11.4314 27.0706 11.5174 27.061Z" fill="#010101"/>
<path d="M13.867 27.1374C13.6855 27.2902 13.5135 27.4001 13.3463 27.4622C13.1791 27.5243 13.0024 27.5577 12.8113 27.5577C12.496 27.5577 12.2524 27.4813 12.0852 27.3284C11.918 27.1756 11.832 26.975 11.832 26.7361C11.832 26.5976 11.8655 26.4686 11.9276 26.3492C11.9897 26.2345 12.0756 26.139 12.1807 26.0721C12.2858 26.0005 12.4005 25.9479 12.5294 25.9145C12.625 25.8906 12.7683 25.8619 12.9642 25.8428C13.3559 25.7951 13.6472 25.7377 13.8335 25.6756C13.8335 25.6088 13.8383 25.5658 13.8383 25.5467C13.8383 25.3508 13.7905 25.2075 13.6998 25.1263C13.5756 25.0164 13.3893 24.9639 13.1457 24.9639C12.9164 24.9639 12.7492 25.0021 12.6393 25.0833C12.5295 25.1645 12.4482 25.3031 12.3957 25.5085L11.918 25.4464C11.961 25.2409 12.0327 25.0785 12.133 24.9543C12.2333 24.8301 12.3766 24.7346 12.5629 24.6629C12.7492 24.5961 12.9689 24.5626 13.2126 24.5626C13.4562 24.5626 13.6568 24.5913 13.8097 24.6486C13.9625 24.7059 14.0772 24.7776 14.1488 24.8684C14.2205 24.9543 14.273 25.069 14.3017 25.198C14.316 25.2792 14.3256 25.432 14.3256 25.647V26.2966C14.3256 26.7504 14.3351 27.0323 14.359 27.1565C14.3781 27.2759 14.4211 27.3905 14.4832 27.5004H13.9768C13.91 27.3953 13.8813 27.2759 13.867 27.1374ZM13.824 26.053C13.6472 26.1247 13.3845 26.1868 13.031 26.2345C12.8304 26.2632 12.6919 26.2966 12.6059 26.3349C12.5247 26.3731 12.4578 26.4208 12.4148 26.4925C12.3718 26.5641 12.3479 26.6406 12.3479 26.7218C12.3479 26.8508 12.3957 26.9606 12.496 27.0466C12.5963 27.1326 12.7396 27.1756 12.9259 27.1756C13.1122 27.1756 13.2794 27.1326 13.4275 27.0514C13.5756 26.9702 13.6807 26.8555 13.7476 26.717C13.8001 26.6071 13.824 26.4447 13.824 26.2298V26.053ZM12.8782 24.2665L13.2364 23.5117H13.8717L13.2794 24.2665H12.8782Z" fill="#010101"/>
<path d="M16.9445 26.4448L17.4222 26.5069C17.3696 26.8365 17.2358 27.0945 17.0209 27.2808C16.8059 27.4671 16.5432 27.5626 16.2279 27.5626C15.8362 27.5626 15.5209 27.4336 15.2821 27.1757C15.0433 26.9177 14.9238 26.5499 14.9238 26.0722C14.9238 25.7617 14.9764 25.4895 15.0767 25.2602C15.177 25.0261 15.3346 24.8541 15.5448 24.7395C15.755 24.6201 15.9843 24.5627 16.2279 24.5627C16.5384 24.5627 16.7964 24.6392 16.9922 24.7968C17.1881 24.9544 17.317 25.179 17.3744 25.4703L16.9015 25.542C16.8585 25.3509 16.7773 25.2028 16.6626 25.1073C16.548 25.0118 16.4094 24.9592 16.247 24.9592C16.0034 24.9592 15.8028 25.0452 15.6499 25.2219C15.4971 25.3987 15.4206 25.6758 15.4206 26.0579C15.4206 26.4448 15.4923 26.7219 15.6404 26.8986C15.7884 27.0754 15.9795 27.1614 16.2184 27.1614C16.4094 27.1614 16.5671 27.104 16.6961 26.9846C16.8298 26.8652 16.911 26.6885 16.9445 26.4448Z" fill="#010101"/>
<path d="M20.4354 27.061L20.507 27.491C20.3685 27.5196 20.2491 27.534 20.1392 27.534C19.9625 27.534 19.8239 27.5053 19.7284 27.4527C19.6329 27.3954 19.5612 27.3238 19.523 27.233C19.4848 27.1423 19.4657 26.9512 19.4657 26.6598V25.007H19.1074V24.6296H19.4657V23.9179L19.9482 23.6265V24.6296H20.4354V25.007H19.9482V26.6837C19.9482 26.8222 19.9577 26.913 19.972 26.9512C19.9911 26.9894 20.015 27.0228 20.058 27.0467C20.0962 27.0706 20.1536 27.0802 20.2252 27.0802C20.2778 27.0754 20.3494 27.0706 20.4354 27.061Z" fill="#010101"/>
<path d="M20.9141 24.0945V23.5356H21.4013V24.0945H20.9141ZM20.9141 27.4957V24.6248H21.4013V27.4957H20.9141Z" fill="#010101"/>
<path d="M22.1406 27.4958V24.6249H22.5801V25.0309C22.7903 24.7156 23.096 24.558 23.4925 24.558C23.6644 24.558 23.8221 24.5866 23.9702 24.6535C24.1135 24.7156 24.2233 24.7968 24.295 24.8971C24.3666 24.9975 24.4192 25.1169 24.4478 25.2554C24.4669 25.3462 24.4765 25.5038 24.4765 25.7283V27.491H23.9893V25.7426C23.9893 25.5468 23.9702 25.3987 23.932 25.2984C23.8937 25.1981 23.8268 25.1217 23.7313 25.0643C23.6358 25.007 23.5211 24.9784 23.3922 24.9784C23.1868 24.9784 23.0052 25.0452 22.8572 25.1742C22.7091 25.3032 22.6326 25.5564 22.6326 25.9242V27.491H22.1406V27.4958Z" fill="#010101"/>
<path d="M28.628 26.4448L29.1057 26.5069C29.0532 26.8365 28.9194 27.0945 28.7045 27.2808C28.4895 27.4671 28.2268 27.5626 27.9115 27.5626C27.5198 27.5626 27.2045 27.4336 26.9657 27.1757C26.7268 26.9177 26.6074 26.5499 26.6074 26.0722C26.6074 25.7617 26.66 25.4895 26.7603 25.2602C26.8606 25.0261 27.0182 24.8541 27.2284 24.7395C27.4386 24.6201 27.6679 24.5627 27.9115 24.5627C28.222 24.5627 28.48 24.6392 28.6758 24.7968C28.8765 24.9544 29.0006 25.179 29.058 25.4703L28.5851 25.542C28.5421 25.3509 28.4609 25.2028 28.3462 25.1073C28.2316 25.0118 28.093 24.9592 27.9306 24.9592C27.687 24.9592 27.4864 25.0452 27.3335 25.2219C27.1807 25.3987 27.1042 25.6758 27.1042 26.0579C27.1042 26.4448 27.1759 26.7219 27.324 26.8986C27.472 27.0754 27.6631 27.1614 27.902 27.1614C28.093 27.1614 28.2507 27.104 28.3797 26.9846C28.5134 26.8652 28.5946 26.6885 28.628 26.4448Z" fill="#010101"/>
<path d="M31.3982 27.1374C31.2167 27.2902 31.0447 27.4001 30.8775 27.4622C30.7104 27.5243 30.5336 27.5577 30.3425 27.5577C30.0273 27.5577 29.7836 27.4813 29.6164 27.3284C29.4493 27.1756 29.3633 26.975 29.3633 26.7361C29.3633 26.5976 29.3967 26.4686 29.4588 26.3492C29.5209 26.2345 29.6069 26.139 29.712 26.0721C29.8171 26.0005 29.9317 25.9479 30.0607 25.9145C30.1562 25.8906 30.2995 25.8619 30.4954 25.8428C30.8871 25.7951 31.1785 25.7377 31.3648 25.6756C31.3648 25.6088 31.3695 25.5658 31.3695 25.5467C31.3695 25.3508 31.3218 25.2075 31.231 25.1263C31.1068 25.0164 30.9205 24.9639 30.6769 24.9639C30.4476 24.9639 30.2804 25.0021 30.1706 25.0833C30.0607 25.1645 29.9795 25.3031 29.927 25.5085L29.4493 25.4464C29.4923 25.2409 29.5639 25.0785 29.6642 24.9543C29.7645 24.8301 29.9078 24.7346 30.0941 24.6629C30.2804 24.5961 30.5002 24.5626 30.7438 24.5626C30.9874 24.5626 31.188 24.5913 31.3409 24.6486C31.4937 24.7059 31.6084 24.7776 31.6801 24.8684C31.7517 24.9543 31.8043 25.069 31.8329 25.198C31.8473 25.2792 31.8568 25.432 31.8568 25.647V26.2966C31.8568 26.7504 31.8664 27.0323 31.8902 27.1565C31.9094 27.2759 31.9523 27.3905 32.0144 27.5004H31.5081C31.4412 27.3953 31.4125 27.2759 31.3982 27.1374ZM30.6865 23.8079L30.3808 24.2665H29.8218L30.4046 23.5117H30.9253L31.532 24.2665H30.9826L30.6865 23.8079ZM31.3552 26.053C31.1785 26.1247 30.9157 26.1868 30.5623 26.2345C30.3616 26.2632 30.2231 26.2966 30.1371 26.3349C30.0559 26.3731 29.989 26.4208 29.946 26.4925C29.9031 26.5641 29.8792 26.6406 29.8792 26.7218C29.8792 26.8508 29.9269 26.9606 30.0272 27.0466C30.1276 27.1326 30.2709 27.1756 30.4572 27.1756C30.6435 27.1756 30.8107 27.1326 30.9587 27.0514C31.1068 26.9702 31.2119 26.8555 31.2788 26.717C31.3313 26.6071 31.3552 26.4447 31.3552 26.2298V26.053ZM30.3951 28.3698V27.8157H30.9492V28.3698H30.3951Z" fill="#010101"/>
<path d="M32.5783 28.5991L32.5257 28.1406C32.6308 28.1692 32.7263 28.1835 32.8028 28.1835C32.9126 28.1835 32.9986 28.1644 33.0607 28.131C33.1276 28.0928 33.1801 28.045 33.2183 27.9781C33.247 27.9304 33.2996 27.811 33.3665 27.6151C33.376 27.5864 33.3903 27.5482 33.4094 27.4957L32.3203 24.62H32.8458L33.4429 26.2823C33.5193 26.4925 33.591 26.717 33.6531 26.9463C33.7104 26.7218 33.7772 26.5069 33.8537 26.2919L34.4651 24.62H34.9524L33.8585 27.5387C33.739 27.8539 33.6483 28.0737 33.5862 28.1883C33.5002 28.3507 33.3999 28.4654 33.29 28.5418C33.1801 28.6135 33.0464 28.6517 32.8888 28.6517C32.798 28.6565 32.6929 28.6374 32.5783 28.5991Z" fill="#010101"/>
<path d="M35.0823 27.4956V26.9415H35.6364V27.4956C35.6364 27.7011 35.5982 27.8635 35.5265 27.9877C35.4549 28.1119 35.3402 28.2074 35.1826 28.2791L35.0488 28.0689C35.1491 28.0259 35.2256 27.959 35.2734 27.8682C35.3211 27.7823 35.3498 27.6533 35.3546 27.4909H35.0823V27.4956Z" fill="#010101"/>
<path d="M37.944 27.7298L38.417 27.8015C38.4361 27.9495 38.4934 28.0546 38.5842 28.1215C38.7036 28.2123 38.8708 28.2553 39.0762 28.2553C39.3007 28.2553 39.4774 28.2123 39.5969 28.1215C39.7211 28.0307 39.8023 27.9065 39.8453 27.7441C39.8692 27.6438 39.8835 27.4384 39.8787 27.1184C39.6637 27.3668 39.401 27.4957 39.0857 27.4957C38.6892 27.4957 38.3883 27.3524 38.1686 27.0706C37.9536 26.7888 37.8438 26.4448 37.8438 26.0483C37.8438 25.7761 37.8915 25.5229 37.9918 25.2936C38.0921 25.0595 38.2354 24.8828 38.4217 24.7586C38.608 24.6296 38.8326 24.5675 39.0857 24.5675C39.4249 24.5675 39.7019 24.706 39.9217 24.9783V24.6344H40.3707V27.1136C40.3707 27.5578 40.3277 27.8779 40.2322 28.0642C40.1414 28.2505 39.9981 28.3986 39.8023 28.5084C39.6064 28.6183 39.3628 28.6708 39.0714 28.6708C38.7274 28.6708 38.4552 28.5944 38.2402 28.4416C38.0396 28.2744 37.9393 28.0403 37.944 27.7298ZM38.3453 26.0053C38.3453 26.3827 38.4217 26.655 38.5698 26.8318C38.7179 27.0037 38.909 27.0897 39.1335 27.0897C39.358 27.0897 39.5443 27.0037 39.6972 26.8318C39.85 26.6598 39.9217 26.3923 39.9217 26.0245C39.9217 25.671 39.8453 25.4082 39.6876 25.2267C39.53 25.05 39.3437 24.9592 39.124 24.9592C38.909 24.9592 38.7227 25.0452 38.5746 25.2219C38.4217 25.4035 38.3453 25.6614 38.3453 26.0053Z" fill="#010101"/>
<path d="M41.1152 24.0945V23.5356H41.6025V24.0945H41.1152ZM41.1152 27.4957V24.6248H41.6025V27.4957H41.1152Z" fill="#010101"/>
<path d="M44.2107 27.1373C44.0292 27.2902 43.8573 27.4001 43.6901 27.4622C43.5229 27.5243 43.3461 27.5577 43.1551 27.5577C42.8398 27.5577 42.5962 27.4813 42.429 27.3284C42.257 27.1756 42.1758 26.9749 42.1758 26.7361C42.1758 26.5975 42.2092 26.4686 42.2713 26.3491C42.3334 26.2345 42.4194 26.139 42.5245 26.0721C42.6296 26.0004 42.7442 25.9479 42.8732 25.9144C42.9688 25.8906 43.1121 25.8619 43.3031 25.8428C43.6949 25.795 43.9862 25.7377 44.1725 25.6756C44.1725 25.6087 44.1773 25.5657 44.1773 25.5466C44.1773 25.3508 44.1295 25.2075 44.0388 25.1263C43.9146 25.0164 43.7283 24.9639 43.4847 24.9639C43.2554 24.9639 43.0882 25.0021 42.9783 25.0833C42.8685 25.1645 42.7872 25.303 42.7347 25.5084L42.257 25.4463C42.3 25.2409 42.3717 25.0785 42.472 24.9543C42.5723 24.8301 42.7156 24.7346 42.9019 24.6629C43.0882 24.596 43.3079 24.5626 43.5515 24.5626C43.7951 24.5626 43.9958 24.5913 44.1486 24.6486C44.3015 24.7059 44.4162 24.7776 44.4878 24.8683C44.5595 24.9543 44.612 25.0689 44.6407 25.1979C44.655 25.2791 44.6645 25.432 44.6645 25.6469V26.2966C44.6645 26.7504 44.6741 27.0322 44.6932 27.1564C44.7123 27.2759 44.7553 27.3905 44.8174 27.5004H44.3111C44.2585 27.3953 44.2251 27.2759 44.2107 27.1373ZM44.1725 26.053C43.9958 26.1246 43.7331 26.1867 43.3796 26.2345C43.1789 26.2632 43.0404 26.2966 42.9544 26.3348C42.8732 26.373 42.8063 26.4208 42.7634 26.4925C42.7204 26.5641 42.6965 26.6405 42.6965 26.7217C42.6965 26.8507 42.7442 26.9606 42.8446 27.0466C42.9449 27.1326 43.0882 27.1755 43.2745 27.1755C43.4608 27.1755 43.628 27.1326 43.7761 27.0514C43.9241 26.9701 44.0292 26.8555 44.0961 26.717C44.1486 26.6071 44.1725 26.4447 44.1725 26.2297V26.053ZM43.6041 23.9129C43.6996 23.8795 43.7474 23.8317 43.7474 23.7601C43.7474 23.7171 43.7235 23.6836 43.6709 23.655C43.5945 23.612 43.4751 23.5929 43.3127 23.5929C43.2554 23.5929 43.1742 23.5977 43.0595 23.6024L43.0309 23.3254C43.1025 23.3111 43.2315 23.3063 43.4226 23.3063C43.6423 23.3063 43.8238 23.3445 43.9671 23.4161C44.12 23.4926 44.2012 23.5977 44.206 23.7314C44.2107 23.9559 44.0483 24.0897 43.714 24.1279V24.2617H43.413V23.9368C43.5085 23.932 43.5754 23.9225 43.6041 23.9129Z" fill="#010101"/>
<path d="M45.4199 24.0945V23.5356H45.9072V24.0945H45.4199ZM45.4199 27.4957V24.6248H45.9072V27.4957H45.4199Z" fill="#010101"/>
<path d="M48.1855 28.5944V24.6249H48.6298V24.9975C48.7349 24.8494 48.8543 24.7395 48.9833 24.6678C49.1123 24.5962 49.2747 24.558 49.461 24.558C49.7046 24.558 49.9196 24.6201 50.1106 24.7491C50.2969 24.8733 50.4402 25.05 50.5358 25.2841C50.6313 25.5134 50.6791 25.7665 50.6791 26.0388C50.6791 26.3302 50.6265 26.5977 50.5215 26.8318C50.4164 27.0659 50.2635 27.2474 50.0629 27.3716C49.8622 27.4958 49.6521 27.5579 49.4276 27.5579C49.2651 27.5579 49.1218 27.5244 48.9928 27.4576C48.8639 27.3907 48.7588 27.2999 48.6728 27.1996V28.5944H48.1855ZM48.625 26.077C48.625 26.4449 48.7015 26.7171 48.8495 26.8939C48.9976 27.0706 49.1792 27.1614 49.3941 27.1614C49.6091 27.1614 49.7954 27.0706 49.9482 26.8843C50.1011 26.7028 50.1775 26.4162 50.1775 26.034C50.1775 25.6662 50.1011 25.3939 49.953 25.2124C49.8001 25.0309 49.6234 24.9401 49.4132 24.9401C49.2078 24.9401 49.0215 25.0357 48.8639 25.2315C48.7062 25.4226 48.625 25.7044 48.625 26.077Z" fill="#010101"/>
<path d="M51.2617 27.4957V23.5356H51.749V24.9592C51.9783 24.6964 52.2601 24.5627 52.6088 24.5627C52.819 24.5627 53.0053 24.6057 53.1629 24.6869C53.3205 24.7681 53.4304 24.8875 53.4973 25.0356C53.5642 25.1837 53.5976 25.3986 53.5976 25.6805V27.5005H53.1104V25.6805C53.1104 25.4368 53.0578 25.2601 52.9528 25.1502C52.8477 25.0404 52.6996 24.983 52.5037 24.983C52.3604 24.983 52.2219 25.0213 52.0977 25.0929C51.9687 25.1693 51.8779 25.2697 51.8254 25.3986C51.7728 25.5276 51.7442 25.7044 51.7442 25.9289V27.5005H51.2617V27.4957Z" fill="#010101"/>
<path d="M56.2107 27.1374C56.0292 27.2902 55.8572 27.4001 55.69 27.4622C55.5229 27.5243 55.3461 27.5577 55.155 27.5577C54.8398 27.5577 54.5961 27.4813 54.4289 27.3284C54.2618 27.1756 54.1758 26.975 54.1758 26.7361C54.1758 26.5976 54.2092 26.4686 54.2713 26.3492C54.3334 26.2345 54.4194 26.139 54.5197 26.0721C54.6248 26.0005 54.7394 25.9479 54.8684 25.9145C54.9639 25.8906 55.1073 25.8619 55.3031 25.8428C55.6948 25.7951 55.9862 25.7377 56.1725 25.6756C56.1725 25.6088 56.1773 25.5658 56.1773 25.5467C56.1773 25.3508 56.1295 25.2075 56.0387 25.1263C55.9145 25.0164 55.733 24.9639 55.4846 24.9639C55.2554 24.9639 55.0882 25.0021 54.9783 25.0833C54.8684 25.1645 54.7872 25.3031 54.7347 25.5085L54.257 25.4464C54.3 25.2409 54.3716 25.0785 54.4719 24.9543C54.5723 24.8301 54.7155 24.7346 54.9018 24.6629C55.0881 24.5961 55.3079 24.5626 55.5515 24.5626C55.7951 24.5626 55.9957 24.5913 56.1486 24.6486C56.3015 24.7059 56.4161 24.7776 56.4878 24.8684C56.5594 24.9543 56.612 25.069 56.6406 25.198C56.655 25.2792 56.6645 25.432 56.6645 25.647V26.2966C56.6645 26.7504 56.6741 27.0323 56.6932 27.1565C56.7123 27.2759 56.7553 27.3905 56.8174 27.5004H56.311C56.2585 27.3953 56.225 27.2759 56.2107 27.1374ZM56.1725 26.053C55.9958 26.1247 55.733 26.1868 55.3795 26.2345C55.1789 26.2632 55.0404 26.2966 54.9544 26.3349C54.8732 26.3731 54.8063 26.4208 54.7633 26.4925C54.7156 26.5641 54.6964 26.6406 54.6964 26.7218C54.6964 26.8508 54.7442 26.9606 54.8445 27.0466C54.9448 27.1326 55.0882 27.1756 55.2745 27.1756C55.4608 27.1756 55.6279 27.1326 55.776 27.0514C55.9241 26.9702 56.0292 26.8555 56.0961 26.717C56.1486 26.6071 56.1773 26.4447 56.1773 26.2298V26.053H56.1725ZM55.2267 24.2665L55.5849 23.5117H56.2251L55.6327 24.2665H55.2267Z" fill="#010101"/>
<path d="M57.4141 28.5944V24.6249H57.8583V24.9975C57.9634 24.8494 58.078 24.7395 58.2118 24.6678C58.3455 24.5962 58.5032 24.558 58.6895 24.558C58.9331 24.558 59.1529 24.6201 59.3392 24.7491C59.5255 24.8733 59.6687 25.05 59.7643 25.2841C59.8598 25.5134 59.9076 25.7665 59.9076 26.0388C59.9076 26.3302 59.8551 26.5977 59.75 26.8318C59.6449 27.0659 59.492 27.2474 59.2914 27.3716C59.0907 27.4958 58.8806 27.5579 58.656 27.5579C58.4936 27.5579 58.3503 27.5244 58.2214 27.4576C58.0924 27.3907 57.9873 27.2999 57.9061 27.1996V28.5944H57.4141ZM57.8583 26.077C57.8583 26.4449 57.9348 26.7171 58.0828 26.8939C58.2309 27.0706 58.4124 27.1614 58.6274 27.1614C58.8423 27.1614 59.0287 27.0706 59.1815 26.8843C59.3344 26.7028 59.4108 26.4162 59.4108 26.034C59.4108 25.6662 59.3344 25.3939 59.1863 25.2124C59.0334 25.0309 58.8567 24.9401 58.6465 24.9401C58.4411 24.9401 58.2548 25.0357 58.0972 25.2315C57.9347 25.4226 57.8583 25.7044 57.8583 26.077Z" fill="#010101"/>
<path d="M62.0293 28.5944V24.6249H62.4735V24.9975C62.5786 24.8494 62.6933 24.7395 62.827 24.6678C62.956 24.5962 63.1184 24.558 63.3047 24.558C63.5483 24.558 63.7681 24.6201 63.9544 24.7491C64.1407 24.8733 64.284 25.05 64.3795 25.2841C64.4751 25.5134 64.5228 25.7665 64.5228 26.0388C64.5228 26.3302 64.4703 26.5977 64.3652 26.8318C64.2601 27.0659 64.1072 27.2474 63.9066 27.3716C63.706 27.4958 63.4958 27.5579 63.2713 27.5579C63.1089 27.5579 62.9655 27.5244 62.8366 27.4576C62.7076 27.3907 62.6025 27.2999 62.5213 27.1996V28.5944H62.0293ZM62.4735 26.077C62.4735 26.4449 62.55 26.7171 62.698 26.8939C62.8461 27.0706 63.0277 27.1614 63.2426 27.1614C63.4576 27.1614 63.6439 27.0706 63.7967 26.8843C63.9496 26.7028 64.026 26.4162 64.026 26.034C64.026 25.6662 63.9496 25.3939 63.8015 25.2124C63.6486 25.0309 63.4719 24.9401 63.2617 24.9401C63.0563 24.9401 62.87 25.0357 62.7124 25.2315C62.55 25.4226 62.4735 25.7044 62.4735 26.077Z" fill="#010101"/>
<path d="M65.1094 27.4957V23.5356H65.5966V24.9592C65.8259 24.6964 66.1077 24.5627 66.4565 24.5627C66.6666 24.5627 66.853 24.6057 67.0106 24.6869C67.1682 24.7681 67.2781 24.8875 67.345 25.0356C67.4118 25.1837 67.4453 25.3986 67.4453 25.6805V27.5005H66.958V25.6805C66.958 25.4368 66.9055 25.2601 66.8004 25.1502C66.6953 25.0404 66.5472 24.983 66.3514 24.983C66.2081 24.983 66.0695 25.0213 65.9453 25.0929C65.8211 25.1693 65.7256 25.2697 65.673 25.3986C65.6205 25.5276 65.5918 25.7044 65.5918 25.9289V27.5005H65.1094V27.4957Z" fill="#010101"/>
<path d="M70.0674 27.4956V27.0753C69.8429 27.4001 69.542 27.5625 69.155 27.5625C68.9878 27.5625 68.8302 27.5291 68.6821 27.467C68.534 27.4001 68.4242 27.3189 68.3525 27.2234C68.2809 27.1278 68.2331 27.0036 68.2044 26.8651C68.1853 26.7696 68.1758 26.6167 68.1758 26.4113V24.6343H68.663V26.225C68.663 26.4782 68.6726 26.6501 68.6917 26.7409C68.7203 26.8699 68.7872 26.9702 68.8875 27.0418C68.9878 27.1135 69.1072 27.1517 69.2553 27.1517C69.3986 27.1517 69.5372 27.1135 69.6662 27.0371C69.7951 26.9606 69.8859 26.8603 69.9385 26.7313C69.991 26.6024 70.0197 26.4161 70.0197 26.1724V24.6343H70.5069V27.5052H70.0674V27.4956ZM69.7856 24.2665H69.3939L68.7681 23.5117H69.4178L69.7856 24.2665Z" fill="#010101"/>
<path d="M72.8008 27.4957V23.5356H73.288V24.9592C73.5173 24.6964 73.8039 24.5627 74.1479 24.5627C74.358 24.5627 74.5443 24.6057 74.702 24.6869C74.8596 24.7681 74.9695 24.8875 75.0364 25.0356C75.1032 25.1837 75.1367 25.3986 75.1367 25.6805V27.5005H74.6494V25.6805C74.6494 25.4368 74.5969 25.2601 74.4918 25.1502C74.3867 25.0404 74.2386 24.983 74.0428 24.983C73.8995 24.983 73.7609 25.0213 73.6367 25.0929C73.5078 25.1693 73.417 25.2697 73.3645 25.3986C73.3119 25.5276 73.2833 25.7044 73.2833 25.9289V27.5005H72.8008V27.4957Z" fill="#010101"/>
<path d="M78.4516 25.1168V24.5531H78.9722V24.9973C78.9722 25.2219 78.9388 25.3938 78.8672 25.5085C78.7812 25.6661 78.6188 25.8046 78.3847 25.9336C78.3847 25.9575 78.3847 25.9862 78.3847 26.0101C78.3847 26.6788 78.1697 27.1374 77.735 27.3762C77.5201 27.4957 77.2908 27.553 77.0424 27.553C76.6316 27.553 76.3067 27.424 76.0679 27.1661C75.8195 26.8986 75.6953 26.526 75.6953 26.053C75.6953 25.5228 75.8434 25.1263 76.1396 24.8732C76.388 24.663 76.6889 24.5531 77.0424 24.5531C77.4389 24.5531 77.7589 24.6821 78.0121 24.94C78.1984 25.1359 78.3178 25.3891 78.3656 25.6996C78.4898 25.6231 78.5758 25.5467 78.6283 25.4655C78.6809 25.3843 78.7047 25.2696 78.7047 25.112H78.4516V25.1168ZM76.1969 26.0578C76.1969 26.4113 76.2781 26.6884 76.4357 26.8842C76.5886 27.0657 76.7892 27.1613 77.0424 27.1613C77.2956 27.1613 77.4962 27.0705 77.6443 26.8842C77.8067 26.6884 77.8831 26.4065 77.8831 26.0435C77.8831 25.6996 77.8019 25.432 77.6395 25.241C77.4866 25.0595 77.286 24.9639 77.0376 24.9639C76.7844 24.9639 76.5838 25.0547 76.4309 25.2362C76.2781 25.4273 76.1969 25.7043 76.1969 26.0578ZM76.7462 28.3698V27.8157H77.3003V28.3698H76.7462Z" fill="#010101"/>
<path d="M79.5078 28.5944V24.6249H79.9521V24.9975C80.0572 24.8494 80.1718 24.7395 80.3055 24.6678C80.4345 24.5962 80.5969 24.558 80.7832 24.558C81.0269 24.558 81.2466 24.6201 81.4329 24.7491C81.6192 24.8733 81.7625 25.05 81.858 25.2841C81.9536 25.5134 82.0014 25.7665 82.0014 26.0388C82.0014 26.3302 81.9488 26.5977 81.8437 26.8318C81.7386 27.0659 81.5858 27.2474 81.3851 27.3716C81.1845 27.4958 80.9743 27.5579 80.7498 27.5579C80.5874 27.5579 80.4441 27.5244 80.3151 27.4576C80.1861 27.3907 80.081 27.2999 79.9951 27.1996V28.5944H79.5078ZM79.9473 26.077C79.9473 26.4449 80.0237 26.7171 80.1718 26.8939C80.3199 27.0706 80.5014 27.1614 80.7164 27.1614C80.9313 27.1614 81.1176 27.0706 81.2705 26.8843C81.4233 26.7028 81.4998 26.4162 81.4998 26.034C81.4998 25.6662 81.4233 25.3939 81.2753 25.2124C81.1224 25.0309 80.9457 24.9401 80.7355 24.9401C80.5301 24.9401 80.3438 25.0357 80.1861 25.2315C80.0285 25.4226 79.9473 25.7044 79.9473 26.077Z" fill="#010101"/>
</svg>
