<svg width="115" height="21" viewBox="0 0 146 21" fill="none" xmlns="http://www.w3.org/2000/svg">
<path fill-rule="evenodd" clip-rule="evenodd" d="M130.74 5.04001L125.7 0L115.57 10.13L125.7 20.25L130.74 15.21L125.66 10.13L130.74 5.04001Z" fill="#EB2227"/>
<path fill-rule="evenodd" clip-rule="evenodd" d="M135.79 0L130.74 5.04001L135.83 10.13L130.74 15.21L135.79 20.25L145.91 10.13L135.79 0Z" fill="#EB2227"/>
<path fill-rule="evenodd" clip-rule="evenodd" d="M0 7.29999H2.23001V14.78H4.87V7.29999H7.10001V4.98999H0V7.29999Z" fill="#EB2227"/>
<path fill-rule="evenodd" clip-rule="evenodd" d="M8.76062 5.01001H8.39062V14.79H8.76062H11.0506H14.4306V12.63H11.0506V10.97H14.2406V8.85001H11.0506V7.17001H14.4306V5.01001H8.76062Z" fill="#EB2227"/>
<path fill-rule="evenodd" clip-rule="evenodd" d="M18.3998 9.91002C18.4598 7.13002 21.5698 6.01001 23.2798 8.28001V5.39003C20.9098 4.32003 18.5798 4.60001 16.8398 6.62001C15.3298 8.81001 15.5298 11.19 16.6598 12.98C18.4998 15.2 20.7398 15.56 23.2998 14.43V11.59C22.0198 13.27 18.6098 13.35 18.3998 9.91002Z" fill="#EB2227"/>
<path fill-rule="evenodd" clip-rule="evenodd" d="M31.0408 8.82999H27.5008V4.98999H24.8008V14.8H27.5008V10.83H31.0408V14.8H33.7408V4.98999H31.0408V8.82999Z" fill="#EB2227"/>
<path fill-rule="evenodd" clip-rule="evenodd" d="M38.0404 9.91002C38.1004 7.13002 41.2104 6.01001 42.9204 8.28001V5.39003C40.5404 4.32003 38.2204 4.60001 36.4804 6.62001C34.9704 8.81001 35.1704 11.19 36.3004 12.98C38.1404 15.2 40.3804 15.56 42.9404 14.43V11.59C41.6704 13.27 38.2504 13.35 38.0404 9.91002Z" fill="#EB2227"/>
<path fill-rule="evenodd" clip-rule="evenodd" d="M49.2803 4.81006C46.4003 4.81006 44.0703 7.11007 44.0703 9.95007C44.0703 12.7901 46.4003 15.0901 49.2803 15.0901C52.1603 15.0901 54.4903 12.7901 54.4903 9.95007C54.4903 7.11007 52.1603 4.81006 49.2803 4.81006ZM49.2803 12.8801C47.8403 12.8801 46.6803 11.5701 46.6803 9.95007C46.6803 8.33007 47.8403 7.02008 49.2803 7.02008C50.7203 7.02008 51.8803 8.33007 51.8803 9.95007C51.8803 11.5701 50.7203 12.8801 49.2803 12.8801Z" fill="#EB2227"/>
<path fill-rule="evenodd" clip-rule="evenodd" d="M74.3404 9.53C75.3504 9.34 76.1004 8.75001 76.1404 7.45001C76.1304 6.11001 75.1904 5.17001 73.0704 5.01001C72.3704 5.01001 71.7504 5 70.6804 5H68.9004V14.79H70.6204H70.8404C71.8104 14.79 72.6004 14.8 73.6404 14.79C75.4904 14.77 76.7804 13.32 76.5704 12C76.4904 10.31 75.6204 9.7 74.3404 9.53ZM72.4804 6.94C73.3304 6.96 73.6704 7.31001 73.6604 7.98001C73.6604 8.69001 73.1504 8.84999 72.5404 8.89999C72.2004 8.89999 71.8004 8.89999 71.3704 8.89999C71.3704 8.24999 71.3604 7.59 71.3604 6.94C71.7604 6.93 72.1904 6.94 72.4804 6.94ZM72.5404 12.85C72.2004 12.85 71.8004 12.85 71.3704 12.85C71.3704 12.2 71.3604 11.34 71.3604 10.69C71.7604 10.68 72.2004 10.69 72.4804 10.69C73.3704 10.57 74.1204 11.04 74.0904 11.82C74.0804 12.63 73.1504 12.88 72.5404 12.85Z" fill="#1D1D1A"/>
<path fill-rule="evenodd" clip-rule="evenodd" d="M82.1205 5.02002H80.4406L77.0605 14.79L79.7105 14.81L80.2206 13.05H84.0106L84.5206 14.81L87.1706 14.79L83.7906 5.02002H82.1205ZM80.7706 11.16L82.1106 6.54001L83.4506 11.16H80.7706Z" fill="#1D1D1A"/>
<path fill-rule="evenodd" clip-rule="evenodd" d="M95.2592 11.7C94.3992 9.71001 92.2991 7.24002 90.6791 5.02002C90.5991 5.02002 90.5091 5.02002 90.4291 5.02002H88.1191V14.79H90.6791C90.6591 12.59 90.7992 10.31 90.5492 8.06C91.5692 10.48 93.5992 12.55 95.1392 14.79H95.2091H97.6992V5.02002H95.1392C95.1592 7.20002 95.0092 9.47001 95.2592 11.7Z" fill="#1D1D1A"/>
<path fill-rule="evenodd" clip-rule="evenodd" d="M108.69 5.02002H105.57L102.51 9.45999L102.45 9.53V5.01001H99.8203V14.8H102.45V10.41C103.46 11.87 104.65 13.34 105.66 14.8C106.7 14.8 107.9 14.8 108.95 14.8C107.74 13.19 106.29 11.46 105.09 9.85001L108.69 5.02002Z" fill="#1D1D1A"/>
<path fill-rule="evenodd" clip-rule="evenodd" d="M63.3896 5.03003L61.5396 11.45L59.6896 5.03003H57.0696L55.5996 14.79H58.0296L58.8596 8.38004L60.6196 14.8H61.5396H62.4496L64.2196 8.38004L65.0496 14.79H67.4796L66.0096 5.03003H63.3896Z" fill="#EB2227"/>
</svg>
