<svg width="85" height="34" viewBox="0 0 85 34" fill="none" xmlns="http://www.w3.org/2000/svg">
                                                    <path d="M36.7212 33.0004C36.608 33.0247 36.1797 33.0974 35.8161 33.0974C34.8705 33.0974 34.6523 32.5559 34.6523 31.7316C34.6523 30.9316 34.8301 30.3497 35.8161 30.3497C36.2363 30.3497 36.5999 30.4063 36.7212 30.4386L36.697 30.6892C36.5515 30.6649 36.1555 30.6003 35.8242 30.6003C35.1292 30.6003 35.0402 31.0205 35.0402 31.7316C35.0402 32.4509 35.1534 32.8388 35.8242 32.8388C36.1312 32.8388 36.5757 32.7661 36.697 32.758L36.7212 33.0004Z" fill="#7CBB42"/>
                                                    <path d="M37.5609 31.1902C37.6822 31.1579 37.8599 31.1094 38.062 31.1094C38.7166 31.1094 38.8782 31.4326 38.8782 32.063V33.0651H38.5064V32.063C38.5064 31.5458 38.4418 31.3356 38.062 31.3356C37.8599 31.3356 37.6822 31.3841 37.5609 31.4165V33.057H37.1973V30.3901H37.5609V31.1902Z" fill="#7CBB42"/>
                                                    <path d="M40.9954 32.9277C40.7045 33.0489 40.4458 33.1054 40.2034 33.1054C39.5488 33.1054 39.3145 32.7903 39.3145 32.1519V31.1578H39.6943V32.1519C39.6943 32.6771 39.8155 32.8711 40.2034 32.8711C40.3488 32.8711 40.5348 32.8307 40.6398 32.7984V31.1578H40.9954V32.9277Z" fill="#7CBB42"/>
                                                    <path d="M41.4883 31.2872C41.8035 31.174 42.054 31.1094 42.3449 31.1094C42.9995 31.1094 43.2338 31.4326 43.2338 32.063V33.0651H42.8702V32.063C42.8702 31.5538 42.7328 31.3357 42.3449 31.3357C42.159 31.3357 41.9651 31.3841 41.852 31.4165V33.057H41.4883V31.2872Z" fill="#7CBB42"/>
                                                    <path d="M44.9638 31.3518C44.8829 31.3518 44.7617 31.3437 44.689 31.3518C44.099 31.3518 44.0182 31.5943 44.0182 32.1519C44.0182 32.6125 44.0991 32.8307 44.4708 32.8307C44.6567 32.8307 44.8506 32.7822 44.9638 32.7499V31.3518ZM43.7596 33.3721C43.9859 33.4449 44.2768 33.5095 44.5031 33.5095C44.8668 33.5095 44.9638 33.3318 44.9638 32.96C44.8587 32.9923 44.6567 33.0327 44.4708 33.0327C43.8081 33.0327 43.6465 32.7337 43.6465 32.1519C43.6465 31.4569 43.8566 31.1094 44.7051 31.1094C44.9153 31.1094 45.1254 31.1417 45.3193 31.1579V32.7822C45.3193 33.3722 45.2143 33.7277 44.495 33.7277C44.2203 33.7277 43.8889 33.6469 43.6869 33.6146L43.7596 33.3721Z" fill="#7CBB42"/>
                                                    <path d="M46.6777 31.2872C46.9767 31.174 47.2434 31.1094 47.5344 31.1094C48.1728 31.1094 48.4233 31.4326 48.4233 32.063V33.0651H48.0516V32.063C48.0516 31.5538 47.9223 31.3357 47.5424 31.3357C47.3404 31.3357 47.1545 31.3841 47.0414 31.4165V33.057H46.6858V31.2872H46.6777Z" fill="#7CBB42"/>
                                                    <path d="M48.916 31.1579H49.2877V33.0651H48.916V31.1579ZM48.916 30.4225H49.2877V30.7377H48.916V30.4225Z" fill="#7CBB42"/>
                                                    <path d="M50.839 29.9133L51.3239 30.3902H51.0087L50.4672 29.9133H50.839ZM51.0733 31.9983C51.0733 31.5135 50.9117 31.3357 50.5642 31.3357C50.2248 31.3357 50.0713 31.5054 50.0713 31.9983H51.0733ZM50.5157 30.2689H50.7097L51.2754 30.8104H50.9521L50.6208 30.4871L50.2652 30.8104H49.95L50.5157 30.2689ZM51.3885 32.9843C51.1703 33.0247 50.8471 33.0974 50.5804 33.0974C49.8611 33.0974 49.6914 32.7014 49.6914 32.1115C49.6914 31.3761 50.0228 31.1094 50.5642 31.1094C51.1541 31.1094 51.4774 31.3841 51.4774 32.0387V32.2085H50.0713C50.0713 32.6449 50.2005 32.8711 50.5965 32.8711C50.8066 32.8711 51.1865 32.7984 51.3562 32.758L51.3885 32.9843Z" fill="#7CBB42"/>
                                                    <path d="M51.8652 31.2872C52.1804 31.1579 52.4552 31.1094 52.7219 31.1094C52.9643 31.1094 53.1583 31.1659 53.2795 31.2629C53.5785 31.1579 53.7886 31.1094 54.0391 31.1094C54.7099 31.1094 54.8634 31.4326 54.8634 32.063V33.0651H54.4917V32.063C54.4917 31.5458 54.4189 31.3357 54.031 31.3357C53.829 31.3357 53.6593 31.3761 53.4411 31.4488C53.5219 31.5862 53.5543 31.7963 53.5543 32.0549V33.057H53.1744V32.0549C53.1744 31.5377 53.1017 31.3276 52.7219 31.3276C52.536 31.3276 52.342 31.3761 52.2208 31.4084V33.0489H51.8652V31.2872Z" fill="#7CBB42"/>
                                                    <path d="M56.6977 30.6812V31.166H57.1422V31.3842H56.6977V32.4591C56.6977 32.7742 56.73 32.8712 56.8593 32.8712H56.8997C56.9482 32.8712 57.0209 32.8631 57.1422 32.8227L57.1018 33.049C56.9401 33.0975 56.8755 33.0975 56.8028 33.0975C56.3987 33.0975 56.3259 32.9116 56.3259 32.4591V31.3842H55.9219V31.166H56.3259V30.6812H56.6977Z" fill="#7CBB42"/>
                                                    <path d="M57.5059 31.1579H57.8776V33.0651H57.5059V31.1579ZM57.5059 30.4225H57.8776V30.7377H57.5059V30.4225Z" fill="#7CBB42"/>
                                                    <path d="M58.3555 31.2872C58.6626 31.174 58.9131 31.1094 59.204 31.1094C59.8586 31.1094 60.101 31.4326 60.101 32.063V33.0651H59.7212V32.063C59.7212 31.5538 59.5919 31.3357 59.204 31.3357C59.0181 31.3357 58.8404 31.3841 58.7191 31.4165V33.057H58.3636V31.2872H58.3555Z" fill="#7CBB42"/>
                                                    <path d="M61.5634 31.1578L62.1049 32.7014H62.1534L62.7029 31.1578H63.0666L62.3634 33.0651H61.8948L61.1836 31.1578H61.5634Z" fill="#7CBB42"/>
                                                    <path d="M64.9258 30.4871C64.7965 30.6083 64.6591 30.7296 64.5055 30.7296C64.2388 30.7296 64.158 30.5275 63.9641 30.5275C63.8833 30.5275 63.7782 30.6083 63.6812 30.6972L63.4953 30.576C63.657 30.4386 63.7863 30.3497 63.956 30.3497C64.2308 30.3497 64.3277 30.5275 64.4974 30.5275C64.554 30.5275 64.6833 30.4386 64.7479 30.3902L64.9258 30.4871ZM65.3944 31.0124C65.4268 31.0932 65.4268 31.174 65.4268 31.2387C65.4268 31.4165 65.3621 31.5215 65.2571 31.5619C65.2248 31.5781 65.1843 31.5943 65.1439 31.5943C65.0954 31.5943 65.0551 31.5862 65.0227 31.5619V32.9277C64.7156 33.0489 64.4571 33.1055 64.2308 33.1055C63.5762 33.1055 63.3418 32.7903 63.3418 32.1519V31.1579H63.7055V32.1519C63.7055 32.6772 63.851 32.8711 64.2308 32.8711C64.3601 32.8711 64.5459 32.8307 64.6591 32.7984V31.1579H65.0308V31.3761C65.047 31.3761 65.0551 31.3841 65.0793 31.3841C65.1197 31.3841 65.1359 31.3761 65.1763 31.3761C65.2329 31.3437 65.2733 31.2549 65.2733 31.166C65.2733 31.1175 65.2652 31.069 65.2571 31.0286L65.3944 31.0124Z" fill="#7CBB42"/>
                                                    <path d="M65.6191 31.2872C65.9343 31.174 66.1848 31.1094 66.4919 31.1094C67.1385 31.1094 67.3728 31.4326 67.3728 32.063V33.0651H67.0091V32.063C67.0091 31.5538 66.8718 31.3357 66.4919 31.3357C66.2818 31.3357 66.104 31.3841 65.9989 31.4165V33.057H65.6191V31.2872Z" fill="#7CBB42"/>
                                                    <path d="M69.1027 31.3518C69.0057 31.3518 68.8845 31.3437 68.7956 31.3518C68.2218 31.3518 68.1491 31.5943 68.1491 32.1519C68.1491 32.6125 68.2137 32.8307 68.5936 32.8307C68.7875 32.8307 68.9734 32.7822 69.0946 32.7499V31.3518H69.1027ZM67.8663 33.3721C68.133 33.4449 68.4238 33.5095 68.6259 33.5095C68.9895 33.5095 69.0946 33.3318 69.1027 32.96C68.9896 32.9923 68.7956 33.0327 68.6017 33.0327C67.9471 33.0327 67.7773 32.7337 67.7773 32.1519C67.7773 31.4569 67.9794 31.1094 68.8441 31.1094C69.0461 31.1094 69.2643 31.1417 69.4583 31.1579V32.7822C69.4583 33.3722 69.3451 33.7277 68.634 33.7277C68.3511 33.7277 68.0198 33.6469 67.8097 33.6146L67.8663 33.3721Z" fill="#7CBB42"/>
                                                    <path d="M71.3263 30.6812V31.166H71.7789V31.3842H71.3263V32.4591C71.3263 32.7742 71.3587 32.8712 71.4961 32.8712H71.5284C71.5769 32.8712 71.6496 32.8631 71.7708 32.8227L71.7223 33.049C71.5768 33.0975 71.4961 33.0975 71.4395 33.0975C71.0435 33.0975 70.9546 32.9116 70.9546 32.4591V31.3842H70.5586V31.166H70.9546V30.6812H71.3263Z" fill="#7CBB42"/>
                                                    <path d="M74.138 31.0123C74.1704 31.0931 74.1704 31.174 74.1704 31.2386C74.1704 31.4164 74.1057 31.5214 74.0088 31.5619C73.9683 31.578 73.9279 31.5942 73.8875 31.5942C73.8552 31.5942 73.8148 31.5861 73.7744 31.5619V32.9276C73.4673 33.0488 73.2168 33.1054 72.9743 33.1054C72.3278 33.1054 72.1016 32.7902 72.1016 32.1518V31.1578H72.4652V32.1518C72.4652 32.6771 72.5945 32.871 72.9743 32.871C73.1117 32.871 73.2976 32.8306 73.4269 32.7983V31.1578H73.7905V31.376C73.7986 31.376 73.8229 31.3841 73.839 31.3841C73.8552 31.3841 73.8956 31.376 73.9199 31.376C73.9926 31.3437 74.0168 31.2548 74.0168 31.1659C74.0168 31.1174 74.0168 31.0689 74.0007 31.0285L74.138 31.0123Z" fill="#7CBB42"/>
                                                    <path d="M75.7694 32.0791C75.7694 31.5295 75.5592 31.3437 75.2117 31.3437C74.8077 31.3437 74.6622 31.4972 74.6622 32.071C74.6622 32.6852 74.7592 32.8791 75.2117 32.8791C75.6885 32.871 75.7694 32.6448 75.7694 32.0791ZM76.3351 31.0123C76.3674 31.0931 76.3836 31.174 76.3836 31.2386C76.3836 31.4164 76.3108 31.5214 76.2057 31.5619C76.1573 31.5942 76.133 31.5942 76.0926 31.5942H76.0603C76.1169 31.7235 76.1411 31.877 76.1411 32.0791C76.1411 32.766 75.9472 33.1054 75.2198 33.1054C74.5168 33.1054 74.3066 32.8225 74.3066 32.0629C74.3066 31.3841 74.5895 31.1093 75.2198 31.1093C75.5269 31.1093 75.7613 31.1982 75.9229 31.376C75.9472 31.3841 75.9876 31.3841 76.0199 31.3841C76.0522 31.3841 76.0926 31.376 76.1169 31.376C76.1653 31.3356 76.2219 31.2467 76.2219 31.1578C76.2219 31.1093 76.2139 31.0608 76.1977 31.0204L76.3351 31.0123Z" fill="#7CBB42"/>
                                                    <path d="M76.5781 31.2872C76.861 31.174 77.1276 31.1094 77.4267 31.1094C78.0893 31.1094 78.3156 31.4326 78.3156 32.063V33.0651H77.9358V32.063C77.9358 31.5538 77.8146 31.3357 77.4267 31.3357C77.2327 31.3357 77.0468 31.3841 76.9337 31.4165V33.057H76.5781V31.2872Z" fill="#7CBB42"/>
                                                    <path d="M80.0544 31.3518C79.9574 31.3518 79.8281 31.3437 79.7473 31.3518C79.1735 31.3518 79.0927 31.5943 79.0927 32.1519C79.0927 32.6125 79.1735 32.8307 79.5533 32.8307C79.7392 32.8307 79.9251 32.7822 80.0544 32.7499V31.3518ZM78.826 33.3721C79.0766 33.4449 79.3675 33.5095 79.5776 33.5095C79.9574 33.5095 80.0625 33.3318 80.0625 32.96C79.9251 32.9923 79.7392 33.0327 79.5533 33.0327C78.8826 33.0327 78.7129 32.7337 78.7129 32.1519C78.7129 31.4569 78.923 31.1094 79.7958 31.1094C80.0059 31.1094 80.216 31.1417 80.41 31.1579V32.7822C80.41 33.3722 80.2968 33.7277 79.5695 33.7277C79.2947 33.7277 78.9796 33.6469 78.7614 33.6146L78.826 33.3721Z" fill="#7CBB42"/>
                                                    <path d="M82.1293 30.3901H81.7656V33.057H82.1293V30.3901Z" fill="#7CBB42"/>
                                                    <path d="M83.7797 32.1115L83.2382 32.168C82.9715 32.2004 82.8988 32.3135 82.8988 32.5236C82.8988 32.7337 83.0039 32.8711 83.1897 32.8792C83.4079 32.8792 83.6342 32.8307 83.7797 32.7984V32.1115ZM82.6806 31.174C82.9635 31.1498 83.2059 31.1094 83.4241 31.1094C83.9333 31.1094 84.1514 31.3518 84.1514 31.7397V32.9277C83.9332 32.9923 83.5938 33.0974 83.1736 33.0974C82.7937 33.0974 82.5352 32.8792 82.5352 32.5155C82.5352 32.2004 82.7372 31.9822 83.214 31.9418L83.7878 31.8852V31.7236C83.7878 31.4569 83.6746 31.3437 83.4322 31.3437C83.2463 31.3437 83.0119 31.368 82.7291 31.3922L82.6806 31.174Z" fill="#7CBB42"/>
                                                    <path d="M84.6348 31.1579H84.9984V33.0651H84.6348V31.1579ZM84.6348 30.4225H84.9984V30.7377H84.6348V30.4225Z" fill="#7CBB42"/>
                                                    <path fill-rule="evenodd" clip-rule="evenodd" d="M64.1907 0.238525C62.833 0.513292 62.34 1.12748 62.3885 2.00835C62.4532 3.25288 63.8189 5.61262 64.4735 6.67128C65.613 8.51383 66.9626 10.1786 68.4576 11.7141C69.6698 12.9182 70.4376 13.1768 71.7306 11.3989C72.8377 9.93616 73.8641 8.4896 74.7369 6.67937C75.1248 5.8874 75.4804 5.0146 75.7955 4.04484C76.1349 2.90537 76.0137 1.90329 74.8985 1.1598C75.9733 1.68509 76.442 2.64677 76.5066 3.70542C76.5713 4.73176 76.2642 5.84698 76.0299 6.67128C75.448 8.72395 74.6964 10.7928 73.7509 12.6515C73.0398 14.0577 72.1265 15.7467 71.2134 16.9912C69.2011 19.7631 67.2697 18.8661 65.0069 16.9912C63.5765 15.8032 62.1946 14.3001 61.0147 12.6596C59.8186 11.0029 58.5014 8.54616 57.7175 6.66321C56.6507 4.08525 57.4831 2.75991 58.8004 1.91945C60.2631 0.998175 62.437 0.480966 64.1907 0.238525Z" fill="url(#paint0_linear)"/>
                                                    <path fill-rule="evenodd" clip-rule="evenodd" d="M64.1421 6.12182C66.2352 5.80664 71.6821 5.46723 73.5893 6.46123C74.2277 6.79257 74.2439 7.23704 74.1792 7.74617C74.3732 7.39867 74.5591 7.04309 74.7368 6.67134C75.1248 5.87937 75.4803 5.00659 75.7955 4.03682C76.1349 2.89735 76.0137 1.89527 74.8984 1.15179H74.8903C74.4782 0.933589 74.0014 0.780034 73.5731 0.650733C72.3124 0.287071 70.9143 0.13353 69.5163 0.0365536C68.9344 -0.00385317 68.3283 -0.00386008 67.7141 0.00422128C66.607 0.00422128 65.3867 0.0769604 64.1745 0.238588C62.8249 0.513354 62.3238 1.12754 62.3723 2.00841C62.4451 3.06707 63.4471 4.94194 64.1421 6.12182Z" fill="url(#paint1_linear)"/>
                                                    <path fill-rule="evenodd" clip-rule="evenodd" d="M58.671 28.8385C59.762 28.7092 60.6913 28.1515 61.0065 26.4949C61.2085 25.4362 61.1762 23.731 60.8853 22.737C60.7479 22.2764 60.5378 21.8804 60.2307 21.6299C59.7135 21.2016 59.1478 21.1288 58.6467 21.1046C57.7982 21.0723 57.3456 21.2177 56.7314 21.7107C56.6102 21.8077 56.5132 21.8481 56.5132 21.6784L56.4971 18.1468L54.5414 18.1791L54.5495 28.297C55.3818 28.8627 57.6851 28.9516 58.671 28.8385ZM6.25524 28.6445C6.66739 28.6445 6.5866 28.6768 6.83712 28.3374C8.53421 26.01 10.1424 21.04 10.1182 18.268C9.32618 18.2357 8.5261 18.365 7.72605 18.559C6.95832 23.1088 6.28758 24.3048 5.05921 26.6242C3.83084 24.3048 3.1601 23.1007 2.39237 18.559C1.59232 18.365 0.792244 18.2357 0.000270681 18.268C-0.0239734 21.04 1.58422 26.01 3.2813 28.3374C3.53182 28.6768 3.45104 28.6445 3.86319 28.6445H6.25524ZM62.4369 21.4763L62.6227 23.2542C63.3985 23.1815 64.0289 22.9795 64.8371 22.9148C66.0574 22.8744 66.8412 22.8421 66.8008 23.723C65.8876 23.723 64.9664 23.723 64.0128 23.731C62.8652 23.7391 61.9035 24.2886 62.0328 26.6322C62.1864 29.4446 65.524 29.2345 67.0514 28.1111V28.7415H68.8212C68.7727 25.8726 68.9828 22.8582 68.4656 22.042C67.4797 20.4823 64.2471 21.0561 62.4369 21.4763ZM20.6966 28.4021C20.632 27.8202 20.5673 27.2464 20.5027 26.6646C19.7026 26.8181 18.3288 27.0121 17.5207 26.9878C16.5913 26.9555 16.2438 26.511 16.2438 25.1776C16.5428 25.517 16.955 25.7514 17.4803 25.7595C18.7005 25.7756 19.84 25.7918 21.0361 25.7514C21.0926 23.5371 21.2785 21.6056 19.0723 21.1288C18.1753 20.9349 16.9792 20.943 16.1307 21.1935C15.1932 21.4683 14.7326 21.9127 14.4659 22.8421C13.9649 24.5796 14.1023 27.1575 15.2256 28.1434C16.4944 29.291 19.0804 28.8869 20.6966 28.4021ZM17.1328 22.8502H18.1106C18.5955 22.8502 18.9996 23.2462 18.9996 23.7391V24.1351H16.2438V23.7391C16.2438 23.2462 16.6479 22.8502 17.1328 22.8502ZM79.626 28.7253L79.6906 25.4685C79.6906 25.2665 79.8684 25.5332 79.9169 25.614C80.5634 26.6969 81.1533 27.505 82.115 28.4667C82.3817 28.7334 82.4382 28.7172 82.9231 28.7172H84.9758C83.4808 27.4808 82.6484 26.4949 81.8483 24.9917C81.6867 24.6442 81.6948 24.6846 81.9291 24.3614C82.2281 24.022 82.5999 23.5533 83.012 23.0845L84.7576 21.0319C84.7657 21.0157 84.7738 20.9995 84.7819 20.9834H82.9231C82.5837 20.9834 82.5918 20.9349 82.3575 21.1935C81.6463 21.9612 80.8382 22.8502 80.1836 23.5694C80.1028 23.6583 80.0058 23.7229 79.925 23.7795C79.6583 23.9735 79.7067 23.925 79.7067 23.6422L79.6906 18.1145L77.7107 18.1307L77.6864 28.7172H79.626V28.7253ZM33.6996 28.4748L33.5298 26.7535C32.6409 26.8262 31.6954 27.0767 30.7418 26.9636C29.7963 26.8585 29.675 26.3575 29.667 25.5817C29.6589 25.113 29.6508 24.5877 29.6751 24.127C29.7155 23.4967 29.9013 23.0845 30.7418 22.9956C31.6954 22.8906 32.6328 23.133 33.5298 23.2057L33.6996 21.4763C30.2973 20.6682 28.1719 21.0723 27.7032 23.7068C27.6062 24.2563 27.6466 26.0746 27.784 26.5918C28.3901 28.9112 30.467 29.2344 33.6996 28.4748ZM23.0241 21.1046C22.6119 21.1046 22.1917 21.1046 21.7796 21.1046C21.7796 21.7107 21.7715 22.3249 21.7715 22.931C22.1998 22.931 22.5958 22.9391 23.0241 22.9391C23.0241 23.5533 23.0241 24.2159 23.016 24.8301C23.016 25.4847 23.0079 26.0989 23.016 26.6322C23.0241 27.4081 23.1696 28.0707 23.6059 28.4182C23.7918 28.5637 24.0504 28.6445 24.3817 28.6768C25.1495 28.7657 26.1192 28.7253 26.7738 28.5071C26.7496 27.9818 26.7334 27.4646 26.7092 26.9393C25.9414 27.0121 25.004 27.1818 25.0121 26.7858C25.0121 25.4524 25.0121 24.2725 25.0121 22.9391C25.6263 22.9391 26.2081 22.931 26.8223 22.931C26.8223 22.3249 26.8223 21.7188 26.8223 21.1046C26.2243 21.1046 25.6182 21.0965 25.0202 21.0965C25.0202 20.4904 25.0202 19.8843 25.0202 19.2782C24.3575 19.2782 23.6948 19.2782 23.0322 19.2782C23.0241 19.8924 23.0241 20.4985 23.0241 21.1046ZM10.8778 28.7253L12.8093 28.7657L12.882 21.1288L10.8697 21.1369L10.8778 28.7253ZM37.2311 20.9995H38.9686C40.3263 20.9995 41.4334 22.1067 41.4334 23.4644V26.3817C41.4334 27.7394 40.3263 28.8465 38.9686 28.8465H37.2311C35.8734 28.8465 34.7663 27.7394 34.7663 26.3817V23.4644C34.7744 22.1067 35.8815 20.9995 37.2311 20.9995ZM37.611 22.8502C37.118 22.8502 36.722 23.2462 36.722 23.7391V26.107C36.722 26.5918 37.118 26.9959 37.611 26.9959H38.5888C39.0737 26.9959 39.4778 26.5918 39.4778 26.107V23.7391C39.4778 23.2542 39.0817 22.8502 38.5888 22.8502H37.611ZM44.666 28.7253C44.6821 26.7777 44.6983 24.8382 44.7225 22.8906C45.2074 22.8906 45.6923 22.8906 46.1772 22.8906C46.5651 22.8906 46.9449 23.1411 46.9449 23.5532V23.8199L46.953 28.7253H48.9087L48.9653 22.8825C49.4986 22.8825 50.032 22.8825 50.5573 22.8825C51.026 22.8825 51.3331 23.1492 51.3331 23.5937L51.3412 28.7172H53.2726L53.3373 23.2057C53.3534 22.034 52.7069 21.0642 51.3735 21.0723C50.9533 21.0723 50.533 21.0803 50.1128 21.0803C49.4744 21.0884 49.135 21.2016 48.7471 21.6056C48.4561 21.9127 48.5935 21.9127 48.3268 21.6299C47.9308 21.2096 47.4621 21.0723 46.8641 21.0723C46.5651 21.0723 46.2661 21.0723 45.9752 21.0723C45.4337 21.0965 45.0862 21.2662 44.6822 21.6784C44.3589 22.0016 44.3993 22.1148 44.3993 21.5976C44.3993 21.4359 44.3993 21.2824 44.3993 21.1208C43.8497 21.1208 43.284 21.1288 42.7345 21.1288C42.7345 23.6583 42.7426 26.1878 42.7426 28.7172H44.666V28.7253ZM72.0456 28.7253C72.0618 26.7777 72.086 24.8382 72.1022 22.8906C72.5952 22.8906 73.0801 22.8906 73.573 22.8906C74.0094 22.8986 74.3488 23.1573 74.3488 23.5937C74.3488 25.3069 74.3488 27.0121 74.3569 28.7253C75.0196 28.7253 75.6742 28.7253 76.3368 28.7253C76.353 27.0282 76.3692 25.3231 76.3853 23.626C76.4015 22.2764 75.8681 21.0884 74.268 21.0884C73.969 21.0884 73.6619 21.0884 73.3629 21.0884C72.8295 21.1127 72.482 21.2743 72.086 21.6541C71.7466 21.9855 71.7547 22.1633 71.7547 21.638V21.1288H70.0657C70.0657 23.6583 70.0738 26.1958 70.0738 28.7253C70.7365 28.7253 71.391 28.7253 72.0456 28.7253ZM64.6916 25.4362C65.4108 25.4362 66.1301 25.4362 66.8493 25.4362C66.8493 25.808 66.8493 26.1878 66.8493 26.5595C66.8493 27.0282 65.4917 27.0444 64.6269 27.0282C63.9885 27.0121 64.0693 27.0282 64.037 26.4625C64.0289 26.2524 64.037 26.0423 64.037 25.8322C64.0289 25.4039 64.1178 25.4362 64.6916 25.4362ZM59.0751 24.0785V25.121V26.1716C59.0751 26.6565 58.679 27.0606 58.1861 27.0606C57.8547 27.0606 57.5234 27.0606 57.184 27.0606C56.489 27.0606 56.4809 27.0686 56.4809 26.0746V25.121V23.828C56.4809 22.834 56.489 22.8421 57.184 22.8421C57.5153 22.8421 57.8467 22.8421 58.1861 22.8421C58.671 22.8421 59.0751 23.2381 59.0751 23.731V24.0785Z" fill="#0D4624"/>
                                                    <defs>
                                                    <linearGradient id="paint0_linear" x1="74.1796" y1="12.0308" x2="58.8031" y2="1.26413" gradientUnits="userSpaceOnUse">
                                                    <stop stop-color="#026A42"/>
                                                    <stop offset="0.4" stop-color="#027C49"/>
                                                    <stop offset="1" stop-color="#86C442"/>
                                                    </linearGradient>
                                                    <linearGradient id="paint1_linear" x1="64.5351" y1="0.14201" x2="73.6341" y2="6.51329" gradientUnits="userSpaceOnUse">
                                                    <stop stop-color="#026A42"/>
                                                    <stop offset="0.3" stop-color="#027C49"/>
                                                    <stop offset="1" stop-color="#86C442"/>
                                                    </linearGradient>
                                                    </defs>
                                                    </svg>