<svg width="90" height="27" viewBox="0 0 90 27" fill="none" xmlns="http://www.w3.org/2000/svg">
                                                    <path fill-rule="evenodd" clip-rule="evenodd" d="M0 9.18396C0.290914 9.2472 0.581811 9.20926 0.872724 9.21558C1.99211 9.22191 3.11151 9.24088 4.2309 9.20926C4.8064 9.19661 5.31866 9.35472 5.81195 9.62033C6.98825 10.2654 7.93056 11.1951 8.85389 12.1374C9.60647 12.9026 10.3337 13.6868 11.08 14.4584C11.1938 14.5785 11.2571 14.6923 11.2571 14.8694C11.2381 16.3936 11.2255 17.9177 11.2255 19.4418C11.2255 19.7327 11.1053 19.7201 10.8966 19.6505C10.1314 19.3976 9.50528 18.9169 8.90448 18.3983C7.63963 17.2979 6.52026 16.0584 5.3566 14.8568C3.55421 13.0038 1.86564 11.0433 0 9.25353C0 9.23455 0 9.20926 0 9.18396Z" fill="#E9262A"/>
                                                    <path fill-rule="evenodd" clip-rule="evenodd" d="M16.8043 0.646335C16.7474 0.766495 16.7727 0.892981 16.7727 1.01314C16.7727 2.78392 16.7538 4.5547 16.7791 6.32548C16.798 7.71048 16.3743 8.90575 15.413 9.91763C14.2873 11.1003 13.1742 12.3019 12.0612 13.4908C11.9284 13.4276 11.9853 13.3264 11.9853 13.2505C11.979 10.822 11.9853 8.39982 11.9727 5.97133C11.9727 5.71836 12.1118 5.58555 12.2572 5.43377C13.7497 3.83374 15.2423 2.24004 16.7348 0.640015C16.7601 0.646339 16.7854 0.646335 16.8043 0.646335Z" fill="#E9262A"/>
                                                    <path fill-rule="evenodd" clip-rule="evenodd" d="M84.6433 15.6916C84.2701 15.9951 83.897 16.3113 83.3848 16.3682C83.3848 15.4639 83.3848 14.5532 83.3848 13.6488C84.1373 12.871 84.8899 12.0931 85.6488 11.3152C85.8196 11.1381 86.0157 10.98 86.2054 10.8219C86.7366 10.3792 87.3184 10.1326 88.0394 10.1895C88.6908 10.2401 89.3485 10.2021 89.9999 10.2021C89.9999 10.2274 89.9999 10.2464 89.9999 10.2717C89.3675 10.8219 88.8109 11.4543 88.2165 12.0488C87.5271 12.7381 86.8504 13.4465 86.1674 14.1421C85.6046 14.6038 85.0923 15.1224 84.6433 15.6916Z" fill="#E9262A"/>
                                                    <path fill-rule="evenodd" clip-rule="evenodd" d="M6.17823 24.0332C6.16559 23.9384 6.16558 23.7992 6.13396 23.6727C6.03277 23.2617 5.72289 23.0024 5.34977 23.0087C4.98296 23.015 4.71102 23.249 4.59718 23.6664C4.52129 23.9384 4.52761 24.204 4.59085 24.4696C4.69836 24.9123 4.98929 25.1652 5.39404 25.1463C5.79246 25.1336 6.08337 24.849 6.15926 24.4127C6.17191 24.2988 6.17191 24.185 6.17823 24.0332ZM4.74265 26.74C4.53395 26.5629 4.2367 26.4744 4.16081 26.1708C4.12919 26.057 4.01536 25.8672 4.18611 25.823C4.31892 25.785 4.5213 25.785 4.64146 25.9495C4.9134 26.3226 5.25491 26.4301 5.69128 26.272C6.05176 26.1392 6.1719 25.8672 6.10866 25.3234C5.25489 25.6965 4.69205 25.6206 4.29994 25.0767C3.86357 24.4696 3.91417 23.4514 4.40113 22.9328C4.83118 22.4775 5.48889 22.4522 6.15293 22.8759C6.14661 22.5597 6.36795 22.6229 6.54503 22.6356C6.76638 22.6545 6.67784 22.8379 6.68416 22.9518C6.69049 23.7044 6.67152 24.4633 6.69049 25.2222C6.70947 25.9115 6.51975 26.4617 5.83041 26.74C5.46361 26.74 5.10313 26.74 4.74265 26.74Z" fill="#EC2D32"/>
                                                    <path fill-rule="evenodd" clip-rule="evenodd" d="M26.5302 24.0776C26.5429 24.2167 26.5492 24.3495 26.5745 24.4823C26.6504 24.8681 26.9539 25.1337 27.3207 25.1464C27.7065 25.159 28.0227 24.9124 28.1176 24.5076C28.1808 24.2294 28.1872 23.9511 28.1239 23.6728C28.0291 23.2618 27.7002 22.9898 27.3081 23.0088C26.935 23.0214 26.6377 23.2997 26.5682 23.7108C26.5429 23.8309 26.5429 23.9574 26.5302 24.0776ZM26.701 26.7401C26.5239 26.5504 26.2267 26.4808 26.1444 26.1836C26.1128 26.0571 26.0116 25.8737 26.1508 25.8231C26.2836 25.7788 26.4986 25.7915 26.6124 25.9306C26.935 26.3227 27.2132 26.4239 27.6496 26.2721C27.9848 26.1583 28.1176 25.9179 28.1239 25.4246C28.1239 25.3804 28.1239 25.3361 28.1239 25.2602C27.9342 25.3677 27.7824 25.4942 27.58 25.5385C27.0614 25.6586 26.5429 25.4689 26.2519 25.0262C25.8978 24.4887 25.8978 23.6286 26.2519 23.0973C26.6567 22.4902 27.4093 22.3954 28.1555 22.8886C28.1302 22.5788 28.3389 22.6104 28.5223 22.6293C28.7563 22.6483 28.6552 22.8317 28.6552 22.9392C28.6615 23.6981 28.6488 24.4507 28.6615 25.2096C28.6741 25.9053 28.497 26.4745 27.7761 26.7338C27.4219 26.7401 27.0615 26.7401 26.701 26.7401Z" fill="#ED2830"/>
                                                    <path fill-rule="evenodd" clip-rule="evenodd" d="M87.6788 24.0332C87.6914 24.1914 87.6914 24.3242 87.7167 24.457C87.8053 24.8744 88.0962 25.1337 88.4756 25.14C88.874 25.1463 89.1649 24.8997 89.2725 24.457C89.342 24.1661 89.3357 23.8751 89.2535 23.5906C89.1397 23.2237 88.8361 22.9898 88.4819 22.9961C88.1278 23.0024 87.8432 23.2301 87.742 23.6158C87.6977 23.7613 87.6978 23.9068 87.6788 24.0332ZM87.9001 26.74C87.6851 26.5566 87.3689 26.4934 87.293 26.1645C87.2677 26.0507 87.1602 25.8862 87.2866 25.8293C87.4258 25.7724 87.6408 25.7914 87.7547 25.9179C88.1215 26.3289 88.463 26.4364 88.8804 26.2467C89.1902 26.1013 89.3041 25.7914 89.2345 25.2791C88.7349 25.6649 88.2163 25.6902 87.7041 25.3487C87.2298 25.0325 87.0211 24.2672 87.1918 23.6032C87.4574 22.5787 88.4124 22.2561 89.3167 22.9202C89.2788 22.6609 89.4116 22.6229 89.6203 22.6293C89.8733 22.6356 89.81 22.8 89.81 22.9328C89.81 23.7234 89.7974 24.5139 89.8163 25.2981C89.829 25.9811 89.6013 26.4997 88.9183 26.7337C88.5768 26.74 88.2416 26.74 87.9001 26.74Z" fill="#ED2830"/>
                                                    <path fill-rule="evenodd" clip-rule="evenodd" d="M52.4667 9.48751C52.4667 9.83534 52.4667 10.1832 52.4667 10.5373C52.4667 11.2077 52.4667 11.2203 53.1308 11.2077C53.877 11.195 54.6233 11.2773 55.3569 11.1571C56.2739 11.0053 56.8494 10.2464 56.7988 9.29146C56.7482 8.40607 56.1917 7.90645 55.2178 7.82424C54.3956 7.75467 53.5735 7.77997 52.7513 7.76099C52.4983 7.75467 52.4541 7.84321 52.4604 8.07088C52.4794 8.53887 52.4667 9.01319 52.4667 9.48751ZM52.492 15.2172C52.492 15.837 52.492 16.4568 52.492 17.0829C52.492 17.1967 52.4541 17.3358 52.6628 17.3358C53.7695 17.3105 54.8699 17.3611 55.9767 17.2916C56.9126 17.2347 57.798 16.1912 57.4945 15.0085C57.2352 13.984 56.4573 13.5223 55.5213 13.2757C54.579 13.0291 53.6114 13.1555 52.6564 13.1302C52.4541 13.1239 52.492 13.2757 52.492 13.3895C52.492 13.9967 52.492 14.6101 52.492 15.2172ZM57.4059 12.0172C58.6961 12.5737 59.4929 13.4844 59.8344 14.7556C60.4605 17.0955 59.1894 18.9801 56.7482 19.3533C56.1917 19.4418 55.6288 19.4734 55.066 19.4734C53.5545 19.4798 52.043 19.4671 50.5252 19.4798C50.2849 19.4798 50.2216 19.4102 50.2216 19.1762C50.2216 14.7935 50.2216 10.4172 50.209 6.03449C50.209 5.80681 50.2532 5.7246 50.4999 5.73093C52.1695 5.74358 53.8391 5.73092 55.515 5.73725C56.1917 5.74357 56.8368 5.90168 57.4249 6.23054C58.6834 6.9262 59.1451 8.03293 59.0565 9.43058C58.9933 10.5879 58.5 11.4607 57.4059 12.0172Z" fill="#068547"/>
                                                    <path fill-rule="evenodd" clip-rule="evenodd" d="M41.6128 9.99979C41.6128 10.6449 41.6128 11.2836 41.6128 11.9287C41.6128 12.0678 41.6128 12.1627 41.8026 12.1627C42.669 12.1563 43.5417 12.1943 44.4018 12.0868C45.6414 11.9287 46.3433 11.1065 46.2991 9.88595C46.2611 8.71597 45.5022 7.98237 44.269 7.88751C43.4722 7.82427 42.669 7.86221 41.8721 7.84324C41.6508 7.83691 41.6128 7.91281 41.6128 8.11518C41.6192 8.74128 41.6128 9.36737 41.6128 9.99979ZM39.1337 12.5927C39.1337 10.4235 39.1401 8.26063 39.1274 6.09143C39.1274 5.81316 39.197 5.73095 39.4816 5.73727C41.2966 5.76257 43.1117 5.7183 44.933 5.79419C47.0769 5.88905 48.4619 7.23611 48.6074 9.38634C48.677 10.4172 48.5378 11.3848 48.0193 12.2892C47.3805 13.4149 46.3876 13.984 45.1165 14.1422C44.073 14.275 43.0231 14.275 41.9733 14.256C41.7077 14.2497 41.6381 14.3255 41.6381 14.5912C41.6508 16.1153 41.6381 17.6394 41.6508 19.1636C41.6508 19.4102 41.6002 19.4988 41.3346 19.4861C40.7021 19.4671 40.0697 19.4608 39.4373 19.4861C39.1717 19.4924 39.1211 19.4039 39.1211 19.1572C39.1401 16.9691 39.1337 14.7809 39.1337 12.5927Z" fill="#0F8648"/>
                                                    <path fill-rule="evenodd" clip-rule="evenodd" d="M32.2217 16.9755C32.9743 15.1162 33.5941 13.2821 34.0811 11.4039C34.5364 9.64572 34.8842 7.86229 35.0423 6.05357C35.0676 5.78795 35.1562 5.69941 35.4281 5.70573C36.0605 5.73103 36.693 5.71839 37.3254 5.71206C37.5151 5.70574 37.5467 5.76266 37.5214 5.94606C36.9775 9.79118 36.0416 13.5288 34.4921 17.0956C34.1822 17.8103 33.8534 18.5123 33.5055 19.2079C33.4233 19.3724 33.3348 19.4356 33.1451 19.4356C32.4873 19.4229 31.836 19.4166 31.1782 19.4356C30.9506 19.4419 30.8431 19.366 30.7419 19.1637C29.4075 16.6276 28.4652 13.9462 27.7758 11.1698C27.3458 9.44966 27.0169 7.71683 26.745 5.96503C26.7133 5.74368 26.764 5.70573 26.9727 5.70573C27.5924 5.71838 28.2185 5.73103 28.832 5.69941C29.1545 5.68044 29.2241 5.81325 29.262 6.08519C29.4644 7.58403 29.7363 9.06389 30.0842 10.5374C30.5648 12.6118 31.1846 14.6482 32.0447 16.6024C32.0953 16.7162 32.1458 16.8174 32.2217 16.9755Z" fill="#058447"/>
                                                    <path fill-rule="evenodd" clip-rule="evenodd" d="M71.3305 14.6544C71.3305 13.1746 71.3369 11.6947 71.3242 10.2149C71.3242 9.96821 71.3748 9.87334 71.6404 9.88599C72.0705 9.91129 72.5005 9.89232 72.9243 9.89232C73.348 9.89864 73.4365 9.98086 73.4618 10.4046C73.4681 10.4805 73.4745 10.5627 73.4745 10.6386C73.4745 10.8789 73.544 10.9105 73.7464 10.7714C74.6065 10.1832 75.5488 9.7848 76.5986 9.72788C78.3884 9.63935 79.2485 10.4109 79.2738 12.1943C79.3054 14.528 79.2801 16.8679 79.2864 19.2079C79.2864 19.4039 79.2232 19.4608 79.0334 19.4545C78.382 19.4482 77.7243 19.4419 77.0729 19.4545C76.8263 19.4608 76.782 19.3723 76.782 19.1446C76.7883 16.9628 76.7883 14.7873 76.7883 12.6054C76.7883 11.758 76.3267 11.3912 75.4982 11.5746C74.929 11.701 74.4168 11.9603 73.9108 12.2323C73.7274 12.3335 73.7527 12.4852 73.7527 12.637C73.7527 14.7809 73.7464 16.9248 73.7591 19.0751C73.7591 19.3533 73.6958 19.4419 73.4112 19.4292C72.8357 19.4039 72.2602 19.4103 71.6847 19.4292C71.4128 19.4419 71.3242 19.3723 71.3242 19.0814C71.3369 17.6142 71.3305 16.1343 71.3305 14.6544Z" fill="#068547"/>
                                                    <path fill-rule="evenodd" clip-rule="evenodd" d="M67.163 15.8814C67.163 15.6221 67.1376 15.3628 67.1692 15.1035C67.2009 14.8379 67.0807 14.7747 66.853 14.781C66.5684 14.7873 66.2902 14.781 66.0056 14.7747C64.5068 14.7684 63.8238 15.4134 64.0325 16.6909C64.0451 16.7668 64.0388 16.849 64.0514 16.9249C64.1716 17.7281 64.7218 18.0949 65.4997 17.8988C65.9171 17.7913 66.2902 17.5826 66.6444 17.3423C67.0048 17.102 67.2578 16.83 67.163 16.3494C67.1377 16.2039 67.163 16.0395 67.163 15.8814ZM67.2578 18.3858C66.6823 18.9044 66.0752 19.3218 65.3416 19.5178C64.7598 19.6759 64.1652 19.7392 63.5708 19.6127C62.6411 19.4166 62.0214 18.8664 61.7874 17.9241C61.5976 17.1463 61.5407 16.3684 61.7874 15.5905C62.1479 14.4395 63.0585 13.9525 64.1273 13.6679C65.0253 13.4276 65.9487 13.3644 66.8784 13.3391C67.0997 13.3328 67.1946 13.2758 67.1566 13.0545C67.1503 13.0229 67.1566 12.9849 67.1566 12.9533C67.1566 11.8149 66.6254 11.309 65.4807 11.3975C64.5953 11.4671 63.7416 11.6568 62.9321 12.03C62.736 12.1248 62.6728 12.0869 62.6032 11.8845C62.4767 11.5493 62.3123 11.2268 62.1668 10.8979C62.0593 10.645 62.0719 10.4679 62.3945 10.3604C63.7226 9.93033 65.057 9.59515 66.4673 9.65207C66.9416 9.67104 67.4159 9.73428 67.8713 9.86709C68.8578 10.1643 69.2879 10.9169 69.4649 11.8592C69.5219 12.1565 69.5345 12.46 69.5345 12.7699C69.5282 14.3257 69.5282 15.8877 69.5345 17.4435C69.5345 18.0316 69.5029 18.6198 69.5978 19.2016C69.6294 19.404 69.5788 19.4799 69.3574 19.4736C68.8831 19.4546 68.4088 19.4546 67.9345 19.4736C67.7258 19.4799 67.6309 19.3914 67.555 19.2206C67.4286 18.9676 67.3527 18.6894 67.2578 18.3858Z" fill="#068547"/>
                                                    <path fill-rule="evenodd" clip-rule="evenodd" d="M23.2355 9.2157C22.5904 9.87974 21.9959 10.4805 21.4141 11.094C19.365 13.2695 17.3413 15.4767 15.2164 17.5826C14.6219 18.1708 14.0021 18.7273 13.2938 19.1827C13.0092 19.3661 12.712 19.5305 12.3894 19.6317C12.0163 19.7518 12.01 19.7455 12.0037 19.3661C11.9973 18.2909 11.9973 17.2222 11.991 16.147C11.991 16.0332 12.0037 15.9194 11.991 15.8119C11.8582 15.015 12.1175 14.4268 12.7183 13.8577C13.882 12.7573 14.8938 11.5051 16.146 10.4932C16.4369 10.2592 16.7405 10.0442 17.0504 9.8418C17.7081 9.41176 18.4038 9.17776 19.2133 9.20938C20.4212 9.25997 21.6291 9.22203 22.837 9.22203C22.9509 9.21571 23.0584 9.2157 23.2355 9.2157Z" fill="#E9262A"/>
                                                    <path fill-rule="evenodd" clip-rule="evenodd" d="M6.37513 0.659058C6.91269 1.22824 7.41231 1.74683 7.9056 2.26541C8.93012 3.34685 9.95464 4.42829 10.9855 5.5034C11.1056 5.62989 11.2005 5.74372 11.2005 5.93977C11.1942 8.41254 11.1942 10.8853 11.1942 13.3581C11.1942 13.3897 11.1815 13.4213 11.1689 13.5225C10.7894 13.1241 10.429 12.7573 10.0811 12.3841C9.21471 11.4671 8.32932 10.5628 7.4882 9.61414C6.74827 8.77934 6.36881 7.81174 6.35616 6.71765C6.33719 4.76347 6.34983 2.80929 6.34983 0.855107C6.35615 0.817161 6.36248 0.772893 6.37513 0.659058Z" fill="#E9262A"/>
                                                    <path fill-rule="evenodd" clip-rule="evenodd" d="M83.3847 13.6489C83.3847 14.5532 83.3847 15.4639 83.3847 16.3683C83.3784 17.3169 83.3657 18.2655 83.3784 19.2141C83.3784 19.4355 83.3152 19.4987 83.0938 19.4924C82.4741 19.4798 81.8543 19.4671 81.2345 19.4924C80.9436 19.5051 80.9183 19.3912 80.9183 19.1509C80.9246 14.9516 80.9246 10.7524 80.9246 6.55309C80.9246 6.28747 80.8044 5.93331 80.9815 5.7752C81.1333 5.6424 81.4748 5.73094 81.7341 5.73094C82.1894 5.73094 82.6385 5.74359 83.0875 5.72462C83.3341 5.71197 83.3784 5.80051 83.3784 6.02818C83.3721 8.43138 83.3721 10.8346 83.3721 13.2441C83.3721 13.3769 83.3847 13.516 83.3847 13.6489Z" fill="#008446"/>
                                                    <path fill-rule="evenodd" clip-rule="evenodd" d="M84.6426 15.6916C85.0916 15.1225 85.6039 14.5976 86.1667 14.1422C87.3304 15.9067 88.494 17.6711 89.683 19.4798C88.7407 19.4798 87.849 19.4798 86.9636 19.4798C86.7802 19.4798 86.7549 19.3344 86.6917 19.2269C86.015 18.0442 85.2624 16.9059 84.6426 15.6916Z" fill="#068547"/>
                                                    <path fill-rule="evenodd" clip-rule="evenodd" d="M43.1696 22.4648C43.1696 23.4703 43.1633 24.3747 43.1759 25.2727C43.1822 25.5004 43.138 25.5826 42.885 25.589C42.632 25.589 42.6194 25.4751 42.6194 25.2854C42.6257 24.147 42.6194 23.0087 42.6257 21.864C42.6257 21.7502 42.5245 21.5478 42.7206 21.5288C42.9103 21.5162 43.1443 21.415 43.3024 21.6553C43.7072 22.2624 44.1309 22.8632 44.5483 23.464C44.7949 23.8245 45.0479 24.1787 45.3641 24.5202C45.3641 24.1028 45.3641 23.679 45.3641 23.2617C45.3641 22.762 45.3768 22.2687 45.3578 21.7755C45.3515 21.5604 45.4273 21.5098 45.6297 21.5098C45.8321 21.5098 45.9269 21.5478 45.9206 21.7818C45.908 22.9201 45.9206 24.0585 45.908 25.2032C45.908 25.3297 46.0155 25.5384 45.7941 25.5637C45.5918 25.589 45.3641 25.6459 45.1997 25.3929C44.6242 24.5202 44.017 23.6601 43.4226 22.8C43.3593 22.7114 43.2961 22.6292 43.1696 22.4648Z" fill="#EC2D32"/>
                                                    <path fill-rule="evenodd" clip-rule="evenodd" d="M2.80244 24.5265C2.80244 23.6221 2.80876 22.7241 2.79611 21.8197C2.79611 21.5921 2.84037 21.5098 3.08702 21.5098C3.33366 21.5035 3.35897 21.611 3.35264 21.8071C3.34632 22.9454 3.35264 24.0838 3.34631 25.2285C3.34631 25.3423 3.43486 25.5447 3.23881 25.5637C3.04276 25.5826 2.81508 25.6648 2.65698 25.4309C2.34709 24.9629 2.01824 24.5012 1.70203 24.0395C1.36053 23.5399 1.01268 23.0403 0.601607 22.5533C0.601607 22.9201 0.601607 23.2806 0.601607 23.6474C0.601607 24.204 0.588965 24.7542 0.607938 25.3044C0.614262 25.532 0.538364 25.5826 0.323341 25.589C0.0830208 25.5953 0.0514044 25.4941 0.0514044 25.2917C0.0577286 24.1534 0.0514106 23.015 0.0577348 21.8703C0.0577348 21.7565 -0.0371384 21.5541 0.146264 21.5351C0.348638 21.5162 0.576317 21.4276 0.747071 21.6869C1.20874 22.3952 1.70202 23.0846 2.18266 23.7802C2.35974 24.0332 2.53682 24.2925 2.72022 24.5455C2.75817 24.5391 2.78347 24.5328 2.80244 24.5265Z" fill="#EC2D32"/>
                                                    <path fill-rule="evenodd" clip-rule="evenodd" d="M15.5949 23.5526C15.5949 22.9771 15.6012 22.4016 15.5886 21.8261C15.5823 21.6111 15.6139 21.5036 15.8732 21.5099C16.1072 21.5162 16.1894 21.5731 16.1767 21.8135C16.1578 22.1739 16.1831 22.5344 16.1704 22.8949C16.1641 23.0846 16.202 23.1858 16.4234 23.1795C16.9736 23.1668 17.5301 23.1668 18.0803 23.1795C18.2637 23.1795 18.308 23.1163 18.308 22.9455C18.3017 22.5471 18.3207 22.155 18.3017 21.7629C18.289 21.5162 18.4218 21.5226 18.5926 21.5226C18.757 21.5226 18.8898 21.5036 18.8898 21.7566C18.8772 22.9518 18.8772 24.1471 18.8898 25.3487C18.8898 25.589 18.776 25.5953 18.5989 25.5953C18.4282 25.589 18.2954 25.6017 18.3017 25.355C18.3207 24.8934 18.3017 24.4317 18.308 23.97C18.3143 23.7803 18.289 23.6854 18.055 23.6918C17.5048 23.7107 16.9483 23.7044 16.3981 23.6918C16.221 23.6854 16.1641 23.7487 16.1704 23.9258C16.1767 24.3621 16.1704 24.8048 16.1767 25.2475C16.1767 25.4499 16.1957 25.608 15.8921 25.608C15.6076 25.608 15.5886 25.4878 15.5949 25.2665C15.6012 24.6847 15.5949 24.1218 15.5949 23.5526Z" fill="#ED3237"/>
                                                    <path fill-rule="evenodd" clip-rule="evenodd" d="M50.468 22.9835C50.9233 22.5534 51.4356 22.3763 51.8467 22.6925C52.2198 22.9771 52.3842 22.8506 52.7004 22.6736C53.3898 22.2941 54.0791 22.7242 54.0918 23.502C54.0981 24.1092 54.0854 24.7226 54.0981 25.3297C54.1044 25.5195 54.0475 25.589 53.8514 25.5827C53.6744 25.5764 53.5542 25.5701 53.5605 25.3361C53.5795 24.7985 53.5668 24.2546 53.5668 23.7107C53.5605 23.2364 53.4151 23.0277 53.0672 23.0151C52.6688 22.9961 52.3463 23.287 52.3273 23.7297C52.3083 24.2483 52.3083 24.7669 52.3273 25.2855C52.3336 25.5258 52.2641 25.5954 52.0237 25.5827C51.8214 25.5764 51.7771 25.5068 51.7834 25.3234C51.7897 24.7732 51.7897 24.2167 51.7834 23.6665C51.7771 23.2301 51.6253 23.034 51.3028 23.0151C50.9423 22.9898 50.6198 23.2364 50.5628 23.6159C50.487 24.1661 50.5376 24.7226 50.5312 25.2728C50.5312 25.4562 50.5376 25.589 50.2783 25.589C50.0063 25.589 50 25.4689 50 25.2602C50.0063 24.4823 50 23.7044 50.0063 22.9265C50.0063 22.7874 49.9557 22.6293 50.2024 22.6293C50.4174 22.6293 50.5312 22.6799 50.468 22.9835Z" fill="#EC2D32"/>
                                                    <path fill-rule="evenodd" clip-rule="evenodd" d="M80.6399 24.0966C80.6399 24.3243 80.6652 24.5456 80.7727 24.7543C81.0509 25.2982 81.7845 25.3804 82.1577 24.9187C82.4739 24.5266 82.4802 23.7235 82.1703 23.325C82.0186 23.129 81.8162 23.0151 81.5632 23.0088C80.994 22.9835 80.6462 23.3946 80.6399 24.0966ZM82.9356 23.6918C83.1127 23.6033 83.2138 23.4895 83.2328 23.3187C83.2391 23.2555 83.2834 23.1669 83.1822 23.1543C82.8091 23.0974 82.9861 22.8065 83.0178 22.661C83.0557 22.4713 83.2834 22.5978 83.4288 22.5725C83.4984 22.5598 83.5427 22.6104 83.5617 22.6863C83.6692 23.1037 83.5111 23.616 83.1506 23.8563C82.9988 23.9575 82.9545 24.0586 82.9419 24.2357C82.847 25.3045 82.0755 25.8484 81.0636 25.5828C80.9498 25.5512 80.8296 25.5006 80.7284 25.4373C80.1908 25.1085 79.9569 24.3243 80.1656 23.559C80.3363 22.9393 80.8106 22.5851 81.4873 22.5661C82.2083 22.5472 82.6763 22.895 82.9039 23.6223C82.8976 23.6412 82.9166 23.6602 82.9356 23.6918Z" fill="#EC2D32"/>
                                                    <path fill-rule="evenodd" clip-rule="evenodd" d="M78.3509 25.2097C78.0283 25.5385 77.7184 25.665 77.3453 25.646C76.7319 25.6144 76.3903 25.2729 76.3777 24.6594C76.365 24.065 76.384 23.4642 76.3714 22.8634C76.3651 22.6484 76.4599 22.6294 76.6307 22.6294C76.8141 22.6294 76.9216 22.6547 76.9153 22.8823C76.9026 23.4262 76.9026 23.9638 76.9153 24.5077C76.9279 24.982 77.0924 25.178 77.4781 25.1907C77.9145 25.2033 78.2433 24.963 78.2749 24.5393C78.3129 24.0144 78.3066 23.4768 78.3003 22.9519C78.3003 22.7369 78.3256 22.6294 78.5849 22.6294C78.8568 22.6294 78.8378 22.7748 78.8378 22.9456C78.8315 23.2175 78.8378 23.4895 78.8378 23.7551C78.8378 23.8183 78.8188 23.9322 78.8821 23.9385C79.1098 23.9575 79.2679 23.812 79.3627 23.6286C79.426 23.5084 79.5778 23.3314 79.2932 23.2302C79.0465 23.1416 79.1603 22.895 79.1856 22.7432C79.2173 22.5472 79.4323 22.661 79.5588 22.6484C79.7801 22.6231 79.7295 22.7938 79.7422 22.9203C79.7801 23.5211 79.6726 24.0334 78.977 24.1915C78.8505 24.2231 78.8378 24.3116 78.8378 24.4191C78.8441 24.7037 78.8441 24.982 78.8378 25.2666C78.8315 25.3994 78.92 25.5891 78.6418 25.5954C78.3888 25.5954 78.3256 25.4879 78.3509 25.2097Z" fill="#ED3033"/>
                                                    <path fill-rule="evenodd" clip-rule="evenodd" d="M9.32257 24.1534C8.93679 24.2293 8.55733 24.2925 8.17156 24.3747C7.96918 24.419 7.83637 24.5581 7.83637 24.7795C7.83637 25.0135 7.9755 25.1399 8.19053 25.2032C8.87354 25.3992 9.41743 24.8996 9.32257 24.1534ZM10.0245 25.551C9.51228 25.6206 9.5123 25.6206 9.38581 25.2601C8.95577 25.57 8.48777 25.7344 7.95653 25.6079C7.54546 25.5131 7.29249 25.2538 7.26087 24.8807C7.22925 24.4822 7.44427 24.147 7.84901 23.9953C8.23479 23.8498 8.6522 23.8751 9.0443 23.7739C9.16446 23.7423 9.34153 23.7866 9.35418 23.5842C9.36683 23.3945 9.31624 23.23 9.14549 23.1162C8.75971 22.8632 8.13362 22.996 7.92492 23.4071C7.79211 23.6727 7.6087 23.5209 7.46325 23.483C7.2672 23.4324 7.40633 23.287 7.44428 23.1921C7.53281 22.9581 7.70356 22.8 7.93123 22.7051C8.37393 22.528 8.83561 22.5091 9.29095 22.6356C9.68938 22.7431 9.87276 22.9771 9.88541 23.3945C9.89806 23.8435 9.89807 24.2988 9.89174 24.7478C9.88542 25.0324 9.94233 25.2917 10.0245 25.551Z" fill="#ED2830"/>
                                                    <path fill-rule="evenodd" clip-rule="evenodd" d="M47.6843 25.2349C48.2409 25.2413 48.6013 24.944 48.6709 24.495C48.7152 24.1978 48.6583 24.1029 48.3421 24.2104C48.1207 24.2863 47.8741 24.2863 47.6464 24.3306C47.3744 24.3812 47.1278 24.4824 47.1657 24.8239C47.2037 25.159 47.4693 25.2096 47.6843 25.2349ZM48.7278 25.2413C48.2535 25.5891 47.7855 25.7282 47.2543 25.5954C46.8559 25.4942 46.6345 25.2476 46.5966 24.8808C46.5586 24.5013 46.7483 24.1851 47.1215 24.0207C47.5072 23.8499 47.9436 23.8879 48.3421 23.7804C48.4749 23.7424 48.6899 23.793 48.6899 23.5527C48.6899 23.3377 48.6077 23.1669 48.3926 23.0721C47.9563 22.8823 47.4883 23.0151 47.2416 23.4325C47.0962 23.6729 46.9128 23.5148 46.7673 23.4768C46.5966 23.4325 46.7357 23.2871 46.7673 23.1985C46.8559 22.9519 47.0393 22.7811 47.2796 22.6926C47.7223 22.5282 48.1839 22.5092 48.6393 22.642C49.044 22.7622 49.2021 22.9835 49.2085 23.4136C49.2211 23.9321 49.2274 24.4507 49.2337 24.9693C49.2337 25.0389 49.2654 25.1085 49.2464 25.1717C49.2021 25.3045 49.4741 25.4879 49.2337 25.5575C49.0314 25.627 48.7531 25.646 48.7278 25.2413Z" fill="#ED2830"/>
                                                    <path fill-rule="evenodd" clip-rule="evenodd" d="M20.6608 25.2347C21.2806 25.2347 21.6537 24.8616 21.6284 24.3367C21.6221 24.1976 21.6031 24.1343 21.4387 24.1723C21.1667 24.2355 20.8885 24.2735 20.6102 24.3304C20.2308 24.4126 20.0663 24.577 20.1169 24.849C20.1865 25.1715 20.4458 25.2158 20.6608 25.2347ZM22.3051 25.5636C22.0268 25.5573 21.7106 25.7217 21.679 25.2411C21.2173 25.5699 20.7493 25.728 20.2181 25.5952C19.8197 25.494 19.5793 25.2537 19.5477 24.8869C19.5098 24.4885 19.6995 24.1786 20.0916 24.0078C20.4584 23.8497 20.8695 23.8814 21.2489 23.7865C21.3881 23.7486 21.6221 23.8181 21.6284 23.5525C21.6347 23.2932 21.5209 23.1225 21.2742 23.0402C20.8126 22.8821 20.4331 23.0086 20.1865 23.426C20.0537 23.6537 19.8829 23.5019 19.7438 23.4829C19.5477 23.4513 19.6742 23.3122 19.7058 23.2236C19.7817 22.996 19.9335 22.8315 20.1485 22.7367C20.6671 22.509 21.1984 22.4964 21.7296 22.6924C22.0079 22.7999 22.147 23.0276 22.1596 23.3248C22.1723 23.5841 22.1723 23.8434 22.1723 24.1027C22.1723 24.5897 22.1407 25.0766 22.3051 25.5636Z" fill="#ED2830"/>
                                                    <path fill-rule="evenodd" clip-rule="evenodd" d="M30.7109 21.5416C31.2737 21.4846 31.2737 21.4846 31.4635 22.0095C31.8303 22.9961 32.1907 23.9827 32.5765 25.0135C32.9307 24.0902 33.2659 23.2111 33.6074 22.3321C33.6516 22.2182 33.6959 22.0981 33.7402 21.9842C33.9299 21.4973 33.9299 21.4973 34.4928 21.5352C34.4169 21.7376 34.341 21.9273 34.2651 22.1234C33.835 23.1858 33.3987 24.2483 32.9813 25.3171C32.9054 25.5132 32.8105 25.5954 32.5892 25.589C32.3678 25.589 32.254 25.5384 32.1718 25.3108C31.7228 24.1471 31.2484 22.9898 30.7868 21.8325C30.7488 21.7376 30.6856 21.6554 30.7109 21.5416Z" fill="#ED2830"/>
                                                    <path fill-rule="evenodd" clip-rule="evenodd" d="M37.3183 23.8119C37.5333 23.8119 37.7484 23.8056 37.9634 23.8119C38.1405 23.8182 38.1721 23.755 38.1341 23.5906C38.0456 23.2617 37.7737 23.0214 37.4322 23.0024C37.0274 22.9708 36.7175 23.1732 36.5721 23.521C36.4772 23.7487 36.5341 23.8309 36.7807 23.8119C36.9578 23.8056 37.1349 23.8119 37.3183 23.8119ZM37.5903 24.2356C37.2867 24.2356 36.9831 24.242 36.6732 24.2356C36.4962 24.2293 36.4709 24.2926 36.5025 24.457C36.5784 24.8364 36.8124 25.1147 37.1602 25.1906C37.5586 25.2791 37.8559 25.1653 38.0772 24.7922C38.2417 24.5139 38.4503 24.6657 38.6401 24.691C38.7286 24.6973 38.678 24.7985 38.6527 24.8554C38.5642 25.0831 38.4251 25.2665 38.2227 25.4119C37.3626 26.0254 36.1483 25.5384 35.9523 24.5076C35.712 23.268 36.5278 22.3763 37.6914 22.6166C38.3302 22.7495 38.8488 23.502 38.7349 24.1281C38.7096 24.2673 38.6211 24.242 38.5389 24.2483C38.2227 24.2356 37.9065 24.2356 37.5903 24.2356Z" fill="#ED2830"/>
                                                    <path fill-rule="evenodd" clip-rule="evenodd" d="M60.4473 22.914C60.8457 22.5915 61.2378 22.5092 61.6741 22.6041C62.0852 22.699 62.3192 22.9583 62.3635 23.3756C62.433 24.0397 62.3825 24.7037 62.4014 25.3741C62.4077 25.6144 62.256 25.5765 62.1105 25.5828C61.9397 25.5891 61.8322 25.5765 61.8386 25.3551C61.8512 24.8239 61.8449 24.2927 61.8449 23.7614C61.8386 23.2555 61.6615 23.0341 61.2631 23.0152C60.8204 22.9962 60.4852 23.2934 60.4662 23.7551C60.4472 24.2737 60.4472 24.7923 60.4599 25.3109C60.4662 25.5512 60.365 25.5765 60.1626 25.5828C59.9287 25.5954 59.916 25.4816 59.916 25.2982C59.9223 24.1219 59.9223 22.9456 59.916 21.7756C59.916 21.5733 59.9666 21.51 60.1753 21.51C60.3967 21.51 60.4725 21.5669 60.4599 21.7946C60.4283 22.1424 60.4473 22.4966 60.4473 22.914Z" fill="#ED3033"/>
                                                    <path fill-rule="evenodd" clip-rule="evenodd" d="M74.0633 25.0199C74.4617 23.9764 74.8475 22.9835 75.2269 21.9906C75.4104 21.5036 75.4104 21.5036 75.9795 21.5416C75.8151 21.9653 75.6507 22.3764 75.4862 22.7874C75.151 23.6222 74.8095 24.457 74.4807 25.2918C74.4048 25.4879 74.3163 25.5954 74.0696 25.5954C73.8166 25.5954 73.7281 25.4879 73.6459 25.2792C73.1653 24.046 72.6656 22.8127 72.166 21.5858C72.7225 21.453 72.7479 21.4657 72.9313 21.959C73.2981 22.9519 73.6712 23.9574 74.0633 25.0199Z" fill="#ED2830"/>
                                                    <path fill-rule="evenodd" clip-rule="evenodd" d="M68.1946 22.9266C68.5551 22.6294 68.9029 22.5282 69.2887 22.5851C69.8136 22.661 70.0982 22.9266 70.1235 23.4389C70.1551 24.0903 70.1361 24.748 70.1424 25.4057C70.1487 25.6397 69.9843 25.5765 69.8641 25.5765C69.7377 25.5828 69.5859 25.6207 69.5922 25.3931C69.6049 24.8365 69.5985 24.2863 69.5922 23.7298C69.5922 23.2745 69.4215 23.0468 69.0483 23.0152C68.6499 22.9772 68.3021 23.2112 68.2262 23.6097C68.125 24.1599 68.1946 24.7164 68.1883 25.2666C68.1819 25.4753 68.1693 25.5891 67.9037 25.5891C67.6317 25.5891 67.6507 25.4437 67.6507 25.2666C67.6507 24.1156 67.657 22.9646 67.6507 21.8136C67.6507 21.6175 67.6697 21.51 67.9163 21.51C68.1566 21.51 68.1882 21.6049 68.1819 21.8072C68.1819 22.1551 68.1946 22.5029 68.1946 22.9266Z" fill="#EC2D32"/>
                                                    <path fill-rule="evenodd" clip-rule="evenodd" d="M11.1496 22.9961C11.4216 22.7052 11.6746 22.5977 11.9655 22.5661C12.6991 22.4902 13.1291 22.8759 13.1354 23.6159C13.1418 24.1914 13.1228 24.7669 13.1418 25.3424C13.1481 25.589 13.0153 25.5701 12.8445 25.5827C12.6548 25.5954 12.5916 25.5321 12.5979 25.3361C12.6105 24.7922 12.6042 24.2546 12.6042 23.7107C12.5979 23.2617 12.4082 23.0404 12.035 23.0151C11.6556 22.9835 11.3141 23.2301 11.2445 23.5969C11.1433 24.1598 11.2129 24.7226 11.2002 25.2855C11.1939 25.4815 11.1876 25.589 10.9346 25.589C10.688 25.589 10.6627 25.4878 10.6627 25.2855C10.669 24.5076 10.6627 23.7297 10.669 22.9518C10.669 22.8254 10.5868 22.642 10.8398 22.6293C11.0485 22.6167 11.2002 22.6483 11.1496 22.9961Z" fill="#ED3033"/>
                                                    <path fill-rule="evenodd" clip-rule="evenodd" d="M64.9046 22.9897C65.3156 22.5913 65.7267 22.509 66.182 22.6102C66.6121 22.7051 66.8714 22.996 66.884 23.445C66.8967 24.0838 66.8777 24.7288 66.8967 25.3739C66.903 25.6079 66.7702 25.5826 66.6184 25.5889C66.4476 25.5953 66.3465 25.57 66.3528 25.3549C66.3654 24.8111 66.3591 24.2735 66.3528 23.7296C66.3465 23.2679 66.1757 23.0592 65.8026 23.0213C65.3915 22.9834 65.0247 23.249 64.9931 23.66C64.9551 24.1976 64.9615 24.7415 64.9615 25.2791C64.9615 25.4688 64.9615 25.5953 64.7022 25.5889C64.4682 25.5889 64.4239 25.5004 64.4303 25.2917C64.4429 24.5012 64.4366 23.7106 64.4366 22.9201C64.4366 22.7747 64.3986 22.6292 64.6389 22.6229C64.8603 22.6229 64.9552 22.6924 64.9046 22.9897Z" fill="#EC2D32"/>
                                                    <path fill-rule="evenodd" clip-rule="evenodd" d="M84.5661 22.996C84.9835 22.5786 85.4072 22.4964 85.8752 22.6102C86.2737 22.7051 86.5266 22.9644 86.5393 23.3628C86.5646 24.0395 86.5519 24.7162 86.5583 25.3929C86.5583 25.6205 86.4065 25.5636 86.28 25.5763C86.1282 25.5889 86.0207 25.5763 86.0207 25.3676C86.027 24.8047 86.027 24.2355 86.0207 23.6727C86.0143 23.4007 85.9448 23.1604 85.6476 23.0529C85.3503 22.9517 85.091 23.0276 84.857 23.2173C84.6673 23.3754 84.6294 23.5968 84.6294 23.8308C84.6294 24.3241 84.6167 24.8237 84.6357 25.3233C84.642 25.551 84.5472 25.5763 84.3574 25.5826C84.1487 25.5889 84.0918 25.5193 84.0918 25.317C84.1044 24.5138 84.0981 23.7106 84.0981 22.9138C84.0981 22.762 84.0728 22.6292 84.3068 22.6292C84.5472 22.6229 84.6167 22.7051 84.5661 22.996Z" fill="#EC2D32"/>
                                                    <path fill-rule="evenodd" clip-rule="evenodd" d="M23.4187 22.996C23.8298 22.585 24.2409 22.5027 24.7025 22.6039C25.1262 22.6988 25.3918 22.9707 25.4045 23.4008C25.4235 24.0648 25.4108 24.7289 25.4172 25.3929C25.4172 25.6206 25.2717 25.57 25.1452 25.5763C25.0124 25.5826 24.8733 25.6016 24.8796 25.3866C24.8922 24.8301 24.8859 24.2798 24.8796 23.7296C24.8733 23.2553 24.6899 23.034 24.2978 23.015C23.8804 22.996 23.5389 23.2553 23.5136 23.6854C23.4819 24.2229 23.4819 24.7668 23.4946 25.3044C23.5009 25.532 23.4187 25.5826 23.2037 25.5826C22.9634 25.589 22.957 25.4688 22.957 25.2917C22.9634 24.5012 22.957 23.7107 22.9634 22.9201C22.9634 22.7873 22.9128 22.6229 23.1594 22.6229C23.3681 22.6292 23.4883 22.6735 23.4187 22.996Z" fill="#EC2D32"/>
                                                    <path fill-rule="evenodd" clip-rule="evenodd" d="M57.4689 23.793C57.4689 23.2744 57.4626 22.7558 57.4689 22.2372C57.4753 22.0601 57.4183 21.9969 57.2413 22.0095C56.925 22.0222 56.6088 22.0032 56.2926 22.0159C56.0713 22.0285 56.0966 21.8957 56.0966 21.7566C56.0966 21.6238 56.0903 21.5226 56.28 21.5226C57.2602 21.5289 58.2405 21.5289 59.2207 21.5226C59.3978 21.5226 59.4294 21.5985 59.4168 21.7503C59.4105 21.8831 59.4484 22.0285 59.2271 22.0222C58.9804 22.0095 58.7338 22.0222 58.4808 22.0222C58.0381 22.0222 58.0381 22.0222 58.0381 22.4459C58.0381 23.3945 58.0318 24.3432 58.0444 25.2855C58.0508 25.5132 57.9939 25.5954 57.7472 25.5954C57.5069 25.5954 57.4436 25.5195 57.45 25.2918C57.4816 24.7859 57.4689 24.2863 57.4689 23.793Z" fill="#ED2830"/>
                                                    <path fill-rule="evenodd" clip-rule="evenodd" d="M39.4242 24.1408C39.4242 23.9131 39.4242 23.6917 39.4242 23.4641C39.4242 23.2617 39.5001 23.015 39.1333 23.0403C39.0068 23.0467 39.0447 22.9075 39.0384 22.8253C39.0321 22.7305 39.0447 22.6293 39.1712 22.6419C39.4621 22.6672 39.4432 22.4712 39.4179 22.2941C39.3799 22.0095 39.4811 21.8387 39.7467 21.7123C39.9428 21.6237 39.9554 21.6996 39.9491 21.8514C39.9428 21.9779 39.9554 22.1044 39.9491 22.2245C39.9301 22.4901 39.9428 22.7052 40.3096 22.6356C40.4614 22.6103 40.455 22.7305 40.4614 22.838C40.4614 22.9581 40.455 23.0783 40.2906 23.053C39.9807 23.0024 39.9428 23.1605 39.9491 23.4198C39.9681 23.8688 39.9554 24.3242 39.9554 24.7732C39.9554 25.0009 40.025 25.1526 40.2843 25.121C40.5436 25.0894 40.493 25.2981 40.5183 25.4372C40.5562 25.6586 40.3728 25.5953 40.2716 25.6016C39.6266 25.6459 39.4368 25.4688 39.4305 24.8238C39.4242 24.5961 39.4242 24.3684 39.4242 24.1408Z" fill="#ED3033"/>
                                                    <path fill-rule="evenodd" clip-rule="evenodd" d="M34.8155 24.0839C34.8155 23.6918 34.8218 23.2934 34.8092 22.9013C34.8028 22.6989 34.8471 22.6167 35.0685 22.623C35.2519 22.6293 35.3531 22.6483 35.3531 22.876C35.3404 23.6981 35.3404 24.5203 35.3531 25.3424C35.3594 25.5891 35.2202 25.5701 35.0558 25.5828C34.8598 25.5954 34.8092 25.5195 34.8092 25.3298C34.8281 24.9187 34.8155 24.5013 34.8155 24.0839Z" fill="#ED3237"/>
                                                    <path fill-rule="evenodd" clip-rule="evenodd" d="M63.1475 24.1028C63.1475 23.698 63.1538 23.2933 63.1412 22.8886C63.1349 22.7051 63.1791 22.6166 63.3815 22.6356C63.5459 22.6482 63.6851 22.6229 63.6788 22.8696C63.6661 23.7044 63.6661 24.5392 63.6788 25.374C63.6851 25.6016 63.5523 25.5827 63.4005 25.5953C63.2234 25.6016 63.1349 25.57 63.1412 25.3613C63.1602 24.9376 63.1475 24.5202 63.1475 24.1028Z" fill="#ED3237"/>
                                                    <path fill-rule="evenodd" clip-rule="evenodd" d="M9.51221 22.2561C9.20233 22.294 8.92407 22.351 8.77229 22.0095C8.70905 21.864 8.61418 21.8513 8.54461 22.0095C8.3865 22.3636 8.0956 22.2877 7.80469 22.2687C8.3296 21.3075 8.83552 21.1494 9.51221 22.2561Z" fill="#ED2830"/>
                                                    <path fill-rule="evenodd" clip-rule="evenodd" d="M36.4785 22.2499C37.054 21.2253 37.5663 21.2253 38.1608 22.2246C37.7687 22.3321 37.7686 22.3321 37.3007 21.8704C37.1552 22.2562 36.8706 22.351 36.4785 22.2499Z" fill="#ED2830"/>
                                                    <path fill-rule="evenodd" clip-rule="evenodd" d="M21.3307 22.2625C20.7362 22.4079 20.6667 21.8135 20.3125 21.5731C21.0714 21.453 20.9955 21.3961 21.3307 22.2625Z" fill="#ED2830"/>
                                                    <path fill-rule="evenodd" clip-rule="evenodd" d="M37.3578 26.468C37.1111 26.5313 37.0605 26.4174 37.0605 26.1834C37.0605 25.9558 37.1175 25.8735 37.3578 25.8735C37.6108 25.8735 37.6867 25.9368 37.6803 26.1961C37.6803 26.4617 37.5791 26.5123 37.3578 26.468Z" fill="#ED3237"/>
                                                    <path fill-rule="evenodd" clip-rule="evenodd" d="M63.4006 26.4681C63.1603 26.525 63.1034 26.4238 63.0908 26.1898C63.0781 25.9116 63.1982 25.8863 63.4259 25.8799C63.6915 25.8673 63.7042 25.9874 63.7105 26.2025C63.7295 26.4554 63.6283 26.5124 63.4006 26.4681Z" fill="#ED3237"/>
                                                    <path fill-rule="evenodd" clip-rule="evenodd" d="M81.4998 26.4682C81.2848 26.5124 81.1836 26.4618 81.1836 26.2025C81.1836 25.9559 81.2468 25.88 81.4998 25.88C81.7528 25.88 81.816 25.9559 81.816 26.2025C81.816 26.4555 81.7148 26.5124 81.4998 26.4682Z" fill="#ED3033"/>
                                                    <path fill-rule="evenodd" clip-rule="evenodd" d="M63.6719 21.8261C63.7288 22.0664 63.6212 22.1233 63.3873 22.136C63.1027 22.1486 63.1469 21.9842 63.1406 21.8134C63.1343 21.63 63.128 21.4972 63.3936 21.5099C63.6466 21.5162 63.7224 21.5984 63.6719 21.8261Z" fill="#ED3237"/>
                                                    <path fill-rule="evenodd" clip-rule="evenodd" d="M35.347 21.8261C35.4039 22.0727 35.2837 22.117 35.0561 22.1296C34.7715 22.1423 34.8284 21.9715 34.8157 21.8071C34.8031 21.6174 34.8157 21.4972 35.075 21.5035C35.328 21.5162 35.3912 21.6047 35.347 21.8261Z" fill="#ED3237"/>
                                                    </svg>