<svg width="30" height="29" viewBox="0 0 30 29" fill="none" xmlns="http://www.w3.org/2000/svg">
<rect width="30" height="28" rx="4" fill="white"/>
<g clip-path="url(#clip0)">
<path d="M5.38895 24.8326C5.2716 24.7804 5.18685 24.7218 5.32376 24.6044C5.40851 24.5392 5.49978 24.4805 5.59105 24.4219C6.4451 23.8677 7.247 23.2614 7.77508 22.3682C8.2184 21.625 8.14669 21.1882 7.59253 20.6406C4.5023 17.5503 3.14625 13.8538 3.82428 9.48576C4.20893 7.0214 5.33679 4.88954 6.9797 3.03801C7.97066 1.91666 9.15068 1.01045 10.4415 0.254196C10.5198 0.208559 10.6306 0.19552 10.6436 0.07817C10.6176 0.0129753 10.5719 0.0325337 10.5328 0.0325337C8.33575 0.0325337 6.13869 -0.0131026 3.94815 0.0455727C1.84888 0.110767 0.0364668 1.73412 0.0429863 4.06157C0.0560252 10.8614 0.0429863 17.6612 0.0429863 24.4675C0.0429863 26.5798 1.65329 28.3466 3.75908 28.4248C5.5389 28.4965 7.31871 28.4379 9.10505 28.4313C9.23544 28.4379 9.36583 28.4444 9.49622 28.4444H18.9103C21.2573 28.4444 23.6043 28.4574 25.9514 28.4444C28.1289 28.4444 29.8956 26.6841 29.8956 24.5131V24.474V20.6601C29.8956 20.5689 29.9282 20.4711 29.8696 20.3733C29.7522 20.3798 29.7066 20.4776 29.6414 20.5428C28.3766 21.8141 26.8836 22.8376 25.2473 23.5613C21.2378 25.3281 17.1566 25.4519 13.0167 24.0307C12.6582 23.9003 12.267 23.8873 11.8954 23.9785C11.3477 24.1155 10.8066 24.2784 10.2655 24.4414C8.67476 24.9369 7.05141 25.1586 5.38895 24.8326ZM10.1156 13.8473C10.2264 13.7039 10.2851 13.6191 10.3503 13.5344C11.2043 12.4521 12.0584 11.3699 12.9124 10.2811C13.1602 9.9682 13.4079 9.64875 13.5644 9.27062C13.7469 8.84034 13.5513 8.43613 13.108 8.27966C12.9124 8.22099 12.7038 8.19491 12.4952 8.20795C11.3347 8.20143 10.1677 8.20143 9.00726 8.20795C8.84427 8.20795 8.68128 8.22751 8.52481 8.26662C8.15972 8.3579 7.93806 8.72951 8.02933 9.10112C8.09453 9.34886 8.29011 9.54444 8.53785 9.60311C8.69432 9.64223 8.85731 9.66179 9.02029 9.65527C9.7244 9.66179 10.435 9.65527 11.1391 9.66179C11.2174 9.66179 11.3151 9.60963 11.3738 9.72698C11.3151 9.80522 11.2565 9.88345 11.1978 9.95516C10.1873 11.233 9.18328 12.5173 8.17276 13.7951C7.92502 14.1146 7.79463 14.4666 7.97718 14.8578C8.15972 15.249 8.53133 15.3207 8.90946 15.3468C9.20936 15.3663 9.51577 15.3533 9.82219 15.3533C10.8783 15.3533 11.928 15.3598 12.9841 15.3468C13.5448 15.3402 13.8447 15.0012 13.786 14.4797C13.7404 14.069 13.4601 13.8538 12.9385 13.8473C12.0192 13.8408 11.1 13.8473 10.1156 13.8473ZM17.6781 10.418C16.8632 9.70743 15.9635 9.66179 15.0834 10.1833C14.0142 10.8092 13.623 11.8328 13.7534 13.0193C13.8773 14.1276 14.3597 15.0338 15.5202 15.4054C16.2439 15.6401 16.9154 15.5554 17.5086 15.0729C17.6651 14.9491 17.7107 14.9752 17.8216 15.1121C18.0367 15.3859 18.4083 15.4902 18.7343 15.3663C19.0603 15.2685 19.2754 14.9686 19.2754 14.6296C19.2819 13.3257 19.2885 12.0218 19.2754 10.7179C19.2689 10.1964 18.7799 9.86389 18.2714 9.9682C17.9911 10.0269 17.8346 10.2159 17.6781 10.418ZM22.1961 12.8368C22.1701 14.4666 23.5196 15.6988 25.2147 15.5293C26.7728 15.3728 27.7833 14.2059 27.7312 12.5564C27.679 10.9266 26.4664 9.81174 24.8039 9.86389C23.2458 9.90953 22.144 11.1613 22.1961 12.8368ZM21.6224 11.5394C21.6224 10.5158 21.6289 9.4988 21.6224 8.47525C21.6224 7.95369 21.2899 7.62771 20.7945 7.63423C20.312 7.64075 19.9926 7.96673 19.986 8.46873C19.9795 8.77514 19.986 9.07504 19.986 9.38145V14.5644C19.986 14.9686 20.2338 15.3207 20.5598 15.4054C21.0096 15.5293 21.4725 15.262 21.5898 14.8122C21.6094 14.7339 21.6224 14.6557 21.6159 14.5709C21.6289 13.5604 21.6224 12.5499 21.6224 11.5394Z" fill="#FDFEFE"/>
<path d="M9.09722 28.438C7.3174 28.438 5.53107 28.4967 3.75125 28.4315C1.64547 28.3467 0.0351562 26.58 0.0351562 24.4742C0.0351562 17.6744 0.0481952 10.8746 0.0351562 4.06823C0.0351562 1.74078 1.85409 0.117431 3.94684 0.0587562C6.13738 8.10325e-05 8.33444 0.0457173 10.5315 0.0457173C10.5706 0.0457173 10.6228 0.0261589 10.6423 0.0913536C10.6293 0.208704 10.5119 0.221743 10.4402 0.267379C9.14937 1.02364 7.96935 1.92984 6.97839 3.05119C5.342 4.90272 4.20762 7.02807 3.82297 9.49895C3.14494 13.8605 4.50751 17.5635 7.59122 20.6538C8.13886 21.2079 8.21057 21.6382 7.77377 22.3814C7.24569 23.2746 6.44379 23.8809 5.58974 24.435C5.49847 24.4872 5.4072 24.5524 5.31593 24.6111C5.17902 24.7284 5.26377 24.7871 5.38112 24.8393C5.4072 24.8979 5.4398 24.9501 5.47891 25.0022C6.22865 25.6672 6.93927 26.3778 7.67597 27.0559C8.02151 27.3753 8.36704 27.7078 8.69953 28.0403C8.83644 28.1642 9.06462 28.2033 9.09722 28.438Z" fill="#0180C7"/>
<path d="M9.09499 28.4383C9.06239 28.2101 8.83421 28.171 8.6973 28.0341C8.36481 27.695 8.01928 27.3691 7.67375 27.0496C6.93705 26.3716 6.22643 25.661 5.4767 24.996C5.43758 24.9438 5.40498 24.8917 5.37891 24.833C7.04136 25.159 8.6647 24.9373 10.262 24.4483C10.8031 24.2854 11.3442 24.1224 11.8918 23.9855C12.2634 23.8877 12.6546 23.9072 13.0132 24.0376C17.1465 25.4589 21.2277 25.3285 25.2436 23.5682C26.88 22.8446 28.373 21.8275 29.6377 20.5562C29.7029 20.491 29.7486 20.3932 29.8659 20.3867C29.9246 20.478 29.892 20.5758 29.892 20.6736V24.4875C29.905 26.665 28.1578 28.4383 25.9803 28.4578H25.9477C23.6007 28.4709 21.2537 28.4578 18.9067 28.4578H9.48615C9.35576 28.4448 9.22537 28.4383 9.09499 28.4383Z" fill="#0172B1"/>
<path d="M10.1119 13.8472C11.0963 13.8472 12.0221 13.8407 12.9413 13.8472C13.4564 13.8537 13.7367 14.0689 13.7889 14.4796C13.8475 14.9947 13.5476 15.3402 12.987 15.3467C11.9308 15.3598 10.8812 15.3532 9.82506 15.3532C9.51864 15.3532 9.21875 15.3663 8.91234 15.3467C8.53421 15.3272 8.16261 15.2489 7.98006 14.8578C7.79752 14.4666 7.92791 14.1145 8.17565 13.7951C9.17963 12.5172 10.1901 11.2329 11.2006 9.95507C11.2593 9.87684 11.318 9.79861 11.3767 9.72689C11.3115 9.61606 11.2202 9.66822 11.142 9.6617C10.4379 9.65518 9.72726 9.6617 9.02317 9.65518C8.86018 9.65518 8.6972 9.63562 8.54073 9.60302C8.16913 9.51827 7.94095 9.14665 8.0257 8.78156C8.08438 8.53382 8.27996 8.33171 8.52769 8.27304C8.68416 8.23392 8.84715 8.21436 9.01013 8.21436C10.1706 8.20784 11.3376 8.20784 12.498 8.21436C12.7066 8.20784 12.9087 8.23392 13.1108 8.28608C13.5542 8.43603 13.7432 8.84676 13.5672 9.27704C13.4107 9.64866 13.163 9.96811 12.9153 10.2876C12.0612 11.3763 11.2072 12.4586 10.3531 13.5343C10.2814 13.619 10.2162 13.7038 10.1119 13.8472Z" fill="#0180C7"/>
<path d="M17.676 10.4185C17.8325 10.2164 17.9955 10.0273 18.2628 9.97518C18.7778 9.87087 19.2603 10.2034 19.2668 10.7249C19.2864 12.0288 19.2798 13.3327 19.2668 14.6366C19.2668 14.9756 19.0451 15.2755 18.7257 15.3733C18.3997 15.4972 18.0281 15.3994 17.813 15.119C17.7021 14.9821 17.6565 14.9561 17.5 15.0799C16.9067 15.5624 16.2352 15.6471 15.5116 15.4124C14.3511 15.0343 13.8752 14.1281 13.7448 13.0263C13.6079 11.8332 14.0055 10.8162 15.0747 10.1903C15.9614 9.66225 16.8611 9.70788 17.676 10.4185ZM15.3681 12.7981C15.3812 13.085 15.4724 13.3588 15.6419 13.587C15.994 14.0564 16.6655 14.1542 17.1414 13.8021C17.2197 13.7434 17.2914 13.6717 17.3566 13.587C17.7217 13.0915 17.7217 12.2766 17.3566 11.7811C17.174 11.5268 16.8872 11.3769 16.5808 11.3703C15.8636 11.3247 15.3616 11.8789 15.3681 12.7981ZM22.1941 12.8372C22.1419 11.1617 23.2437 9.90998 24.8084 9.86435C26.4709 9.81219 27.6835 10.927 27.7357 12.5569C27.7878 14.2063 26.7773 15.3733 25.2191 15.5298C23.5175 15.6993 22.168 14.4671 22.1941 12.8372ZM23.8305 12.6808C23.8174 13.0067 23.9152 13.3262 24.1108 13.5935C24.4694 14.0629 25.1409 14.1542 25.6103 13.7891C25.682 13.7369 25.7407 13.6717 25.7994 13.6065C26.1775 13.111 26.1775 12.2766 25.8059 11.7811C25.6233 11.5333 25.3365 11.3769 25.0301 11.3703C24.326 11.3312 23.8305 11.8658 23.8305 12.6808ZM21.6204 11.5399C21.6204 12.5504 21.6269 13.5609 21.6204 14.5714C21.6269 15.0343 21.2618 15.4189 20.7989 15.432C20.7207 15.432 20.6359 15.4255 20.5577 15.4059C20.2317 15.3211 19.984 14.9756 19.984 14.5649V9.38191C19.984 9.07549 19.9774 8.7756 19.984 8.46918C19.9905 7.96718 20.3099 7.64121 20.7924 7.64121C21.2879 7.63469 21.6204 7.96066 21.6204 8.48222C21.6269 9.49926 21.6204 10.5228 21.6204 11.5399Z" fill="#0180C7"/>
<path d="M15.3673 12.7975C15.3607 11.8783 15.8627 11.3242 16.5734 11.3633C16.8798 11.3763 17.1666 11.5263 17.3492 11.7805C17.7143 12.2695 17.7143 13.0909 17.3492 13.5864C16.9971 14.0558 16.3256 14.1536 15.8497 13.8015C15.7715 13.7429 15.6997 13.6711 15.6345 13.5864C15.4716 13.3582 15.3803 13.0844 15.3673 12.7975ZM23.8295 12.6802C23.8295 11.8718 24.325 11.3307 25.0291 11.3698C25.3355 11.3763 25.6224 11.5328 25.8049 11.7805C26.1765 12.276 26.1765 13.117 25.7984 13.606C25.4333 14.0688 24.7553 14.1471 24.2924 13.782C24.2207 13.7298 24.162 13.6646 24.1099 13.5929C23.9143 13.3256 23.823 13.0062 23.8295 12.6802Z" fill="#FDFEFE"/>
</g>
<defs>
<clipPath id="clip0">
<rect width="30" height="28.464" fill="white"/>
</clipPath>
</defs>
</svg>
