<svg width="161" height="54" viewBox="0 0 161 54" fill="none" xmlns="http://www.w3.org/2000/svg">
<path d="M32.3437 48.6538L27.0026 53.9949L7.46229 34.4546L12.8034 29.1135L27.0026 43.3127L43.3178 26.9974L41.231 24.9106L27.0026 39.139L14.8611 26.9974L29.1186 12.7982L27.0026 10.6822L12.7742 24.9106L7.43311 19.5695L27.0026 0L39.3193 12.3167L24.945 26.691L27.0464 28.7632L41.4061 14.4035L54 26.9974L32.3437 48.6538Z" fill="#F08E21"/>
<path d="M5.33485 21.6603L0 26.9951L5.33485 32.33L10.6697 26.9951L5.33485 21.6603Z" fill="#F08E21"/>
<path d="M74.8177 21.1821V32.8841H72V21.1821H74.8177Z" fill="white"/>
<path d="M89.863 21.2648V32.8841H87.0452V25.6179L84.5406 32.8841H82.1019L79.5808 25.6014V32.8841H76.7631V21.2648H80.207L83.3542 29.3586L86.4356 21.2648H89.863Z" fill="white"/>
<path d="M100.179 21.1821V23.4331H97.0157V32.8841H94.1815V23.4331H91.0508V21.1821H100.179Z" fill="white"/>
<path d="M110.12 21.0662C111.581 21.0662 112.784 21.4248 113.729 22.1421C114.673 22.8593 115.261 23.8303 115.492 25.0552H112.509C112.312 24.6359 112.01 24.3048 111.603 24.0621C111.197 23.8083 110.708 23.6814 110.137 23.6814C109.247 23.6814 108.533 23.9848 107.994 24.5917C107.456 25.1876 107.187 25.9986 107.187 27.0248C107.187 28.1393 107.467 28.9945 108.027 29.5903C108.599 30.1862 109.406 30.4841 110.45 30.4841C111.12 30.4841 111.707 30.3021 112.213 29.9379C112.718 29.5628 113.075 29.0331 113.284 28.349H109.725V26.3131H115.64V29.1103C115.42 29.7945 115.069 30.429 114.586 31.0138C114.102 31.5986 113.482 32.0731 112.724 32.4372C111.977 32.8014 111.12 32.9834 110.153 32.9834C108.978 32.9834 107.95 32.7352 107.072 32.2386C106.193 31.731 105.512 31.0248 105.028 30.12C104.556 29.2152 104.32 28.1834 104.32 27.0248C104.32 25.8662 104.556 24.8345 105.028 23.9297C105.512 23.0248 106.187 22.3241 107.055 21.8276C107.934 21.32 108.956 21.0662 110.12 21.0662Z" fill="white"/>
<path d="M123.199 32.8841L120.678 28.4648H120.035V32.8841H117.217V21.1821H122.029C122.952 21.1821 123.732 21.3421 124.369 21.6621C125.006 21.9821 125.484 22.4234 125.802 22.9862C126.121 23.5379 126.28 24.1724 126.28 24.8897C126.28 25.7393 126.044 26.4621 125.572 27.0579C125.11 27.6538 124.435 28.0621 123.545 28.2828L126.313 32.8841H123.199ZM120.035 26.5283H121.782C122.342 26.5283 122.754 26.4069 123.018 26.1641C123.281 25.9103 123.413 25.5407 123.413 25.0552C123.413 24.5917 123.276 24.2276 123.001 23.9628C122.737 23.6979 122.331 23.5655 121.782 23.5655H120.035V26.5283Z" fill="white"/>
<path d="M133.23 21C134.328 21 135.322 21.2593 136.212 21.7779C137.113 22.2855 137.821 22.9972 138.338 23.9131C138.854 24.8179 139.112 25.8441 139.112 26.9917C139.112 28.1393 138.848 29.171 138.321 30.0869C137.805 31.0028 137.096 31.72 136.196 32.2386C135.306 32.7462 134.317 33 133.23 33C132.142 33 131.148 32.7462 130.247 32.2386C129.357 31.72 128.649 31.0028 128.121 30.0869C127.605 29.171 127.347 28.1393 127.347 26.9917C127.347 25.8441 127.605 24.8179 128.121 23.9131C128.649 22.9972 129.357 22.2855 130.247 21.7779C131.148 21.2593 132.142 21 133.23 21ZM133.23 23.6317C132.307 23.6317 131.571 23.9352 131.022 24.5421C130.483 25.1379 130.214 25.9545 130.214 26.9917C130.214 28.0179 130.483 28.8345 131.022 29.4414C131.571 30.0483 132.307 30.3517 133.23 30.3517C134.141 30.3517 134.872 30.0483 135.421 29.4414C135.97 28.8345 136.245 28.0179 136.245 26.9917C136.245 25.9655 135.97 25.149 135.421 24.5421C134.883 23.9352 134.152 23.6317 133.23 23.6317Z" fill="white"/>
<path d="M143.43 21.1821V27.9352C143.43 28.7076 143.601 29.2979 143.941 29.7062C144.293 30.1145 144.798 30.3186 145.457 30.3186C146.116 30.3186 146.616 30.1145 146.957 29.7062C147.308 29.2979 147.484 28.7076 147.484 27.9352V21.1821H150.302V27.9352C150.302 29.0386 150.087 29.971 149.659 30.7324C149.23 31.4828 148.643 32.051 147.896 32.4372C147.16 32.8124 146.325 33 145.391 33C144.457 33 143.634 32.8124 142.919 32.4372C142.205 32.0621 141.645 31.4938 141.239 30.7324C140.832 29.971 140.629 29.0386 140.629 27.9352V21.1821H143.43Z" fill="white"/>
<path d="M155.002 28.7793V32.8841H152.184V21.1821H156.749C158.133 21.1821 159.187 21.5297 159.912 22.2248C160.637 22.909 161 23.8359 161 25.0055C161 25.7338 160.835 26.3848 160.506 26.9586C160.187 27.5214 159.709 27.9683 159.072 28.2993C158.435 28.6193 157.66 28.7793 156.749 28.7793H155.002ZM156.436 26.5117C157.567 26.5117 158.133 26.0097 158.133 25.0055C158.133 23.9793 157.567 23.4662 156.436 23.4662H155.002V26.5117H156.436Z" fill="white"/>
</svg>
