<?xml version="1.0" encoding="utf-8"?>
<!-- Generator: Adobe Illustrator 23.1.1, SVG Export Plug-In . SVG Version: 6.00 Build 0)  -->
<svg version="1.1" id="Layer_1" xmlns="http://www.w3.org/2000/svg" xmlns:xlink="http://www.w3.org/1999/xlink" x="0px" y="0px"
	 viewBox="0 0 392 1273.4" style="enable-background:new 0 0 392 1273.4;" xml:space="preserve">
<style type="text/css">
	.st0{display:none;fill:#3A2B2B;stroke:#000000;stroke-miterlimit:10;}
	.st1{fill:none;stroke:#FFFFFF;stroke-miterlimit:10;}
</style>
<rect x="-26.6" y="-169.2" class="st0" width="765" height="1488.2"/>
<path class="st1" d="M392,0l-52.8,183.5c0,0-11.5-3.6-18.1-5.5c-2.3-0.7-2.5-0.6-0.7-9c1-4.5,9-11.8,9-21.7c0-5-1.6-9.1,1.7-22
	c1.6-6.5,4.5-15.4,3.3-22.3c-0.9-4.8-4.2-8.1-7.9-14.5c-3.9-6.8-11.2-11.7-15.7-13.6c-7.3-3.1-24-5.1-38.2-1.6
	c-9.7,2.4-17.2,6.1-22.7,10.1c-5.1,3.7-9,7.7-11.2,12.3c-3,6.1-1.1,10.6-1.2,17.7c-0.2,8.7,2,20.1,2.7,26.2c1,7.9,2.1,8.3,3.3,14.9
	c1.5,8.4,4.7,13.1-7.1,17.6c-15,5.8-25.4,0.8-38.9,12.4c-4.6,4-10,10-13,15.8c-4.1,8.2-7,16.2-12.4,27.7
	c-3.8,8.1-9.2,17.4-10.2,24.3c-0.5,3.9,0.9,6.8,3.5,8.8c3.4,2.5,3.1,5.1,2.9,9.4c-0.2,4.7-1.2,10.7-1.7,19.5
	c-0.8,13.9,2.4,29.7,6.5,49.5c1.1,5.1,3.5,11.5,4.1,16.6c0.8,7.8,0.9,13.8,0.9,18.4c0,3.6-0.2,14.5-0.2,14.5h102.4L27.7,1273.4"/>
</svg>
