<?xml version="1.0" encoding="utf-8"?>
<!-- Generator: Adobe Illustrator 22.0.1, SVG Export Plug-In . SVG Version: 6.00 Build 0)  -->
<svg version="1.1" id="Layer_1" xmlns="http://www.w3.org/2000/svg" xmlns:xlink="http://www.w3.org/1999/xlink" x="0px" y="0px"
	 viewBox="0 0 284.9 244.9" style="enable-background:new 0 0 284.9 244.9;" xml:space="preserve">
<style type="text/css">
	.st0{fill:#DADBDC;}
	.st1{fill:#F3F4F4;}
</style>
<rect x="0.9" y="-23.1" class="st0" width="283.1" height="291.7"/>
<g transform="translate(-5.000000, -5.000000)">
	<path class="st1" d="M1.9-18.1H293V273H1.9V-18.1L1.9-18.1z M180.4,103.6l-3.8-22.4L98,94.9l11.5,65.6l7.8-1.3v5.6h79.7v-61.3
		H180.4L180.4,103.6z M117.4,152.6l-2.5,0.5l-9.4-52.9l65.8-11.6l2.6,15h-56.6V152.6L117.4,152.6L117.4,152.6z M190.6,158.3h-66.8
		V110h66.8V158.3L190.6,158.3z M128.1,114.3v35.8l13.5-9l8.4,5.3l20.4-22.4l2.6,1.1l13.2,15.2v-26H128.1L128.1,114.3L128.1,114.3z
		 M141.1,129.8c-3.1,0-5.8-2.6-5.8-5.8c0-3.1,2.6-5.8,5.8-5.8c3.1,0,5.8,2.6,5.8,5.8C146.8,127.2,144.2,129.8,141.1,129.8
		L141.1,129.8L141.1,129.8z"/>
</g>
</svg>
